%TF.GenerationSoftware,KiCad,Pcbnew,5.1.10-88a1d61d58~88~ubuntu18.04.1*%
%TF.CreationDate,2021-08-17T20:33:50+02:00*%
%TF.ProjectId,USB,5553422e-6b69-4636-9164-5f7063625858,rev?*%
%TF.SameCoordinates,Original*%
%TF.FileFunction,Legend,Top*%
%TF.FilePolarity,Positive*%
%FSLAX46Y46*%
G04 Gerber Fmt 4.6, Leading zero omitted, Abs format (unit mm)*
G04 Created by KiCad (PCBNEW 5.1.10-88a1d61d58~88~ubuntu18.04.1) date 2021-08-17 20:33:50*
%MOMM*%
%LPD*%
G01*
G04 APERTURE LIST*
%ADD10C,0.150000*%
%ADD11C,0.120000*%
G04 APERTURE END LIST*
D10*
X131761904Y-99904761D02*
X131904761Y-99952380D01*
X132142857Y-99952380D01*
X132238095Y-99904761D01*
X132285714Y-99857142D01*
X132333333Y-99761904D01*
X132333333Y-99666666D01*
X132285714Y-99571428D01*
X132238095Y-99523809D01*
X132142857Y-99476190D01*
X131952380Y-99428571D01*
X131857142Y-99380952D01*
X131809523Y-99333333D01*
X131761904Y-99238095D01*
X131761904Y-99142857D01*
X131809523Y-99047619D01*
X131857142Y-99000000D01*
X131952380Y-98952380D01*
X132190476Y-98952380D01*
X132333333Y-99000000D01*
X132761904Y-99952380D02*
X132761904Y-98952380D01*
X133190476Y-99952380D02*
X133190476Y-99428571D01*
X133142857Y-99333333D01*
X133047619Y-99285714D01*
X132904761Y-99285714D01*
X132809523Y-99333333D01*
X132761904Y-99380952D01*
X146761904Y-99904761D02*
X146904761Y-99952380D01*
X147142857Y-99952380D01*
X147238095Y-99904761D01*
X147285714Y-99857142D01*
X147333333Y-99761904D01*
X147333333Y-99666666D01*
X147285714Y-99571428D01*
X147238095Y-99523809D01*
X147142857Y-99476190D01*
X146952380Y-99428571D01*
X146857142Y-99380952D01*
X146809523Y-99333333D01*
X146761904Y-99238095D01*
X146761904Y-99142857D01*
X146809523Y-99047619D01*
X146857142Y-99000000D01*
X146952380Y-98952380D01*
X147190476Y-98952380D01*
X147333333Y-99000000D01*
X147761904Y-99952380D02*
X147761904Y-98952380D01*
X148190476Y-99952380D02*
X148190476Y-99428571D01*
X148142857Y-99333333D01*
X148047619Y-99285714D01*
X147904761Y-99285714D01*
X147809523Y-99333333D01*
X147761904Y-99380952D01*
X146738095Y-91452380D02*
X146738095Y-92261904D01*
X146785714Y-92357142D01*
X146833333Y-92404761D01*
X146928571Y-92452380D01*
X147119047Y-92452380D01*
X147214285Y-92404761D01*
X147261904Y-92357142D01*
X147309523Y-92261904D01*
X147309523Y-91452380D01*
X147738095Y-92404761D02*
X147880952Y-92452380D01*
X148119047Y-92452380D01*
X148214285Y-92404761D01*
X148261904Y-92357142D01*
X148309523Y-92261904D01*
X148309523Y-92166666D01*
X148261904Y-92071428D01*
X148214285Y-92023809D01*
X148119047Y-91976190D01*
X147928571Y-91928571D01*
X147833333Y-91880952D01*
X147785714Y-91833333D01*
X147738095Y-91738095D01*
X147738095Y-91642857D01*
X147785714Y-91547619D01*
X147833333Y-91500000D01*
X147928571Y-91452380D01*
X148166666Y-91452380D01*
X148309523Y-91500000D01*
X149071428Y-91928571D02*
X149214285Y-91976190D01*
X149261904Y-92023809D01*
X149309523Y-92119047D01*
X149309523Y-92261904D01*
X149261904Y-92357142D01*
X149214285Y-92404761D01*
X149119047Y-92452380D01*
X148738095Y-92452380D01*
X148738095Y-91452380D01*
X149071428Y-91452380D01*
X149166666Y-91500000D01*
X149214285Y-91547619D01*
X149261904Y-91642857D01*
X149261904Y-91738095D01*
X149214285Y-91833333D01*
X149166666Y-91880952D01*
X149071428Y-91928571D01*
X148738095Y-91928571D01*
X130738095Y-92452380D02*
X130738095Y-91452380D01*
X131071428Y-92166666D01*
X131404761Y-91452380D01*
X131404761Y-92452380D01*
X131880952Y-92452380D02*
X131880952Y-91785714D01*
X131880952Y-91452380D02*
X131833333Y-91500000D01*
X131880952Y-91547619D01*
X131928571Y-91500000D01*
X131880952Y-91452380D01*
X131880952Y-91547619D01*
X132785714Y-92404761D02*
X132690476Y-92452380D01*
X132500000Y-92452380D01*
X132404761Y-92404761D01*
X132357142Y-92357142D01*
X132309523Y-92261904D01*
X132309523Y-91976190D01*
X132357142Y-91880952D01*
X132404761Y-91833333D01*
X132500000Y-91785714D01*
X132690476Y-91785714D01*
X132785714Y-91833333D01*
X133214285Y-92452380D02*
X133214285Y-91785714D01*
X133214285Y-91976190D02*
X133261904Y-91880952D01*
X133309523Y-91833333D01*
X133404761Y-91785714D01*
X133500000Y-91785714D01*
X133976190Y-92452380D02*
X133880952Y-92404761D01*
X133833333Y-92357142D01*
X133785714Y-92261904D01*
X133785714Y-91976190D01*
X133833333Y-91880952D01*
X133880952Y-91833333D01*
X133976190Y-91785714D01*
X134119047Y-91785714D01*
X134214285Y-91833333D01*
X134261904Y-91880952D01*
X134309523Y-91976190D01*
X134309523Y-92261904D01*
X134261904Y-92357142D01*
X134214285Y-92404761D01*
X134119047Y-92452380D01*
X133976190Y-92452380D01*
X141613047Y-97988380D02*
X141613047Y-96988380D01*
X141851142Y-96988380D01*
X141994000Y-97036000D01*
X142089238Y-97131238D01*
X142136857Y-97226476D01*
X142184476Y-97416952D01*
X142184476Y-97559809D01*
X142136857Y-97750285D01*
X142089238Y-97845523D01*
X141994000Y-97940761D01*
X141851142Y-97988380D01*
X141613047Y-97988380D01*
X142613047Y-97607428D02*
X143374952Y-97607428D01*
X139119047Y-97988380D02*
X139119047Y-96988380D01*
X139357142Y-96988380D01*
X139500000Y-97036000D01*
X139595238Y-97131238D01*
X139642857Y-97226476D01*
X139690476Y-97416952D01*
X139690476Y-97559809D01*
X139642857Y-97750285D01*
X139595238Y-97845523D01*
X139500000Y-97940761D01*
X139357142Y-97988380D01*
X139119047Y-97988380D01*
X140119047Y-97607428D02*
X140880952Y-97607428D01*
X140500000Y-97988380D02*
X140500000Y-97226476D01*
X137000000Y-97988380D02*
X137000000Y-96988380D01*
X137476190Y-97988380D02*
X137476190Y-96988380D01*
X137714285Y-96988380D01*
X137857142Y-97036000D01*
X137952380Y-97131238D01*
X138000000Y-97226476D01*
X138047619Y-97416952D01*
X138047619Y-97559809D01*
X138000000Y-97750285D01*
X137952380Y-97845523D01*
X137857142Y-97940761D01*
X137714285Y-97988380D01*
X137476190Y-97988380D01*
X134238095Y-97036000D02*
X134142857Y-96988380D01*
X134000000Y-96988380D01*
X133857142Y-97036000D01*
X133761904Y-97131238D01*
X133714285Y-97226476D01*
X133666666Y-97416952D01*
X133666666Y-97559809D01*
X133714285Y-97750285D01*
X133761904Y-97845523D01*
X133857142Y-97940761D01*
X134000000Y-97988380D01*
X134095238Y-97988380D01*
X134238095Y-97940761D01*
X134285714Y-97893142D01*
X134285714Y-97559809D01*
X134095238Y-97559809D01*
X134714285Y-97988380D02*
X134714285Y-96988380D01*
X135285714Y-97988380D01*
X135285714Y-96988380D01*
X135761904Y-97988380D02*
X135761904Y-96988380D01*
X136000000Y-96988380D01*
X136142857Y-97036000D01*
X136238095Y-97131238D01*
X136285714Y-97226476D01*
X136333333Y-97416952D01*
X136333333Y-97559809D01*
X136285714Y-97750285D01*
X136238095Y-97845523D01*
X136142857Y-97940761D01*
X136000000Y-97988380D01*
X135761904Y-97988380D01*
X144809523Y-96988380D02*
X144333333Y-96988380D01*
X144285714Y-97464571D01*
X144333333Y-97416952D01*
X144428571Y-97369333D01*
X144666666Y-97369333D01*
X144761904Y-97416952D01*
X144809523Y-97464571D01*
X144857142Y-97559809D01*
X144857142Y-97797904D01*
X144809523Y-97893142D01*
X144761904Y-97940761D01*
X144666666Y-97988380D01*
X144428571Y-97988380D01*
X144333333Y-97940761D01*
X144285714Y-97893142D01*
X145142857Y-96988380D02*
X145476190Y-97988380D01*
X145809523Y-96988380D01*
D11*
%TO.C,J2*%
X146410000Y-100830000D02*
X146410000Y-98170000D01*
X136190000Y-100830000D02*
X146410000Y-100830000D01*
X136190000Y-98170000D02*
X146410000Y-98170000D01*
X136190000Y-100830000D02*
X136190000Y-98170000D01*
X134920000Y-100830000D02*
X133590000Y-100830000D01*
X133590000Y-100830000D02*
X133590000Y-99500000D01*
D10*
%TO.C,J1*%
X144150000Y-94800000D02*
X144150000Y-93400000D01*
X144150000Y-91000000D02*
X144150000Y-90850000D01*
X144150000Y-90850000D02*
X143850000Y-90850000D01*
X143850000Y-90850000D02*
X143850000Y-90400000D01*
X136150000Y-90400000D02*
X136150000Y-90850000D01*
X136150000Y-90850000D02*
X135850000Y-90850000D01*
X135850000Y-90850000D02*
X135850000Y-91000000D01*
X135850000Y-93400000D02*
X135850000Y-94800000D01*
X141075000Y-96975000D02*
X141800000Y-96975000D01*
X141800000Y-96975000D02*
X141800000Y-96550000D01*
X141800000Y-96550000D02*
X142800000Y-96550000D01*
X138200000Y-96550000D02*
X137200000Y-96550000D01*
%TD*%
M02*
