%TF.GenerationSoftware,KiCad,Pcbnew,5.1.10-88a1d61d58~88~ubuntu18.04.1*%
%TF.CreationDate,2021-08-17T20:33:50+02:00*%
%TF.ProjectId,USB,5553422e-6b69-4636-9164-5f7063625858,rev?*%
%TF.SameCoordinates,Original*%
%TF.FileFunction,Copper,L1,Top*%
%TF.FilePolarity,Positive*%
%FSLAX46Y46*%
G04 Gerber Fmt 4.6, Leading zero omitted, Abs format (unit mm)*
G04 Created by KiCad (PCBNEW 5.1.10-88a1d61d58~88~ubuntu18.04.1) date 2021-08-17 20:33:50*
%MOMM*%
%LPD*%
G01*
G04 APERTURE LIST*
%TA.AperFunction,ComponentPad*%
%ADD10C,4.400000*%
%TD*%
%TA.AperFunction,ComponentPad*%
%ADD11O,1.700000X1.700000*%
%TD*%
%TA.AperFunction,ComponentPad*%
%ADD12R,1.700000X1.700000*%
%TD*%
%TA.AperFunction,ComponentPad*%
%ADD13O,1.150000X1.800000*%
%TD*%
%TA.AperFunction,ComponentPad*%
%ADD14O,1.450000X2.000000*%
%TD*%
%TA.AperFunction,SMDPad,CuDef*%
%ADD15R,0.450000X1.300000*%
%TD*%
%TA.AperFunction,Conductor*%
%ADD16C,0.250000*%
%TD*%
%TA.AperFunction,Conductor*%
%ADD17C,0.254000*%
%TD*%
%TA.AperFunction,Conductor*%
%ADD18C,0.100000*%
%TD*%
G04 APERTURE END LIST*
D10*
%TO.P,H2,1*%
%TO.N,/Shield*%
X147500000Y-95885000D03*
%TD*%
%TO.P,H1,1*%
%TO.N,/Shield*%
X132500000Y-95885000D03*
%TD*%
D11*
%TO.P,J2,5*%
%TO.N,/5V*%
X145080000Y-99500000D03*
%TO.P,J2,4*%
%TO.N,/D-*%
X142540000Y-99500000D03*
%TO.P,J2,3*%
%TO.N,/D+*%
X140000000Y-99500000D03*
%TO.P,J2,2*%
%TO.N,/ID*%
X137460000Y-99500000D03*
D12*
%TO.P,J2,1*%
%TO.N,/GND*%
X134920000Y-99500000D03*
%TD*%
D13*
%TO.P,J1,6*%
%TO.N,/Shield*%
X136125000Y-92200000D03*
X143875000Y-92200000D03*
D14*
X136275000Y-96000000D03*
X143725000Y-96000000D03*
D15*
%TO.P,J1,5*%
%TO.N,/GND*%
X138700000Y-96050000D03*
%TO.P,J1,4*%
%TO.N,/ID*%
X139350000Y-96050000D03*
%TO.P,J1,3*%
%TO.N,/D+*%
X140000000Y-96050000D03*
%TO.P,J1,2*%
%TO.N,/D-*%
X140650000Y-96050000D03*
%TO.P,J1,1*%
%TO.N,/5V*%
X141300000Y-96050000D03*
%TD*%
D16*
%TO.N,/GND*%
X134920000Y-100000000D02*
X134950000Y-100000000D01*
X136095001Y-98324999D02*
X134920000Y-99500000D01*
X138700000Y-95900000D02*
X138700000Y-97520000D01*
X137895001Y-98324999D02*
X136095001Y-98324999D01*
X138700000Y-97520000D02*
X137895001Y-98324999D01*
%TO.N,/ID*%
X139350000Y-97610000D02*
X137460000Y-99500000D01*
X139350000Y-96050000D02*
X139350000Y-97610000D01*
%TO.N,/D+*%
X140000000Y-96050000D02*
X140000000Y-99500000D01*
%TO.N,/D-*%
X140650000Y-97610000D02*
X142540000Y-99500000D01*
X140650000Y-96050000D02*
X140650000Y-97610000D01*
%TO.N,/5V*%
X143904999Y-98324999D02*
X145080000Y-99500000D01*
X142139999Y-98324999D02*
X143904999Y-98324999D01*
X141300000Y-95900000D02*
X141300000Y-97485000D01*
X141300000Y-97485000D02*
X142139999Y-98324999D01*
%TD*%
D17*
%TO.N,/Shield*%
X134963026Y-91514381D02*
X134915000Y-91748000D01*
X134915000Y-92073000D01*
X135998000Y-92073000D01*
X135998000Y-92053000D01*
X136252000Y-92053000D01*
X136252000Y-92073000D01*
X137335000Y-92073000D01*
X137335000Y-91748000D01*
X137286974Y-91514381D01*
X137241266Y-91406000D01*
X142758734Y-91406000D01*
X142713026Y-91514381D01*
X142665000Y-91748000D01*
X142665000Y-92073000D01*
X143748000Y-92073000D01*
X143748000Y-92053000D01*
X144002000Y-92053000D01*
X144002000Y-92073000D01*
X145085000Y-92073000D01*
X145085000Y-91748000D01*
X145036974Y-91514381D01*
X144991266Y-91406000D01*
X149594000Y-91406000D01*
X149594000Y-94139465D01*
X149489775Y-94074830D01*
X147679605Y-95885000D01*
X149489775Y-97695170D01*
X149594001Y-97630535D01*
X149594001Y-100594000D01*
X145655608Y-100594000D01*
X145663097Y-100590898D01*
X145864717Y-100456180D01*
X146036180Y-100284717D01*
X146170898Y-100083097D01*
X146263693Y-99859069D01*
X146311000Y-99621243D01*
X146311000Y-99378757D01*
X146263693Y-99140931D01*
X146170898Y-98916903D01*
X146036180Y-98715283D01*
X145864717Y-98543820D01*
X145663097Y-98409102D01*
X145439069Y-98316307D01*
X145201243Y-98269000D01*
X144958757Y-98269000D01*
X144720931Y-98316307D01*
X144643833Y-98348242D01*
X144280375Y-97984784D01*
X144264526Y-97965472D01*
X144187478Y-97902240D01*
X144136095Y-97874775D01*
X145689830Y-97874775D01*
X145929976Y-98262018D01*
X146423877Y-98522641D01*
X146959133Y-98681901D01*
X147515174Y-98733678D01*
X148070632Y-98675981D01*
X148604161Y-98511028D01*
X149070024Y-98262018D01*
X149310170Y-97874775D01*
X147500000Y-96064605D01*
X145689830Y-97874775D01*
X144136095Y-97874775D01*
X144099574Y-97855254D01*
X144004192Y-97826321D01*
X143929853Y-97818999D01*
X143929845Y-97818999D01*
X143904999Y-97816552D01*
X143880153Y-97818999D01*
X142349591Y-97818999D01*
X141806000Y-97275409D01*
X141806000Y-96958174D01*
X141843322Y-96912696D01*
X141878701Y-96846508D01*
X141900487Y-96774689D01*
X141907843Y-96700000D01*
X141907843Y-96127000D01*
X142365000Y-96127000D01*
X142365000Y-96402000D01*
X142415908Y-96664883D01*
X142517124Y-96912783D01*
X142664758Y-97136173D01*
X142853137Y-97326469D01*
X143075021Y-97476357D01*
X143321883Y-97580078D01*
X143387742Y-97592519D01*
X143598000Y-97469518D01*
X143598000Y-96127000D01*
X142365000Y-96127000D01*
X141907843Y-96127000D01*
X141907843Y-95462344D01*
X142002141Y-95556642D01*
X142130058Y-95642113D01*
X142272191Y-95700987D01*
X142365000Y-95719448D01*
X142365000Y-95873000D01*
X143598000Y-95873000D01*
X143598000Y-94530482D01*
X143852000Y-94530482D01*
X143852000Y-95873000D01*
X143872000Y-95873000D01*
X143872000Y-96127000D01*
X143852000Y-96127000D01*
X143852000Y-97469518D01*
X144062258Y-97592519D01*
X144128117Y-97580078D01*
X144374979Y-97476357D01*
X144596863Y-97326469D01*
X144785242Y-97136173D01*
X144877740Y-96996211D01*
X145122982Y-97455024D01*
X145510225Y-97695170D01*
X147320395Y-95885000D01*
X145510225Y-94074830D01*
X145122982Y-94314976D01*
X144862359Y-94808877D01*
X144827144Y-94927231D01*
X144785242Y-94863827D01*
X144596863Y-94673531D01*
X144374979Y-94523643D01*
X144128117Y-94419922D01*
X144062258Y-94407481D01*
X143852000Y-94530482D01*
X143598000Y-94530482D01*
X143387742Y-94407481D01*
X143321883Y-94419922D01*
X143137014Y-94497596D01*
X143106642Y-94452141D01*
X142997859Y-94343358D01*
X142869942Y-94257887D01*
X142727809Y-94199013D01*
X142576922Y-94169000D01*
X142423078Y-94169000D01*
X142272191Y-94199013D01*
X142130058Y-94257887D01*
X142002141Y-94343358D01*
X141893358Y-94452141D01*
X141807887Y-94580058D01*
X141749013Y-94722191D01*
X141719000Y-94873078D01*
X141719000Y-95026922D01*
X141728963Y-95077010D01*
X141671508Y-95046299D01*
X141599689Y-95024513D01*
X141525000Y-95017157D01*
X141075000Y-95017157D01*
X141000311Y-95024513D01*
X140975000Y-95032191D01*
X140949689Y-95024513D01*
X140875000Y-95017157D01*
X140425000Y-95017157D01*
X140350311Y-95024513D01*
X140325000Y-95032191D01*
X140299689Y-95024513D01*
X140225000Y-95017157D01*
X139775000Y-95017157D01*
X139700311Y-95024513D01*
X139675000Y-95032191D01*
X139649689Y-95024513D01*
X139575000Y-95017157D01*
X139125000Y-95017157D01*
X139050311Y-95024513D01*
X139025000Y-95032191D01*
X138999689Y-95024513D01*
X138925000Y-95017157D01*
X138475000Y-95017157D01*
X138400311Y-95024513D01*
X138328492Y-95046299D01*
X138271037Y-95077010D01*
X138281000Y-95026922D01*
X138281000Y-94873078D01*
X138250987Y-94722191D01*
X138192113Y-94580058D01*
X138106642Y-94452141D01*
X137997859Y-94343358D01*
X137869942Y-94257887D01*
X137727809Y-94199013D01*
X137576922Y-94169000D01*
X137423078Y-94169000D01*
X137272191Y-94199013D01*
X137130058Y-94257887D01*
X137002141Y-94343358D01*
X136893358Y-94452141D01*
X136862986Y-94497596D01*
X136678117Y-94419922D01*
X136612258Y-94407481D01*
X136402000Y-94530482D01*
X136402000Y-95873000D01*
X137635000Y-95873000D01*
X137635000Y-95719448D01*
X137727809Y-95700987D01*
X137869942Y-95642113D01*
X137997859Y-95556642D01*
X138092157Y-95462344D01*
X138092157Y-96700000D01*
X138099513Y-96774689D01*
X138121299Y-96846508D01*
X138156678Y-96912696D01*
X138194001Y-96958174D01*
X138194001Y-97310407D01*
X137685410Y-97818999D01*
X136119846Y-97818999D01*
X136095000Y-97816552D01*
X136070154Y-97818999D01*
X136070147Y-97818999D01*
X136006976Y-97825221D01*
X135995807Y-97826321D01*
X135973608Y-97833055D01*
X135900426Y-97855254D01*
X135812522Y-97902240D01*
X135735474Y-97965472D01*
X135719631Y-97984777D01*
X135437251Y-98267157D01*
X134070000Y-98267157D01*
X134058243Y-98268315D01*
X134070024Y-98262018D01*
X134310170Y-97874775D01*
X132500000Y-96064605D01*
X130689830Y-97874775D01*
X130929976Y-98262018D01*
X131423877Y-98522641D01*
X131959133Y-98681901D01*
X132515174Y-98733678D01*
X133070632Y-98675981D01*
X133604161Y-98511028D01*
X133759172Y-98428173D01*
X133751678Y-98437304D01*
X133716299Y-98503492D01*
X133694513Y-98575311D01*
X133687157Y-98650000D01*
X133687157Y-100350000D01*
X133694513Y-100424689D01*
X133716299Y-100496508D01*
X133751678Y-100562696D01*
X133777368Y-100594000D01*
X130406000Y-100594000D01*
X130406000Y-97630536D01*
X130510225Y-97695170D01*
X132320395Y-95885000D01*
X132679605Y-95885000D01*
X134489775Y-97695170D01*
X134877018Y-97455024D01*
X135120517Y-96993574D01*
X135214758Y-97136173D01*
X135403137Y-97326469D01*
X135625021Y-97476357D01*
X135871883Y-97580078D01*
X135937742Y-97592519D01*
X136148000Y-97469518D01*
X136148000Y-96127000D01*
X136402000Y-96127000D01*
X136402000Y-97469518D01*
X136612258Y-97592519D01*
X136678117Y-97580078D01*
X136924979Y-97476357D01*
X137146863Y-97326469D01*
X137335242Y-97136173D01*
X137482876Y-96912783D01*
X137584092Y-96664883D01*
X137635000Y-96402000D01*
X137635000Y-96127000D01*
X136402000Y-96127000D01*
X136148000Y-96127000D01*
X136128000Y-96127000D01*
X136128000Y-95873000D01*
X136148000Y-95873000D01*
X136148000Y-94530482D01*
X135937742Y-94407481D01*
X135871883Y-94419922D01*
X135625021Y-94523643D01*
X135403137Y-94673531D01*
X135214758Y-94863827D01*
X135171788Y-94928846D01*
X135126028Y-94780839D01*
X134877018Y-94314976D01*
X134489775Y-94074830D01*
X132679605Y-95885000D01*
X132320395Y-95885000D01*
X130510225Y-94074830D01*
X130406000Y-94139464D01*
X130406000Y-93895225D01*
X130689830Y-93895225D01*
X132500000Y-95705395D01*
X134310170Y-93895225D01*
X145689830Y-93895225D01*
X147500000Y-95705395D01*
X149310170Y-93895225D01*
X149070024Y-93507982D01*
X148576123Y-93247359D01*
X148040867Y-93088099D01*
X147484826Y-93036322D01*
X146929368Y-93094019D01*
X146395839Y-93258972D01*
X145929976Y-93507982D01*
X145689830Y-93895225D01*
X134310170Y-93895225D01*
X134070024Y-93507982D01*
X133576123Y-93247359D01*
X133040867Y-93088099D01*
X132484826Y-93036322D01*
X131929368Y-93094019D01*
X131395839Y-93258972D01*
X130929976Y-93507982D01*
X130689830Y-93895225D01*
X130406000Y-93895225D01*
X130406000Y-92327000D01*
X134915000Y-92327000D01*
X134915000Y-92652000D01*
X134963026Y-92885619D01*
X135055706Y-93105380D01*
X135189479Y-93302837D01*
X135359203Y-93470402D01*
X135558356Y-93601636D01*
X135779285Y-93691496D01*
X135811323Y-93693635D01*
X135998000Y-93568550D01*
X135998000Y-92327000D01*
X136252000Y-92327000D01*
X136252000Y-93568550D01*
X136438677Y-93693635D01*
X136470715Y-93691496D01*
X136691644Y-93601636D01*
X136890797Y-93470402D01*
X137060521Y-93302837D01*
X137194294Y-93105380D01*
X137286974Y-92885619D01*
X137335000Y-92652000D01*
X137335000Y-92327000D01*
X142665000Y-92327000D01*
X142665000Y-92652000D01*
X142713026Y-92885619D01*
X142805706Y-93105380D01*
X142939479Y-93302837D01*
X143109203Y-93470402D01*
X143308356Y-93601636D01*
X143529285Y-93691496D01*
X143561323Y-93693635D01*
X143748000Y-93568550D01*
X143748000Y-92327000D01*
X144002000Y-92327000D01*
X144002000Y-93568550D01*
X144188677Y-93693635D01*
X144220715Y-93691496D01*
X144441644Y-93601636D01*
X144640797Y-93470402D01*
X144810521Y-93302837D01*
X144944294Y-93105380D01*
X145036974Y-92885619D01*
X145085000Y-92652000D01*
X145085000Y-92327000D01*
X144002000Y-92327000D01*
X143748000Y-92327000D01*
X142665000Y-92327000D01*
X137335000Y-92327000D01*
X136252000Y-92327000D01*
X135998000Y-92327000D01*
X134915000Y-92327000D01*
X130406000Y-92327000D01*
X130406000Y-91406000D01*
X135008734Y-91406000D01*
X134963026Y-91514381D01*
%TA.AperFunction,Conductor*%
D18*
G36*
X134963026Y-91514381D02*
G01*
X134915000Y-91748000D01*
X134915000Y-92073000D01*
X135998000Y-92073000D01*
X135998000Y-92053000D01*
X136252000Y-92053000D01*
X136252000Y-92073000D01*
X137335000Y-92073000D01*
X137335000Y-91748000D01*
X137286974Y-91514381D01*
X137241266Y-91406000D01*
X142758734Y-91406000D01*
X142713026Y-91514381D01*
X142665000Y-91748000D01*
X142665000Y-92073000D01*
X143748000Y-92073000D01*
X143748000Y-92053000D01*
X144002000Y-92053000D01*
X144002000Y-92073000D01*
X145085000Y-92073000D01*
X145085000Y-91748000D01*
X145036974Y-91514381D01*
X144991266Y-91406000D01*
X149594000Y-91406000D01*
X149594000Y-94139465D01*
X149489775Y-94074830D01*
X147679605Y-95885000D01*
X149489775Y-97695170D01*
X149594001Y-97630535D01*
X149594001Y-100594000D01*
X145655608Y-100594000D01*
X145663097Y-100590898D01*
X145864717Y-100456180D01*
X146036180Y-100284717D01*
X146170898Y-100083097D01*
X146263693Y-99859069D01*
X146311000Y-99621243D01*
X146311000Y-99378757D01*
X146263693Y-99140931D01*
X146170898Y-98916903D01*
X146036180Y-98715283D01*
X145864717Y-98543820D01*
X145663097Y-98409102D01*
X145439069Y-98316307D01*
X145201243Y-98269000D01*
X144958757Y-98269000D01*
X144720931Y-98316307D01*
X144643833Y-98348242D01*
X144280375Y-97984784D01*
X144264526Y-97965472D01*
X144187478Y-97902240D01*
X144136095Y-97874775D01*
X145689830Y-97874775D01*
X145929976Y-98262018D01*
X146423877Y-98522641D01*
X146959133Y-98681901D01*
X147515174Y-98733678D01*
X148070632Y-98675981D01*
X148604161Y-98511028D01*
X149070024Y-98262018D01*
X149310170Y-97874775D01*
X147500000Y-96064605D01*
X145689830Y-97874775D01*
X144136095Y-97874775D01*
X144099574Y-97855254D01*
X144004192Y-97826321D01*
X143929853Y-97818999D01*
X143929845Y-97818999D01*
X143904999Y-97816552D01*
X143880153Y-97818999D01*
X142349591Y-97818999D01*
X141806000Y-97275409D01*
X141806000Y-96958174D01*
X141843322Y-96912696D01*
X141878701Y-96846508D01*
X141900487Y-96774689D01*
X141907843Y-96700000D01*
X141907843Y-96127000D01*
X142365000Y-96127000D01*
X142365000Y-96402000D01*
X142415908Y-96664883D01*
X142517124Y-96912783D01*
X142664758Y-97136173D01*
X142853137Y-97326469D01*
X143075021Y-97476357D01*
X143321883Y-97580078D01*
X143387742Y-97592519D01*
X143598000Y-97469518D01*
X143598000Y-96127000D01*
X142365000Y-96127000D01*
X141907843Y-96127000D01*
X141907843Y-95462344D01*
X142002141Y-95556642D01*
X142130058Y-95642113D01*
X142272191Y-95700987D01*
X142365000Y-95719448D01*
X142365000Y-95873000D01*
X143598000Y-95873000D01*
X143598000Y-94530482D01*
X143852000Y-94530482D01*
X143852000Y-95873000D01*
X143872000Y-95873000D01*
X143872000Y-96127000D01*
X143852000Y-96127000D01*
X143852000Y-97469518D01*
X144062258Y-97592519D01*
X144128117Y-97580078D01*
X144374979Y-97476357D01*
X144596863Y-97326469D01*
X144785242Y-97136173D01*
X144877740Y-96996211D01*
X145122982Y-97455024D01*
X145510225Y-97695170D01*
X147320395Y-95885000D01*
X145510225Y-94074830D01*
X145122982Y-94314976D01*
X144862359Y-94808877D01*
X144827144Y-94927231D01*
X144785242Y-94863827D01*
X144596863Y-94673531D01*
X144374979Y-94523643D01*
X144128117Y-94419922D01*
X144062258Y-94407481D01*
X143852000Y-94530482D01*
X143598000Y-94530482D01*
X143387742Y-94407481D01*
X143321883Y-94419922D01*
X143137014Y-94497596D01*
X143106642Y-94452141D01*
X142997859Y-94343358D01*
X142869942Y-94257887D01*
X142727809Y-94199013D01*
X142576922Y-94169000D01*
X142423078Y-94169000D01*
X142272191Y-94199013D01*
X142130058Y-94257887D01*
X142002141Y-94343358D01*
X141893358Y-94452141D01*
X141807887Y-94580058D01*
X141749013Y-94722191D01*
X141719000Y-94873078D01*
X141719000Y-95026922D01*
X141728963Y-95077010D01*
X141671508Y-95046299D01*
X141599689Y-95024513D01*
X141525000Y-95017157D01*
X141075000Y-95017157D01*
X141000311Y-95024513D01*
X140975000Y-95032191D01*
X140949689Y-95024513D01*
X140875000Y-95017157D01*
X140425000Y-95017157D01*
X140350311Y-95024513D01*
X140325000Y-95032191D01*
X140299689Y-95024513D01*
X140225000Y-95017157D01*
X139775000Y-95017157D01*
X139700311Y-95024513D01*
X139675000Y-95032191D01*
X139649689Y-95024513D01*
X139575000Y-95017157D01*
X139125000Y-95017157D01*
X139050311Y-95024513D01*
X139025000Y-95032191D01*
X138999689Y-95024513D01*
X138925000Y-95017157D01*
X138475000Y-95017157D01*
X138400311Y-95024513D01*
X138328492Y-95046299D01*
X138271037Y-95077010D01*
X138281000Y-95026922D01*
X138281000Y-94873078D01*
X138250987Y-94722191D01*
X138192113Y-94580058D01*
X138106642Y-94452141D01*
X137997859Y-94343358D01*
X137869942Y-94257887D01*
X137727809Y-94199013D01*
X137576922Y-94169000D01*
X137423078Y-94169000D01*
X137272191Y-94199013D01*
X137130058Y-94257887D01*
X137002141Y-94343358D01*
X136893358Y-94452141D01*
X136862986Y-94497596D01*
X136678117Y-94419922D01*
X136612258Y-94407481D01*
X136402000Y-94530482D01*
X136402000Y-95873000D01*
X137635000Y-95873000D01*
X137635000Y-95719448D01*
X137727809Y-95700987D01*
X137869942Y-95642113D01*
X137997859Y-95556642D01*
X138092157Y-95462344D01*
X138092157Y-96700000D01*
X138099513Y-96774689D01*
X138121299Y-96846508D01*
X138156678Y-96912696D01*
X138194001Y-96958174D01*
X138194001Y-97310407D01*
X137685410Y-97818999D01*
X136119846Y-97818999D01*
X136095000Y-97816552D01*
X136070154Y-97818999D01*
X136070147Y-97818999D01*
X136006976Y-97825221D01*
X135995807Y-97826321D01*
X135973608Y-97833055D01*
X135900426Y-97855254D01*
X135812522Y-97902240D01*
X135735474Y-97965472D01*
X135719631Y-97984777D01*
X135437251Y-98267157D01*
X134070000Y-98267157D01*
X134058243Y-98268315D01*
X134070024Y-98262018D01*
X134310170Y-97874775D01*
X132500000Y-96064605D01*
X130689830Y-97874775D01*
X130929976Y-98262018D01*
X131423877Y-98522641D01*
X131959133Y-98681901D01*
X132515174Y-98733678D01*
X133070632Y-98675981D01*
X133604161Y-98511028D01*
X133759172Y-98428173D01*
X133751678Y-98437304D01*
X133716299Y-98503492D01*
X133694513Y-98575311D01*
X133687157Y-98650000D01*
X133687157Y-100350000D01*
X133694513Y-100424689D01*
X133716299Y-100496508D01*
X133751678Y-100562696D01*
X133777368Y-100594000D01*
X130406000Y-100594000D01*
X130406000Y-97630536D01*
X130510225Y-97695170D01*
X132320395Y-95885000D01*
X132679605Y-95885000D01*
X134489775Y-97695170D01*
X134877018Y-97455024D01*
X135120517Y-96993574D01*
X135214758Y-97136173D01*
X135403137Y-97326469D01*
X135625021Y-97476357D01*
X135871883Y-97580078D01*
X135937742Y-97592519D01*
X136148000Y-97469518D01*
X136148000Y-96127000D01*
X136402000Y-96127000D01*
X136402000Y-97469518D01*
X136612258Y-97592519D01*
X136678117Y-97580078D01*
X136924979Y-97476357D01*
X137146863Y-97326469D01*
X137335242Y-97136173D01*
X137482876Y-96912783D01*
X137584092Y-96664883D01*
X137635000Y-96402000D01*
X137635000Y-96127000D01*
X136402000Y-96127000D01*
X136148000Y-96127000D01*
X136128000Y-96127000D01*
X136128000Y-95873000D01*
X136148000Y-95873000D01*
X136148000Y-94530482D01*
X135937742Y-94407481D01*
X135871883Y-94419922D01*
X135625021Y-94523643D01*
X135403137Y-94673531D01*
X135214758Y-94863827D01*
X135171788Y-94928846D01*
X135126028Y-94780839D01*
X134877018Y-94314976D01*
X134489775Y-94074830D01*
X132679605Y-95885000D01*
X132320395Y-95885000D01*
X130510225Y-94074830D01*
X130406000Y-94139464D01*
X130406000Y-93895225D01*
X130689830Y-93895225D01*
X132500000Y-95705395D01*
X134310170Y-93895225D01*
X145689830Y-93895225D01*
X147500000Y-95705395D01*
X149310170Y-93895225D01*
X149070024Y-93507982D01*
X148576123Y-93247359D01*
X148040867Y-93088099D01*
X147484826Y-93036322D01*
X146929368Y-93094019D01*
X146395839Y-93258972D01*
X145929976Y-93507982D01*
X145689830Y-93895225D01*
X134310170Y-93895225D01*
X134070024Y-93507982D01*
X133576123Y-93247359D01*
X133040867Y-93088099D01*
X132484826Y-93036322D01*
X131929368Y-93094019D01*
X131395839Y-93258972D01*
X130929976Y-93507982D01*
X130689830Y-93895225D01*
X130406000Y-93895225D01*
X130406000Y-92327000D01*
X134915000Y-92327000D01*
X134915000Y-92652000D01*
X134963026Y-92885619D01*
X135055706Y-93105380D01*
X135189479Y-93302837D01*
X135359203Y-93470402D01*
X135558356Y-93601636D01*
X135779285Y-93691496D01*
X135811323Y-93693635D01*
X135998000Y-93568550D01*
X135998000Y-92327000D01*
X136252000Y-92327000D01*
X136252000Y-93568550D01*
X136438677Y-93693635D01*
X136470715Y-93691496D01*
X136691644Y-93601636D01*
X136890797Y-93470402D01*
X137060521Y-93302837D01*
X137194294Y-93105380D01*
X137286974Y-92885619D01*
X137335000Y-92652000D01*
X137335000Y-92327000D01*
X142665000Y-92327000D01*
X142665000Y-92652000D01*
X142713026Y-92885619D01*
X142805706Y-93105380D01*
X142939479Y-93302837D01*
X143109203Y-93470402D01*
X143308356Y-93601636D01*
X143529285Y-93691496D01*
X143561323Y-93693635D01*
X143748000Y-93568550D01*
X143748000Y-92327000D01*
X144002000Y-92327000D01*
X144002000Y-93568550D01*
X144188677Y-93693635D01*
X144220715Y-93691496D01*
X144441644Y-93601636D01*
X144640797Y-93470402D01*
X144810521Y-93302837D01*
X144944294Y-93105380D01*
X145036974Y-92885619D01*
X145085000Y-92652000D01*
X145085000Y-92327000D01*
X144002000Y-92327000D01*
X143748000Y-92327000D01*
X142665000Y-92327000D01*
X137335000Y-92327000D01*
X136252000Y-92327000D01*
X135998000Y-92327000D01*
X134915000Y-92327000D01*
X130406000Y-92327000D01*
X130406000Y-91406000D01*
X135008734Y-91406000D01*
X134963026Y-91514381D01*
G37*
%TD.AperFunction*%
%TD*%
M02*
