M48
; DRILL file {KiCad 5.1.9+dfsg1-1} date Mon Nov  8 10:29:14 2021
; FORMAT={-:-/ absolute / inch / decimal}
; #@! TF.CreationDate,2021-11-08T10:29:14+01:00
; #@! TF.GenerationSoftware,Kicad,Pcbnew,5.1.9+dfsg1-1
; #@! TF.FileFunction,Plated,1,2,PTH
FMAT,2
INCH
T1C0.0157
T2C0.0394
%
G90
G05
T1
X4.0551Y-3.0512
X4.1535Y-2.7165
X4.1535Y-3.4055
X4.26Y-3.04
X4.29Y-3.6
X4.3898Y-3.1496
X4.4291Y-3.2283
X4.5773Y-3.2771
X4.58Y-2.74
X4.5866Y-2.9724
X4.66Y-3.6
X4.75Y-3.03
X4.78Y-2.9
X4.84Y-2.41
X4.87Y-3.18
X4.97Y-3.34
X4.99Y-2.41
T2
X4.0551Y-2.6559
X4.0551Y-2.7559
X4.0551Y-3.3449
X4.0551Y-3.4449
X4.2291Y-2.4213
X4.2291Y-2.5213
X4.3244Y-3.3661
X4.3291Y-2.4213
X4.3291Y-2.5213
X4.4244Y-3.3661
X4.4291Y-2.4213
X4.4291Y-2.5213
X4.5244Y-3.3661
X4.5291Y-2.4213
X4.5291Y-2.5213
X4.6244Y-3.3661
X4.6291Y-2.4213
X4.6291Y-2.5213
X4.7244Y-3.3661
X4.7291Y-2.4213
X4.7291Y-2.5213
X4.8819Y-2.6378
X4.8819Y-2.8346
X4.9819Y-2.6378
X4.9819Y-2.8346
T0
M30
