%TF.GenerationSoftware,KiCad,Pcbnew,5.1.9+dfsg1-1*%
%TF.CreationDate,2021-11-08T10:09:36+01:00*%
%TF.ProjectId,Controller,436f6e74-726f-46c6-9c65-722e6b696361,rev?*%
%TF.SameCoordinates,Original*%
%TF.FileFunction,Soldermask,Bot*%
%TF.FilePolarity,Negative*%
%FSLAX46Y46*%
G04 Gerber Fmt 4.6, Leading zero omitted, Abs format (unit mm)*
G04 Created by KiCad (PCBNEW 5.1.9+dfsg1-1) date 2021-11-08 10:09:36*
%MOMM*%
%LPD*%
G01*
G04 APERTURE LIST*
%ADD10O,1.700000X1.700000*%
%ADD11R,1.700000X1.700000*%
%ADD12R,1.550000X1.300000*%
%ADD13R,1.200000X0.900000*%
G04 APERTURE END LIST*
D10*
%TO.C,J6*%
X103000000Y-67460000D03*
D11*
X103000000Y-70000000D03*
%TD*%
D10*
%TO.C,J5*%
X103000000Y-84960000D03*
D11*
X103000000Y-87500000D03*
%TD*%
D12*
%TO.C,SW5*%
X110025000Y-87750000D03*
X117975000Y-87750000D03*
X110025000Y-83250000D03*
X117975000Y-83250000D03*
%TD*%
%TO.C,SW4*%
X117975000Y-67250000D03*
X110025000Y-67250000D03*
X117975000Y-71750000D03*
X110025000Y-71750000D03*
%TD*%
%TO.C,SW3*%
X109975000Y-75250000D03*
X102025000Y-75250000D03*
X109975000Y-79750000D03*
X102025000Y-79750000D03*
%TD*%
%TO.C,SW1*%
X125975000Y-75250000D03*
X118025000Y-75250000D03*
X125975000Y-79750000D03*
X118025000Y-79750000D03*
%TD*%
D10*
%TO.C,J4*%
X126540000Y-67000000D03*
D11*
X124000000Y-67000000D03*
%TD*%
D10*
%TO.C,J3*%
X126540000Y-72000000D03*
D11*
X124000000Y-72000000D03*
%TD*%
D10*
%TO.C,J2*%
X120000000Y-85500000D03*
X117460000Y-85500000D03*
X114920000Y-85500000D03*
X112380000Y-85500000D03*
D11*
X109840000Y-85500000D03*
%TD*%
D10*
%TO.C,J1*%
X107420000Y-64040000D03*
X107420000Y-61500000D03*
X109960000Y-64040000D03*
X109960000Y-61500000D03*
X112500000Y-64040000D03*
X112500000Y-61500000D03*
X115040000Y-64040000D03*
X115040000Y-61500000D03*
X117580000Y-64040000D03*
X117580000Y-61500000D03*
X120120000Y-64040000D03*
D11*
X120120000Y-61500000D03*
%TD*%
D13*
%TO.C,D6*%
X105250000Y-71300000D03*
X105250000Y-68000000D03*
%TD*%
%TO.C,D5*%
X123500000Y-87000000D03*
X123500000Y-83700000D03*
%TD*%
%TO.C,D4*%
X107750000Y-71300000D03*
X107750000Y-68000000D03*
%TD*%
%TO.C,D3*%
X106500000Y-87650000D03*
X106500000Y-84350000D03*
%TD*%
%TO.C,D2*%
X126238000Y-87000000D03*
X126238000Y-83700000D03*
%TD*%
%TO.C,D1*%
X121000000Y-71000000D03*
X121000000Y-67700000D03*
%TD*%
M02*
