%TF.GenerationSoftware,KiCad,Pcbnew,6.0.11+dfsg-1*%
%TF.CreationDate,2023-02-19T01:07:10+01:00*%
%TF.ProjectId,Mainboard,4d61696e-626f-4617-9264-2e6b69636164,rev?*%
%TF.SameCoordinates,Original*%
%TF.FileFunction,Soldermask,Top*%
%TF.FilePolarity,Negative*%
%FSLAX46Y46*%
G04 Gerber Fmt 4.6, Leading zero omitted, Abs format (unit mm)*
G04 Created by KiCad (PCBNEW 6.0.11+dfsg-1) date 2023-02-19 01:07:10*
%MOMM*%
%LPD*%
G01*
G04 APERTURE LIST*
G04 Aperture macros list*
%AMRoundRect*
0 Rectangle with rounded corners*
0 $1 Rounding radius*
0 $2 $3 $4 $5 $6 $7 $8 $9 X,Y pos of 4 corners*
0 Add a 4 corners polygon primitive as box body*
4,1,4,$2,$3,$4,$5,$6,$7,$8,$9,$2,$3,0*
0 Add four circle primitives for the rounded corners*
1,1,$1+$1,$2,$3*
1,1,$1+$1,$4,$5*
1,1,$1+$1,$6,$7*
1,1,$1+$1,$8,$9*
0 Add four rect primitives between the rounded corners*
20,1,$1+$1,$2,$3,$4,$5,0*
20,1,$1+$1,$4,$5,$6,$7,0*
20,1,$1+$1,$6,$7,$8,$9,0*
20,1,$1+$1,$8,$9,$2,$3,0*%
G04 Aperture macros list end*
%ADD10R,1.700000X1.700000*%
%ADD11O,1.700000X1.700000*%
%ADD12RoundRect,0.135000X0.135000X0.185000X-0.135000X0.185000X-0.135000X-0.185000X0.135000X-0.185000X0*%
%ADD13RoundRect,0.140000X0.140000X0.170000X-0.140000X0.170000X-0.140000X-0.170000X0.140000X-0.170000X0*%
%ADD14RoundRect,0.140000X-0.140000X-0.170000X0.140000X-0.170000X0.140000X0.170000X-0.140000X0.170000X0*%
%ADD15R,0.550000X1.500000*%
%ADD16R,1.500000X0.550000*%
%ADD17R,1.000000X1.000000*%
%ADD18O,1.000000X1.000000*%
%ADD19RoundRect,0.140000X0.170000X-0.140000X0.170000X0.140000X-0.170000X0.140000X-0.170000X-0.140000X0*%
%ADD20RoundRect,0.135000X-0.185000X0.135000X-0.185000X-0.135000X0.185000X-0.135000X0.185000X0.135000X0*%
%ADD21RoundRect,0.101600X-0.750000X-0.450000X0.750000X-0.450000X0.750000X0.450000X-0.750000X0.450000X0*%
%ADD22RoundRect,0.101600X0.450000X-0.750000X0.450000X0.750000X-0.450000X0.750000X-0.450000X-0.750000X0*%
%ADD23RoundRect,0.101600X-0.450000X-0.450000X0.450000X-0.450000X0.450000X0.450000X-0.450000X0.450000X0*%
%ADD24C,1.061200*%
%ADD25RoundRect,0.135000X-0.135000X-0.185000X0.135000X-0.185000X0.135000X0.185000X-0.135000X0.185000X0*%
%ADD26RoundRect,0.218750X0.256250X-0.218750X0.256250X0.218750X-0.256250X0.218750X-0.256250X-0.218750X0*%
%ADD27R,0.900000X0.800000*%
%ADD28RoundRect,0.135000X0.185000X-0.135000X0.185000X0.135000X-0.185000X0.135000X-0.185000X-0.135000X0*%
%ADD29RoundRect,0.218750X-0.218750X-0.256250X0.218750X-0.256250X0.218750X0.256250X-0.218750X0.256250X0*%
%ADD30RoundRect,0.250000X-0.250000X-0.475000X0.250000X-0.475000X0.250000X0.475000X-0.250000X0.475000X0*%
%ADD31R,0.650000X1.060000*%
%ADD32RoundRect,0.218750X0.218750X0.256250X-0.218750X0.256250X-0.218750X-0.256250X0.218750X-0.256250X0*%
%ADD33R,0.650000X1.220000*%
%ADD34RoundRect,0.225000X0.250000X-0.225000X0.250000X0.225000X-0.250000X0.225000X-0.250000X-0.225000X0*%
%ADD35RoundRect,0.140000X-0.170000X0.140000X-0.170000X-0.140000X0.170000X-0.140000X0.170000X0.140000X0*%
%ADD36RoundRect,0.150000X0.150000X-0.650000X0.150000X0.650000X-0.150000X0.650000X-0.150000X-0.650000X0*%
%ADD37R,3.100000X2.410000*%
%ADD38RoundRect,0.249999X-0.450001X0.262501X-0.450001X-0.262501X0.450001X-0.262501X0.450001X0.262501X0*%
%ADD39RoundRect,0.249999X0.325001X0.650001X-0.325001X0.650001X-0.325001X-0.650001X0.325001X-0.650001X0*%
%ADD40RoundRect,0.250000X0.325000X1.100000X-0.325000X1.100000X-0.325000X-1.100000X0.325000X-1.100000X0*%
G04 APERTURE END LIST*
%TO.C,U1*%
G36*
X130900000Y-52725000D02*
G01*
X130000000Y-52725000D01*
X130000000Y-51825000D01*
X130900000Y-51825000D01*
X130900000Y-52725000D01*
G37*
G36*
X133700000Y-51325000D02*
G01*
X132800000Y-51325000D01*
X132800000Y-50425000D01*
X133700000Y-50425000D01*
X133700000Y-51325000D01*
G37*
G36*
X132300000Y-49925000D02*
G01*
X131400000Y-49925000D01*
X131400000Y-49025000D01*
X132300000Y-49025000D01*
X132300000Y-49925000D01*
G37*
G36*
X133700000Y-49925000D02*
G01*
X132800000Y-49925000D01*
X132800000Y-49025000D01*
X133700000Y-49025000D01*
X133700000Y-49925000D01*
G37*
G36*
X132300000Y-51325000D02*
G01*
X131400000Y-51325000D01*
X131400000Y-50425000D01*
X132300000Y-50425000D01*
X132300000Y-51325000D01*
G37*
G36*
X132300000Y-52725000D02*
G01*
X131400000Y-52725000D01*
X131400000Y-51825000D01*
X132300000Y-51825000D01*
X132300000Y-52725000D01*
G37*
G36*
X133700000Y-52725000D02*
G01*
X132800000Y-52725000D01*
X132800000Y-51825000D01*
X133700000Y-51825000D01*
X133700000Y-52725000D01*
G37*
G36*
X130900000Y-51325000D02*
G01*
X130000000Y-51325000D01*
X130000000Y-50425000D01*
X130900000Y-50425000D01*
X130900000Y-51325000D01*
G37*
G36*
X130900000Y-49925000D02*
G01*
X130000000Y-49925000D01*
X130000000Y-49025000D01*
X130900000Y-49025000D01*
X130900000Y-49925000D01*
G37*
%TD*%
D10*
%TO.C,J4*%
X173990000Y-67310000D03*
D11*
X176530000Y-67310000D03*
X173990000Y-69850000D03*
X176530000Y-69850000D03*
X173990000Y-72390000D03*
X176530000Y-72390000D03*
X173990000Y-74930000D03*
X176530000Y-74930000D03*
X173990000Y-77470000D03*
X176530000Y-77470000D03*
X173990000Y-80010000D03*
X176530000Y-80010000D03*
%TD*%
D12*
%TO.C,R5*%
X170815000Y-46990000D03*
X169795000Y-46990000D03*
%TD*%
%TO.C,R6*%
X170815000Y-67310000D03*
X169795000Y-67310000D03*
%TD*%
D13*
%TO.C,C3*%
X160020000Y-59182000D03*
X159060000Y-59182000D03*
%TD*%
D14*
%TO.C,C5*%
X154940000Y-44290000D03*
X155900000Y-44290000D03*
%TD*%
D15*
%TO.C,U2*%
X161353000Y-46210000D03*
X160553000Y-46210000D03*
X159753000Y-46210000D03*
X158953000Y-46210000D03*
X158153000Y-46210000D03*
X157353000Y-46210000D03*
X156553000Y-46210000D03*
X155753000Y-46210000D03*
X154953000Y-46210000D03*
X154153000Y-46210000D03*
X153353000Y-46210000D03*
D16*
X151653000Y-47910000D03*
X151653000Y-48710000D03*
X151653000Y-49510000D03*
X151653000Y-50310000D03*
X151653000Y-51110000D03*
X151653000Y-51910000D03*
X151653000Y-52710000D03*
X151653000Y-53510000D03*
X151653000Y-54310000D03*
X151653000Y-55110000D03*
X151653000Y-55910000D03*
D15*
X153353000Y-57610000D03*
X154153000Y-57610000D03*
X154953000Y-57610000D03*
X155753000Y-57610000D03*
X156553000Y-57610000D03*
X157353000Y-57610000D03*
X158153000Y-57610000D03*
X158953000Y-57610000D03*
X159753000Y-57610000D03*
X160553000Y-57610000D03*
X161353000Y-57610000D03*
D16*
X163053000Y-55910000D03*
X163053000Y-55110000D03*
X163053000Y-54310000D03*
X163053000Y-53510000D03*
X163053000Y-52710000D03*
X163053000Y-51910000D03*
X163053000Y-51110000D03*
X163053000Y-50310000D03*
X163053000Y-49510000D03*
X163053000Y-48710000D03*
X163053000Y-47910000D03*
%TD*%
D17*
%TO.C,J1*%
X145288000Y-49116000D03*
D18*
X145288000Y-47846000D03*
X145288000Y-46576000D03*
X145288000Y-45306000D03*
X145288000Y-44036000D03*
%TD*%
D19*
%TO.C,C6*%
X165100000Y-53030000D03*
X165100000Y-52070000D03*
%TD*%
D14*
%TO.C,C2*%
X154940000Y-42545000D03*
X155900000Y-42545000D03*
%TD*%
D20*
%TO.C,R4*%
X122461000Y-59686000D03*
X122461000Y-60706000D03*
%TD*%
D19*
%TO.C,C1*%
X122461000Y-43434000D03*
X122461000Y-42474000D03*
%TD*%
D20*
%TO.C,R1*%
X122461000Y-44446000D03*
X122461000Y-45466000D03*
%TD*%
D21*
%TO.C,U1*%
X124600000Y-43180000D03*
X124600000Y-44450000D03*
X124600000Y-45720000D03*
X124600000Y-46990000D03*
X124600000Y-48260000D03*
X124600000Y-49530000D03*
X124600000Y-50800000D03*
X124600000Y-52070000D03*
X124600000Y-53340000D03*
X124600000Y-54610000D03*
X124600000Y-55880000D03*
X124600000Y-57150000D03*
X124600000Y-58420000D03*
X124600000Y-59690000D03*
D22*
X127635000Y-60915000D03*
X128905000Y-60915000D03*
X130175000Y-60915000D03*
X131445000Y-60915000D03*
X132715000Y-60915000D03*
X133985000Y-60915000D03*
X135255000Y-60915000D03*
X136525000Y-60915000D03*
X137795000Y-60915000D03*
X139065000Y-60915000D03*
D21*
X142100000Y-59690000D03*
X142100000Y-58420000D03*
X142100000Y-57150000D03*
X142100000Y-55880000D03*
X142100000Y-54610000D03*
X142100000Y-53340000D03*
X142100000Y-52070000D03*
X142100000Y-50800000D03*
X142100000Y-49530000D03*
X142100000Y-48260000D03*
X142100000Y-46990000D03*
X142100000Y-45720000D03*
X142100000Y-44450000D03*
X142100000Y-43180000D03*
D23*
X130450000Y-49465000D03*
D24*
X132550000Y-49465000D03*
D23*
X131850000Y-50865000D03*
X133250000Y-52265000D03*
X131850000Y-49465000D03*
X133250000Y-49465000D03*
X131850000Y-52265000D03*
X130450000Y-50865000D03*
D24*
X132550000Y-52265000D03*
X131150000Y-52265000D03*
X131150000Y-49465000D03*
D23*
X133250000Y-50865000D03*
X130450000Y-52265000D03*
%TD*%
D25*
%TO.C,R3*%
X138971000Y-62616000D03*
X139991000Y-62616000D03*
%TD*%
D10*
%TO.C,J3*%
X173990000Y-46990000D03*
D11*
X176530000Y-46990000D03*
X173990000Y-49530000D03*
X176530000Y-49530000D03*
X173990000Y-52070000D03*
X176530000Y-52070000D03*
X173990000Y-54610000D03*
X176530000Y-54610000D03*
X173990000Y-57150000D03*
X176530000Y-57150000D03*
X173990000Y-59690000D03*
X176530000Y-59690000D03*
%TD*%
D26*
%TO.C,FB1*%
X167005000Y-53492500D03*
X167005000Y-51917500D03*
%TD*%
D10*
%TO.C,J5*%
X166370000Y-61595000D03*
D11*
X166370000Y-59055000D03*
X168910000Y-61595000D03*
X168910000Y-59055000D03*
%TD*%
D10*
%TO.C,J6*%
X158750000Y-80010000D03*
D11*
X161290000Y-80010000D03*
X163830000Y-80010000D03*
X166370000Y-80010000D03*
%TD*%
D10*
%TO.C,J7*%
X139065000Y-69215000D03*
D11*
X139065000Y-71755000D03*
%TD*%
D27*
%TO.C,Q1*%
X142780000Y-75758000D03*
X142780000Y-77658000D03*
X144780000Y-76708000D03*
%TD*%
D28*
%TO.C,R7*%
X144780000Y-74295000D03*
X144780000Y-73275000D03*
%TD*%
D29*
%TO.C,D2*%
X152095000Y-76962000D03*
X153670000Y-76962000D03*
%TD*%
D10*
%TO.C,J8*%
X151130000Y-80010000D03*
D11*
X148590000Y-80010000D03*
%TD*%
D10*
%TO.C,J9*%
X151130000Y-67310000D03*
D11*
X148590000Y-67310000D03*
X146050000Y-67310000D03*
X143510000Y-67310000D03*
%TD*%
D14*
%TO.C,C7*%
X147630000Y-64770000D03*
X148590000Y-64770000D03*
%TD*%
D30*
%TO.C,C8*%
X147706000Y-58928000D03*
X149606000Y-58928000D03*
%TD*%
D31*
%TO.C,U3*%
X147640000Y-63500000D03*
X148590000Y-63500000D03*
X149540000Y-63500000D03*
X149540000Y-61300000D03*
X147640000Y-61300000D03*
%TD*%
D32*
%TO.C,D1*%
X150165000Y-76962000D03*
X148590000Y-76962000D03*
%TD*%
D33*
%TO.C,Q2*%
X147325000Y-75184000D03*
X149225000Y-75184000D03*
X148275000Y-72564000D03*
%TD*%
D14*
%TO.C,C9*%
X164648000Y-45720000D03*
X165608000Y-45720000D03*
%TD*%
D25*
%TO.C,R9*%
X145032000Y-53086000D03*
X146052000Y-53086000D03*
%TD*%
D12*
%TO.C,R10*%
X132080000Y-75565000D03*
X131060000Y-75565000D03*
%TD*%
D34*
%TO.C,C10*%
X141605000Y-71400000D03*
X141605000Y-69850000D03*
%TD*%
D14*
%TO.C,C11*%
X170490000Y-72390000D03*
X171450000Y-72390000D03*
%TD*%
%TO.C,C12*%
X170490000Y-69850000D03*
X171450000Y-69850000D03*
%TD*%
D19*
%TO.C,C13*%
X170815000Y-51435000D03*
X170815000Y-50475000D03*
%TD*%
D35*
%TO.C,C14*%
X167005000Y-47300000D03*
X167005000Y-48260000D03*
%TD*%
D36*
%TO.C,U4*%
X130810000Y-73770000D03*
X132080000Y-73770000D03*
X133350000Y-73770000D03*
X134620000Y-73770000D03*
X134620000Y-68470000D03*
X133350000Y-68470000D03*
X132080000Y-68470000D03*
X130810000Y-68470000D03*
D37*
X132715000Y-71120000D03*
%TD*%
D38*
%TO.C,R11*%
X134620000Y-75645000D03*
X134620000Y-77470000D03*
%TD*%
D34*
%TO.C,C15*%
X136525000Y-74295000D03*
X136525000Y-72745000D03*
%TD*%
D39*
%TO.C,C16*%
X148365000Y-70485000D03*
X145415000Y-70485000D03*
%TD*%
D40*
%TO.C,C17*%
X121617000Y-47498000D03*
X118667000Y-47498000D03*
%TD*%
D12*
%TO.C,R2*%
X154055000Y-42545000D03*
X153035000Y-42545000D03*
%TD*%
D19*
%TO.C,C4*%
X150114000Y-53566000D03*
X150114000Y-52606000D03*
%TD*%
D20*
%TO.C,R8*%
X146050000Y-56386000D03*
X146050000Y-57406000D03*
%TD*%
D12*
%TO.C,R12*%
X151640000Y-64897000D03*
X150620000Y-64897000D03*
%TD*%
D20*
%TO.C,R15*%
X148463000Y-41654000D03*
X148463000Y-42674000D03*
%TD*%
%TO.C,R14*%
X146812000Y-41654000D03*
X146812000Y-42674000D03*
%TD*%
%TO.C,R13*%
X140335000Y-76325000D03*
X140335000Y-77345000D03*
%TD*%
D10*
%TO.C,J2*%
X115095000Y-53340000D03*
D11*
X117635000Y-53340000D03*
X115095000Y-55880000D03*
X117635000Y-55880000D03*
X115095000Y-58420000D03*
X117635000Y-58420000D03*
X115095000Y-60960000D03*
X117635000Y-60960000D03*
X115095000Y-63500000D03*
X117635000Y-63500000D03*
X115095000Y-66040000D03*
X117635000Y-66040000D03*
X115095000Y-68580000D03*
X117635000Y-68580000D03*
X115095000Y-71120000D03*
X117635000Y-71120000D03*
%TD*%
M02*
