%TF.GenerationSoftware,KiCad,Pcbnew,6.0.11+dfsg-1*%
%TF.CreationDate,2023-02-19T01:07:10+01:00*%
%TF.ProjectId,Mainboard,4d61696e-626f-4617-9264-2e6b69636164,rev?*%
%TF.SameCoordinates,Original*%
%TF.FileFunction,Soldermask,Bot*%
%TF.FilePolarity,Negative*%
%FSLAX46Y46*%
G04 Gerber Fmt 4.6, Leading zero omitted, Abs format (unit mm)*
G04 Created by KiCad (PCBNEW 6.0.11+dfsg-1) date 2023-02-19 01:07:10*
%MOMM*%
%LPD*%
G01*
G04 APERTURE LIST*
%ADD10R,1.700000X1.700000*%
%ADD11O,1.700000X1.700000*%
%ADD12R,1.000000X1.000000*%
%ADD13O,1.000000X1.000000*%
%ADD14C,1.061200*%
G04 APERTURE END LIST*
D10*
%TO.C,J4*%
X173990000Y-67310000D03*
D11*
X176530000Y-67310000D03*
X173990000Y-69850000D03*
X176530000Y-69850000D03*
X173990000Y-72390000D03*
X176530000Y-72390000D03*
X173990000Y-74930000D03*
X176530000Y-74930000D03*
X173990000Y-77470000D03*
X176530000Y-77470000D03*
X173990000Y-80010000D03*
X176530000Y-80010000D03*
%TD*%
D12*
%TO.C,J1*%
X145288000Y-49116000D03*
D13*
X145288000Y-47846000D03*
X145288000Y-46576000D03*
X145288000Y-45306000D03*
X145288000Y-44036000D03*
%TD*%
D14*
%TO.C,U1*%
X132550000Y-49465000D03*
X132550000Y-52265000D03*
X131150000Y-52265000D03*
X131150000Y-49465000D03*
%TD*%
D10*
%TO.C,J3*%
X173990000Y-46990000D03*
D11*
X176530000Y-46990000D03*
X173990000Y-49530000D03*
X176530000Y-49530000D03*
X173990000Y-52070000D03*
X176530000Y-52070000D03*
X173990000Y-54610000D03*
X176530000Y-54610000D03*
X173990000Y-57150000D03*
X176530000Y-57150000D03*
X173990000Y-59690000D03*
X176530000Y-59690000D03*
%TD*%
D10*
%TO.C,J5*%
X166370000Y-61595000D03*
D11*
X166370000Y-59055000D03*
X168910000Y-61595000D03*
X168910000Y-59055000D03*
%TD*%
D10*
%TO.C,J6*%
X158750000Y-80010000D03*
D11*
X161290000Y-80010000D03*
X163830000Y-80010000D03*
X166370000Y-80010000D03*
%TD*%
D10*
%TO.C,J7*%
X139065000Y-69215000D03*
D11*
X139065000Y-71755000D03*
%TD*%
D10*
%TO.C,J8*%
X151130000Y-80010000D03*
D11*
X148590000Y-80010000D03*
%TD*%
D10*
%TO.C,J9*%
X151130000Y-67310000D03*
D11*
X148590000Y-67310000D03*
X146050000Y-67310000D03*
X143510000Y-67310000D03*
%TD*%
D10*
%TO.C,J2*%
X115095000Y-53340000D03*
D11*
X117635000Y-53340000D03*
X115095000Y-55880000D03*
X117635000Y-55880000D03*
X115095000Y-58420000D03*
X117635000Y-58420000D03*
X115095000Y-60960000D03*
X117635000Y-60960000D03*
X115095000Y-63500000D03*
X117635000Y-63500000D03*
X115095000Y-66040000D03*
X117635000Y-66040000D03*
X115095000Y-68580000D03*
X117635000Y-68580000D03*
X115095000Y-71120000D03*
X117635000Y-71120000D03*
%TD*%
M02*
