M48
; DRILL file {KiCad 6.0.11+dfsg-1} date So 19 Feb 2023 01:06:59 CET
; FORMAT={-:-/ absolute / inch / decimal}
; #@! TF.CreationDate,2023-02-19T01:06:59+01:00
; #@! TF.GenerationSoftware,Kicad,Pcbnew,6.0.11+dfsg-1
; #@! TF.FileFunction,Plated,1,2,PTH
FMAT,2
INCH
; #@! TA.AperFunction,Plated,PTH,ComponentDrill
T1C0.0079
; #@! TA.AperFunction,Plated,PTH,ComponentDrill
T2C0.0138
; #@! TA.AperFunction,Plated,PTH,ViaDrill
T3C0.0157
; #@! TA.AperFunction,Plated,PTH,ComponentDrill
T4C0.0256
; #@! TA.AperFunction,Plated,PTH,ComponentDrill
T5C0.0394
%
G90
G05
T1
X5.1738Y-2.7624
X5.1738Y-2.8376
X5.225Y-2.7624
X5.225Y-2.8376
X5.2762Y-2.7624
X5.2762Y-2.8376
T2
X5.1634Y-1.9474
X5.1634Y-2.0577
X5.2185Y-1.9474
X5.2185Y-2.0577
T3
X4.775Y-2.175
X4.8063Y-2.15
X4.82Y-1.63
X4.8348Y-1.9
X4.85Y-1.975
X4.9Y-2.4
X4.9744Y-1.7959
X4.975Y-1.65
X4.975Y-1.925
X4.975Y-2.175
X4.975Y-2.3
X5.0Y-2.8
X5.0Y-3.0
X5.075Y-1.8
X5.075Y-1.925
X5.075Y-2.05
X5.075Y-2.3
X5.1Y-2.65
X5.2Y-1.8
X5.2Y-2.175
X5.2Y-3.1
X5.325Y-1.8
X5.325Y-1.925
X5.325Y-2.05
X5.325Y-2.175
X5.325Y-2.3
X5.37Y-2.8
X5.4Y-3.05
X5.4Y-3.25
X5.45Y-1.8
X5.45Y-1.925
X5.45Y-2.05
X5.45Y-2.175
X5.45Y-2.3
X5.52Y-3.15
X5.525Y-2.375
X5.53Y-1.73
X5.55Y-2.9
X5.65Y-2.775
X5.67Y-2.09
X5.675Y-3.15
X5.725Y-2.55
X5.74Y-2.48
X5.75Y-2.98
X5.795Y-1.7315
X5.8122Y-2.12
X5.8122Y-2.28
X5.8126Y-2.3626
X5.8268Y-2.0357
X5.83Y-2.08
X5.8308Y-1.9965
X5.845Y-1.7315
X5.85Y-2.45
X5.86Y-2.27
X5.865Y-2.205
X5.9Y-1.825
X5.91Y-1.73
X5.91Y-1.93
X5.91Y-1.98
X5.938Y-2.452
X5.95Y-2.775
X6.04Y-2.91
X6.05Y-1.9
X6.05Y-2.05
X6.05Y-2.2
X6.06Y-2.4
X6.075Y-1.7298
X6.1Y-2.4
X6.1Y-2.95
X6.1Y-3.15
X6.1134Y-2.363
X6.125Y-1.975
X6.125Y-2.125
X6.1429Y-2.432
X6.15Y-3.0
X6.1715Y-2.4
X6.2Y-1.9
X6.2Y-2.05
X6.2Y-2.2
X6.2Y-3.05
X6.25Y-2.625
X6.25Y-2.7
X6.25Y-2.8
X6.27Y-2.41
X6.275Y-1.975
X6.275Y-2.125
X6.2953Y-2.375
X6.32Y-2.135
X6.325Y-2.75
X6.33Y-1.9
X6.33Y-2.05
X6.355Y-2.11
X6.4Y-2.475
X6.4Y-2.85
X6.45Y-1.8
X6.5Y-2.525
X6.51Y-1.86
X6.55Y-2.625
X6.55Y-3.0
X6.575Y-2.1592
X6.625Y-1.85
X6.65Y-2.55
X6.66Y-2.19
X6.675Y-2.75
X6.675Y-2.8323
X6.7Y-3.2
X6.76Y-2.98
X6.7644Y-2.6
X6.775Y-2.025
X6.7929Y-2.55
X6.85Y-2.5
X7.0Y-1.65
X7.0Y-3.25
T4
X5.72Y-1.7337
X5.72Y-1.7837
X5.72Y-1.8337
X5.72Y-1.8837
X5.72Y-1.9337
T5
X4.5313Y-2.1
X4.5313Y-2.2
X4.5313Y-2.3
X4.5313Y-2.4
X4.5313Y-2.5
X4.5313Y-2.6
X4.5313Y-2.7
X4.5313Y-2.8
X4.6313Y-2.1
X4.6313Y-2.2
X4.6313Y-2.3
X4.6313Y-2.4
X4.6313Y-2.5
X4.6313Y-2.6
X4.6313Y-2.7
X4.6313Y-2.8
X5.475Y-2.725
X5.475Y-2.825
X5.65Y-2.65
X5.75Y-2.65
X5.85Y-2.65
X5.85Y-3.15
X5.95Y-2.65
X5.95Y-3.15
X6.25Y-3.15
X6.35Y-3.15
X6.45Y-3.15
X6.55Y-2.325
X6.55Y-2.425
X6.55Y-3.15
X6.65Y-2.325
X6.65Y-2.425
X6.85Y-1.85
X6.85Y-1.95
X6.85Y-2.05
X6.85Y-2.15
X6.85Y-2.25
X6.85Y-2.35
X6.85Y-2.65
X6.85Y-2.75
X6.85Y-2.85
X6.85Y-2.95
X6.85Y-3.05
X6.85Y-3.15
X6.95Y-1.85
X6.95Y-1.95
X6.95Y-2.05
X6.95Y-2.15
X6.95Y-2.25
X6.95Y-2.35
X6.95Y-2.65
X6.95Y-2.75
X6.95Y-2.85
X6.95Y-2.95
X6.95Y-3.05
X6.95Y-3.15
T0
M30
