%TF.GenerationSoftware,KiCad,Pcbnew,6.0.11+dfsg-1*%
%TF.CreationDate,2023-02-19T01:13:16+01:00*%
%TF.ProjectId,Controller,436f6e74-726f-46c6-9c65-722e6b696361,rev?*%
%TF.SameCoordinates,Original*%
%TF.FileFunction,Copper,L1,Top*%
%TF.FilePolarity,Positive*%
%FSLAX46Y46*%
G04 Gerber Fmt 4.6, Leading zero omitted, Abs format (unit mm)*
G04 Created by KiCad (PCBNEW 6.0.11+dfsg-1) date 2023-02-19 01:13:16*
%MOMM*%
%LPD*%
G01*
G04 APERTURE LIST*
G04 Aperture macros list*
%AMRoundRect*
0 Rectangle with rounded corners*
0 $1 Rounding radius*
0 $2 $3 $4 $5 $6 $7 $8 $9 X,Y pos of 4 corners*
0 Add a 4 corners polygon primitive as box body*
4,1,4,$2,$3,$4,$5,$6,$7,$8,$9,$2,$3,0*
0 Add four circle primitives for the rounded corners*
1,1,$1+$1,$2,$3*
1,1,$1+$1,$4,$5*
1,1,$1+$1,$6,$7*
1,1,$1+$1,$8,$9*
0 Add four rect primitives between the rounded corners*
20,1,$1+$1,$2,$3,$4,$5,0*
20,1,$1+$1,$4,$5,$6,$7,0*
20,1,$1+$1,$6,$7,$8,$9,0*
20,1,$1+$1,$8,$9,$2,$3,0*%
G04 Aperture macros list end*
%TA.AperFunction,ComponentPad*%
%ADD10R,1.700000X1.700000*%
%TD*%
%TA.AperFunction,ComponentPad*%
%ADD11O,1.700000X1.700000*%
%TD*%
%TA.AperFunction,SMDPad,CuDef*%
%ADD12RoundRect,0.135000X-0.185000X0.135000X-0.185000X-0.135000X0.185000X-0.135000X0.185000X0.135000X0*%
%TD*%
%TA.AperFunction,ViaPad*%
%ADD13C,0.800000*%
%TD*%
%TA.AperFunction,Conductor*%
%ADD14C,0.250000*%
%TD*%
G04 APERTURE END LIST*
D10*
%TO.P,J1,1,Pin_1*%
%TO.N,+3V3*%
X120120000Y-61500000D03*
D11*
%TO.P,J1,2,Pin_2*%
%TO.N,/CON_AUD*%
X120120000Y-64040000D03*
%TO.P,J1,3,Pin_3*%
%TO.N,/CON_X*%
X117580000Y-61500000D03*
%TO.P,J1,4,Pin_4*%
%TO.N,/CON_SPEZ*%
X117580000Y-64040000D03*
%TO.P,J1,5,Pin_5*%
%TO.N,/CON_Y*%
X115040000Y-61500000D03*
%TO.P,J1,6,Pin_6*%
%TO.N,/CON_JB*%
X115040000Y-64040000D03*
%TO.P,J1,7,Pin_7*%
%TO.N,/CON_BMA*%
X112500000Y-61500000D03*
%TO.P,J1,8,Pin_8*%
%TO.N,/CON_BM1*%
X112500000Y-64040000D03*
%TO.P,J1,9,Pin_9*%
%TO.N,/CON_BMB*%
X109960000Y-61500000D03*
%TO.P,J1,10,Pin_10*%
%TO.N,/CON_BM2*%
X109960000Y-64040000D03*
%TO.P,J1,11,Pin_11*%
%TO.N,/CON_BMC*%
X107420000Y-61500000D03*
%TO.P,J1,12,Pin_12*%
%TO.N,GND*%
X107420000Y-64040000D03*
%TD*%
D10*
%TO.P,J3,1,Pin_1*%
%TO.N,/CON_AUD*%
X124000000Y-72000000D03*
D11*
%TO.P,J3,2,Pin_2*%
%TO.N,GND*%
X126540000Y-72000000D03*
%TD*%
D10*
%TO.P,J4,1,Pin_1*%
%TO.N,+3V3*%
X124000000Y-67000000D03*
D11*
%TO.P,J4,2,Pin_2*%
%TO.N,GND*%
X126540000Y-67000000D03*
%TD*%
D10*
%TO.P,J6,1,Pin_1*%
%TO.N,/CON_BMC*%
X103000000Y-70000000D03*
D11*
%TO.P,J6,2,Pin_2*%
%TO.N,Net-(D6-Pad1)*%
X103000000Y-67460000D03*
%TD*%
D10*
%TO.P,J5,1,Pin_1*%
%TO.N,Net-(D3-Pad1)*%
X103000000Y-87500000D03*
D11*
%TO.P,J5,2,Pin_2*%
%TO.N,/CON_BMC*%
X103000000Y-84960000D03*
%TD*%
D12*
%TO.P,R1,1*%
%TO.N,Net-(J2-Pad2)*%
X107000000Y-87480000D03*
%TO.P,R1,2*%
%TO.N,+3V3*%
X107000000Y-88500000D03*
%TD*%
D10*
%TO.P,J2,1,Pin_1*%
%TO.N,GND*%
X109840000Y-85500000D03*
D11*
%TO.P,J2,2,Pin_2*%
%TO.N,Net-(J2-Pad2)*%
X112380000Y-85500000D03*
%TO.P,J2,3,Pin_3*%
%TO.N,/CON_X*%
X114920000Y-85500000D03*
%TO.P,J2,4,Pin_4*%
%TO.N,/CON_Y*%
X117460000Y-85500000D03*
%TO.P,J2,5,Pin_5*%
%TO.N,/CON_JB*%
X120000000Y-85500000D03*
%TD*%
D13*
%TO.N,/CON_BM1*%
X112500000Y-82000000D03*
%TO.N,/CON_BM2*%
X105500000Y-69000000D03*
X105500000Y-86500000D03*
%TO.N,GND*%
X108966000Y-91440000D03*
X122936000Y-61214000D03*
X118364000Y-91440000D03*
X121412000Y-73660000D03*
X103000000Y-77500000D03*
X108204000Y-77216000D03*
X123698000Y-80772000D03*
X120650000Y-76962000D03*
X126746000Y-61214000D03*
X116332000Y-69596000D03*
X126238000Y-84836000D03*
%TO.N,/CON_BMB*%
X116500000Y-75500000D03*
X116262653Y-83237347D03*
%TO.N,/CON_BMA*%
X111500000Y-80000000D03*
%TD*%
D14*
%TO.N,/CON_BM1*%
X112500000Y-64040000D02*
X112500000Y-79000000D01*
X112500000Y-79000000D02*
X112500000Y-82000000D01*
%TO.N,/CON_BM2*%
X105500000Y-86500000D02*
X105500000Y-78000000D01*
X105500000Y-69000000D02*
X105500000Y-78000000D01*
%TO.N,GND*%
X110500000Y-85460000D02*
X110460000Y-85500000D01*
%TO.N,/CON_BMC*%
X101500000Y-71500000D02*
X103000000Y-70000000D01*
X101500000Y-83460000D02*
X101500000Y-71500000D01*
X103000000Y-84960000D02*
X101500000Y-83460000D01*
X102851055Y-60650001D02*
X101235098Y-62265958D01*
X107420000Y-61500000D02*
X106570001Y-60650001D01*
X106570001Y-60650001D02*
X102851055Y-60650001D01*
X101235098Y-68235098D02*
X103000000Y-70000000D01*
X101235098Y-62265958D02*
X101235098Y-68235098D01*
%TO.N,/CON_BMB*%
X116262653Y-83237347D02*
X116262653Y-75737347D01*
X116262653Y-75737347D02*
X116500000Y-75500000D01*
%TO.N,/CON_BMA*%
X111500000Y-80000000D02*
X111324999Y-79824999D01*
X111324999Y-62675001D02*
X112500000Y-61500000D01*
X111324999Y-79824999D02*
X111324999Y-62675001D01*
%TO.N,/CON_JB*%
X117950010Y-87549990D02*
X115230988Y-87549990D01*
X113555001Y-85874003D02*
X113555001Y-65524999D01*
X115230988Y-87549990D02*
X113555001Y-85874003D01*
X113555001Y-65524999D02*
X115040000Y-64040000D01*
X120000000Y-85500000D02*
X117950010Y-87549990D01*
%TO.N,/CON_Y*%
X116215001Y-64414003D02*
X116215001Y-62675001D01*
X117460000Y-85500000D02*
X117460000Y-65659002D01*
X116215001Y-62675001D02*
X115040000Y-61500000D01*
X117460000Y-65659002D02*
X116215001Y-64414003D01*
X117500000Y-85500000D02*
X118080000Y-85500000D01*
%TO.N,/CON_X*%
X114920000Y-85500000D02*
X116095001Y-86675001D01*
X116095001Y-86675001D02*
X118024001Y-86675001D01*
X118824999Y-85874003D02*
X118824999Y-62744999D01*
X118824999Y-62744999D02*
X117580000Y-61500000D01*
X118024001Y-86675001D02*
X118824999Y-85874003D01*
%TO.N,/CON_AUD*%
X123460000Y-71460000D02*
X124000000Y-72000000D01*
X120120000Y-64040000D02*
X120120000Y-65445002D01*
X123460000Y-68785002D02*
X123460000Y-71460000D01*
X120120000Y-65445002D02*
X123460000Y-68785002D01*
%TO.N,+3V3*%
X120120000Y-62060000D02*
X120120000Y-61500000D01*
X121000000Y-88500000D02*
X125000000Y-84500000D01*
X125175001Y-81314999D02*
X125175001Y-68175001D01*
X107000000Y-88500000D02*
X121000000Y-88500000D01*
X125000000Y-84500000D02*
X125000000Y-81490000D01*
X124000000Y-67000000D02*
X124000000Y-65380000D01*
X125175001Y-68175001D02*
X124000000Y-67000000D01*
X124000000Y-65380000D02*
X120120000Y-61500000D01*
X125000000Y-81490000D02*
X125175001Y-81314999D01*
%TO.N,Net-(J2-Pad2)*%
X112380000Y-85500000D02*
X110400000Y-87480000D01*
X110400000Y-87480000D02*
X107000000Y-87480000D01*
%TD*%
%TA.AperFunction,Conductor*%
%TO.N,GND*%
G36*
X127433621Y-58528502D02*
G01*
X127480114Y-58582158D01*
X127491500Y-58634500D01*
X127491500Y-65761702D01*
X127471498Y-65829823D01*
X127417842Y-65876316D01*
X127347568Y-65886420D01*
X127295771Y-65866649D01*
X127289551Y-65862516D01*
X127103117Y-65759599D01*
X127093705Y-65755369D01*
X126892959Y-65684280D01*
X126882988Y-65681646D01*
X126811837Y-65668972D01*
X126798540Y-65670432D01*
X126794000Y-65684989D01*
X126794000Y-68318517D01*
X126798064Y-68332359D01*
X126811478Y-68334393D01*
X126818184Y-68333534D01*
X126828262Y-68331392D01*
X127032255Y-68270191D01*
X127041842Y-68266433D01*
X127233095Y-68172739D01*
X127241945Y-68167464D01*
X127292332Y-68131523D01*
X127359405Y-68108249D01*
X127428414Y-68124933D01*
X127477448Y-68176277D01*
X127491500Y-68234102D01*
X127491500Y-70761702D01*
X127471498Y-70829823D01*
X127417842Y-70876316D01*
X127347568Y-70886420D01*
X127295771Y-70866649D01*
X127289551Y-70862516D01*
X127103117Y-70759599D01*
X127093705Y-70755369D01*
X126892959Y-70684280D01*
X126882988Y-70681646D01*
X126811837Y-70668972D01*
X126798540Y-70670432D01*
X126794000Y-70684989D01*
X126794000Y-73318517D01*
X126798064Y-73332359D01*
X126811478Y-73334393D01*
X126818184Y-73333534D01*
X126828262Y-73331392D01*
X127032255Y-73270191D01*
X127041842Y-73266433D01*
X127233095Y-73172739D01*
X127241945Y-73167464D01*
X127292332Y-73131523D01*
X127359405Y-73108249D01*
X127428414Y-73124933D01*
X127477448Y-73176277D01*
X127491500Y-73234102D01*
X127491500Y-95365500D01*
X127471498Y-95433621D01*
X127417842Y-95480114D01*
X127365500Y-95491500D01*
X100634500Y-95491500D01*
X100566379Y-95471498D01*
X100519886Y-95417842D01*
X100508500Y-95365500D01*
X100508500Y-93000000D01*
X101368436Y-93000000D01*
X101388523Y-93255233D01*
X101389677Y-93260040D01*
X101389678Y-93260046D01*
X101422866Y-93398282D01*
X101448290Y-93504181D01*
X101450183Y-93508752D01*
X101450184Y-93508754D01*
X101490546Y-93606195D01*
X101546266Y-93740715D01*
X101680037Y-93959009D01*
X101683249Y-93962769D01*
X101683252Y-93962774D01*
X101831839Y-94136747D01*
X101846310Y-94153690D01*
X101850072Y-94156903D01*
X102037226Y-94316748D01*
X102037231Y-94316751D01*
X102040991Y-94319963D01*
X102259285Y-94453734D01*
X102263855Y-94455627D01*
X102263859Y-94455629D01*
X102491246Y-94549816D01*
X102495819Y-94551710D01*
X102582149Y-94572436D01*
X102739954Y-94610322D01*
X102739960Y-94610323D01*
X102744767Y-94611477D01*
X103000000Y-94631564D01*
X103255233Y-94611477D01*
X103260040Y-94610323D01*
X103260046Y-94610322D01*
X103417851Y-94572436D01*
X103504181Y-94551710D01*
X103508754Y-94549816D01*
X103736141Y-94455629D01*
X103736145Y-94455627D01*
X103740715Y-94453734D01*
X103959009Y-94319963D01*
X103962769Y-94316751D01*
X103962774Y-94316748D01*
X104149928Y-94156903D01*
X104153690Y-94153690D01*
X104168161Y-94136747D01*
X104316748Y-93962774D01*
X104316751Y-93962769D01*
X104319963Y-93959009D01*
X104453734Y-93740715D01*
X104509455Y-93606195D01*
X104549816Y-93508754D01*
X104549817Y-93508752D01*
X104551710Y-93504181D01*
X104577134Y-93398282D01*
X104610322Y-93260046D01*
X104610323Y-93260040D01*
X104611477Y-93255233D01*
X104631564Y-93000000D01*
X123368436Y-93000000D01*
X123388523Y-93255233D01*
X123389677Y-93260040D01*
X123389678Y-93260046D01*
X123422866Y-93398282D01*
X123448290Y-93504181D01*
X123450183Y-93508752D01*
X123450184Y-93508754D01*
X123490546Y-93606195D01*
X123546266Y-93740715D01*
X123680037Y-93959009D01*
X123683249Y-93962769D01*
X123683252Y-93962774D01*
X123831839Y-94136747D01*
X123846310Y-94153690D01*
X123850072Y-94156903D01*
X124037226Y-94316748D01*
X124037231Y-94316751D01*
X124040991Y-94319963D01*
X124259285Y-94453734D01*
X124263855Y-94455627D01*
X124263859Y-94455629D01*
X124491246Y-94549816D01*
X124495819Y-94551710D01*
X124582149Y-94572436D01*
X124739954Y-94610322D01*
X124739960Y-94610323D01*
X124744767Y-94611477D01*
X125000000Y-94631564D01*
X125255233Y-94611477D01*
X125260040Y-94610323D01*
X125260046Y-94610322D01*
X125417851Y-94572436D01*
X125504181Y-94551710D01*
X125508754Y-94549816D01*
X125736141Y-94455629D01*
X125736145Y-94455627D01*
X125740715Y-94453734D01*
X125959009Y-94319963D01*
X125962769Y-94316751D01*
X125962774Y-94316748D01*
X126149928Y-94156903D01*
X126153690Y-94153690D01*
X126168161Y-94136747D01*
X126316748Y-93962774D01*
X126316751Y-93962769D01*
X126319963Y-93959009D01*
X126453734Y-93740715D01*
X126509455Y-93606195D01*
X126549816Y-93508754D01*
X126549817Y-93508752D01*
X126551710Y-93504181D01*
X126577134Y-93398282D01*
X126610322Y-93260046D01*
X126610323Y-93260040D01*
X126611477Y-93255233D01*
X126631564Y-93000000D01*
X126611477Y-92744767D01*
X126551710Y-92495819D01*
X126453734Y-92259285D01*
X126319963Y-92040991D01*
X126316751Y-92037231D01*
X126316748Y-92037226D01*
X126156903Y-91850072D01*
X126153690Y-91846310D01*
X126136747Y-91831839D01*
X125962774Y-91683252D01*
X125962769Y-91683249D01*
X125959009Y-91680037D01*
X125740715Y-91546266D01*
X125736145Y-91544373D01*
X125736141Y-91544371D01*
X125508754Y-91450184D01*
X125508752Y-91450183D01*
X125504181Y-91448290D01*
X125417851Y-91427564D01*
X125260046Y-91389678D01*
X125260040Y-91389677D01*
X125255233Y-91388523D01*
X125000000Y-91368436D01*
X124744767Y-91388523D01*
X124739960Y-91389677D01*
X124739954Y-91389678D01*
X124582149Y-91427564D01*
X124495819Y-91448290D01*
X124491248Y-91450183D01*
X124491246Y-91450184D01*
X124263859Y-91544371D01*
X124263855Y-91544373D01*
X124259285Y-91546266D01*
X124040991Y-91680037D01*
X124037231Y-91683249D01*
X124037226Y-91683252D01*
X123863253Y-91831839D01*
X123846310Y-91846310D01*
X123843097Y-91850072D01*
X123683252Y-92037226D01*
X123683249Y-92037231D01*
X123680037Y-92040991D01*
X123546266Y-92259285D01*
X123448290Y-92495819D01*
X123388523Y-92744767D01*
X123368938Y-92993617D01*
X123368436Y-93000000D01*
X104631564Y-93000000D01*
X104611477Y-92744767D01*
X104551710Y-92495819D01*
X104453734Y-92259285D01*
X104319963Y-92040991D01*
X104316751Y-92037231D01*
X104316748Y-92037226D01*
X104156903Y-91850072D01*
X104153690Y-91846310D01*
X104136747Y-91831839D01*
X103962774Y-91683252D01*
X103962769Y-91683249D01*
X103959009Y-91680037D01*
X103740715Y-91546266D01*
X103736145Y-91544373D01*
X103736141Y-91544371D01*
X103508754Y-91450184D01*
X103508752Y-91450183D01*
X103504181Y-91448290D01*
X103417851Y-91427564D01*
X103260046Y-91389678D01*
X103260040Y-91389677D01*
X103255233Y-91388523D01*
X103000000Y-91368436D01*
X102744767Y-91388523D01*
X102739960Y-91389677D01*
X102739954Y-91389678D01*
X102582149Y-91427564D01*
X102495819Y-91448290D01*
X102491248Y-91450183D01*
X102491246Y-91450184D01*
X102263859Y-91544371D01*
X102263855Y-91544373D01*
X102259285Y-91546266D01*
X102040991Y-91680037D01*
X102037231Y-91683249D01*
X102037226Y-91683252D01*
X101863253Y-91831839D01*
X101846310Y-91846310D01*
X101843097Y-91850072D01*
X101683252Y-92037226D01*
X101683249Y-92037231D01*
X101680037Y-92040991D01*
X101546266Y-92259285D01*
X101448290Y-92495819D01*
X101388523Y-92744767D01*
X101368938Y-92993617D01*
X101368436Y-93000000D01*
X100508500Y-93000000D01*
X100508500Y-68706581D01*
X100528502Y-68638460D01*
X100582158Y-68591967D01*
X100652432Y-68581863D01*
X100717012Y-68611357D01*
X100729290Y-68624319D01*
X100730556Y-68626460D01*
X100744877Y-68640781D01*
X100757717Y-68655814D01*
X100769626Y-68672205D01*
X100775732Y-68677256D01*
X100803703Y-68700396D01*
X100812482Y-68708386D01*
X101604595Y-69500499D01*
X101638621Y-69562811D01*
X101641500Y-69589594D01*
X101641500Y-70410405D01*
X101621498Y-70478526D01*
X101604595Y-70499500D01*
X101107747Y-70996348D01*
X101099461Y-71003888D01*
X101092982Y-71008000D01*
X101087557Y-71013777D01*
X101046357Y-71057651D01*
X101043602Y-71060493D01*
X101023865Y-71080230D01*
X101021385Y-71083427D01*
X101013682Y-71092447D01*
X100983414Y-71124679D01*
X100979595Y-71131625D01*
X100979593Y-71131628D01*
X100973652Y-71142434D01*
X100962801Y-71158953D01*
X100950386Y-71174959D01*
X100947241Y-71182228D01*
X100947238Y-71182232D01*
X100932826Y-71215537D01*
X100927609Y-71226187D01*
X100906305Y-71264940D01*
X100904334Y-71272615D01*
X100904334Y-71272616D01*
X100901267Y-71284562D01*
X100894863Y-71303266D01*
X100886819Y-71321855D01*
X100885580Y-71329678D01*
X100885577Y-71329688D01*
X100879901Y-71365524D01*
X100877495Y-71377144D01*
X100866500Y-71419970D01*
X100866500Y-71440224D01*
X100864949Y-71459934D01*
X100861780Y-71479943D01*
X100862526Y-71487835D01*
X100865941Y-71523961D01*
X100866500Y-71535819D01*
X100866500Y-83381233D01*
X100865973Y-83392416D01*
X100864298Y-83399909D01*
X100864547Y-83407835D01*
X100864547Y-83407836D01*
X100866438Y-83467986D01*
X100866500Y-83471945D01*
X100866500Y-83499856D01*
X100866997Y-83503790D01*
X100866997Y-83503791D01*
X100867005Y-83503856D01*
X100867938Y-83515693D01*
X100869327Y-83559889D01*
X100874978Y-83579339D01*
X100878987Y-83598700D01*
X100881526Y-83618797D01*
X100884445Y-83626168D01*
X100884445Y-83626170D01*
X100897804Y-83659912D01*
X100901649Y-83671142D01*
X100913982Y-83713593D01*
X100918015Y-83720412D01*
X100918017Y-83720417D01*
X100924293Y-83731028D01*
X100932988Y-83748776D01*
X100940448Y-83767617D01*
X100945110Y-83774033D01*
X100945110Y-83774034D01*
X100966436Y-83803387D01*
X100972952Y-83813307D01*
X100979630Y-83824598D01*
X100995458Y-83851362D01*
X101009779Y-83865683D01*
X101022619Y-83880716D01*
X101034528Y-83897107D01*
X101040634Y-83902158D01*
X101068605Y-83925298D01*
X101077384Y-83933288D01*
X101649778Y-84505682D01*
X101683804Y-84567994D01*
X101682100Y-84628448D01*
X101660989Y-84704570D01*
X101660441Y-84709700D01*
X101660440Y-84709704D01*
X101656988Y-84742005D01*
X101637251Y-84926695D01*
X101637548Y-84931848D01*
X101637548Y-84931851D01*
X101643011Y-85026590D01*
X101650110Y-85149715D01*
X101651247Y-85154761D01*
X101651248Y-85154767D01*
X101671119Y-85242939D01*
X101699222Y-85367639D01*
X101783266Y-85574616D01*
X101785965Y-85579020D01*
X101895935Y-85758475D01*
X101899987Y-85765088D01*
X102046250Y-85933938D01*
X102050230Y-85937242D01*
X102054981Y-85941187D01*
X102094616Y-86000090D01*
X102096113Y-86071071D01*
X102058997Y-86131593D01*
X102018724Y-86156112D01*
X101903295Y-86199385D01*
X101786739Y-86286739D01*
X101699385Y-86403295D01*
X101648255Y-86539684D01*
X101641500Y-86601866D01*
X101641500Y-88398134D01*
X101648255Y-88460316D01*
X101699385Y-88596705D01*
X101786739Y-88713261D01*
X101903295Y-88800615D01*
X102039684Y-88851745D01*
X102101866Y-88858500D01*
X103898134Y-88858500D01*
X103960316Y-88851745D01*
X104096705Y-88800615D01*
X104213261Y-88713261D01*
X104300615Y-88596705D01*
X104351745Y-88460316D01*
X104358500Y-88398134D01*
X104358500Y-86718867D01*
X104378502Y-86650746D01*
X104432158Y-86604253D01*
X104492225Y-86595617D01*
X104431478Y-86597931D01*
X104370334Y-86561849D01*
X104344366Y-86520000D01*
X104303768Y-86411705D01*
X104303767Y-86411703D01*
X104300615Y-86403295D01*
X104213261Y-86286739D01*
X104096705Y-86199385D01*
X104084132Y-86194672D01*
X103978203Y-86154960D01*
X103921439Y-86112318D01*
X103896739Y-86045756D01*
X103911947Y-85976408D01*
X103933493Y-85947727D01*
X103999664Y-85881787D01*
X104038096Y-85843489D01*
X104056571Y-85817779D01*
X104165435Y-85666277D01*
X104168453Y-85662077D01*
X104214006Y-85569908D01*
X104265136Y-85466453D01*
X104265137Y-85466451D01*
X104267430Y-85461811D01*
X104332370Y-85248069D01*
X104361529Y-85026590D01*
X104363156Y-84960000D01*
X104344852Y-84737361D01*
X104290431Y-84520702D01*
X104201354Y-84315840D01*
X104156009Y-84245747D01*
X104082822Y-84132617D01*
X104082820Y-84132614D01*
X104080014Y-84128277D01*
X103929670Y-83963051D01*
X103925619Y-83959852D01*
X103925615Y-83959848D01*
X103758414Y-83827800D01*
X103758410Y-83827798D01*
X103754359Y-83824598D01*
X103733906Y-83813307D01*
X103702136Y-83795769D01*
X103558789Y-83716638D01*
X103553920Y-83714914D01*
X103553916Y-83714912D01*
X103353087Y-83643795D01*
X103353083Y-83643794D01*
X103348212Y-83642069D01*
X103343119Y-83641162D01*
X103343116Y-83641161D01*
X103133373Y-83603800D01*
X103133367Y-83603799D01*
X103128284Y-83602894D01*
X103054452Y-83601992D01*
X102910081Y-83600228D01*
X102910079Y-83600228D01*
X102904911Y-83600165D01*
X102684091Y-83633955D01*
X102671532Y-83638060D01*
X102600568Y-83640210D01*
X102543294Y-83607389D01*
X102170405Y-83234500D01*
X102136379Y-83172188D01*
X102133500Y-83145405D01*
X102133500Y-71814594D01*
X102153502Y-71746473D01*
X102170405Y-71725499D01*
X102500499Y-71395405D01*
X102562811Y-71361379D01*
X102589594Y-71358500D01*
X103898134Y-71358500D01*
X103960316Y-71351745D01*
X104096705Y-71300615D01*
X104213261Y-71213261D01*
X104300615Y-71096705D01*
X104351745Y-70960316D01*
X104358500Y-70898134D01*
X104358500Y-69218867D01*
X104378502Y-69150746D01*
X104432158Y-69104253D01*
X104492225Y-69095617D01*
X104431478Y-69097931D01*
X104370334Y-69061849D01*
X104344366Y-69020000D01*
X104303768Y-68911705D01*
X104303767Y-68911704D01*
X104300615Y-68903295D01*
X104213261Y-68786739D01*
X104096705Y-68699385D01*
X104058632Y-68685112D01*
X103978203Y-68654960D01*
X103921439Y-68612318D01*
X103896739Y-68545756D01*
X103911947Y-68476408D01*
X103933493Y-68447727D01*
X103985998Y-68395405D01*
X104038096Y-68343489D01*
X104045250Y-68333534D01*
X104165435Y-68166277D01*
X104168453Y-68162077D01*
X104182384Y-68133891D01*
X104265136Y-67966453D01*
X104265137Y-67966451D01*
X104267430Y-67961811D01*
X104332370Y-67748069D01*
X104361529Y-67526590D01*
X104363156Y-67460000D01*
X104344852Y-67237361D01*
X104290431Y-67020702D01*
X104201354Y-66815840D01*
X104080014Y-66628277D01*
X103929670Y-66463051D01*
X103925619Y-66459852D01*
X103925615Y-66459848D01*
X103758414Y-66327800D01*
X103758410Y-66327798D01*
X103754359Y-66324598D01*
X103558789Y-66216638D01*
X103553920Y-66214914D01*
X103553916Y-66214912D01*
X103353087Y-66143795D01*
X103353083Y-66143794D01*
X103348212Y-66142069D01*
X103343119Y-66141162D01*
X103343116Y-66141161D01*
X103133373Y-66103800D01*
X103133367Y-66103799D01*
X103128284Y-66102894D01*
X103054452Y-66101992D01*
X102910081Y-66100228D01*
X102910079Y-66100228D01*
X102904911Y-66100165D01*
X102684091Y-66133955D01*
X102471756Y-66203357D01*
X102273607Y-66306507D01*
X102269474Y-66309610D01*
X102269471Y-66309612D01*
X102182212Y-66375128D01*
X102094965Y-66440635D01*
X102091395Y-66444371D01*
X102091388Y-66444377D01*
X102085693Y-66450337D01*
X102024170Y-66485769D01*
X101953257Y-66482313D01*
X101895470Y-66441068D01*
X101869156Y-66375128D01*
X101868598Y-66363288D01*
X101868598Y-64439310D01*
X101888600Y-64371189D01*
X101942256Y-64324696D01*
X102012530Y-64314592D01*
X102060433Y-64331877D01*
X102259285Y-64453734D01*
X102263855Y-64455627D01*
X102263859Y-64455629D01*
X102491246Y-64549816D01*
X102495819Y-64551710D01*
X102582149Y-64572436D01*
X102739954Y-64610322D01*
X102739960Y-64610323D01*
X102744767Y-64611477D01*
X103000000Y-64631564D01*
X103255233Y-64611477D01*
X103260040Y-64610323D01*
X103260046Y-64610322D01*
X103417851Y-64572436D01*
X103504181Y-64551710D01*
X103508754Y-64549816D01*
X103736141Y-64455629D01*
X103736145Y-64455627D01*
X103740715Y-64453734D01*
X103959009Y-64319963D01*
X103962769Y-64316751D01*
X103962774Y-64316748D01*
X103973056Y-64307966D01*
X106088257Y-64307966D01*
X106118565Y-64442446D01*
X106121645Y-64452275D01*
X106201770Y-64649603D01*
X106206413Y-64658794D01*
X106317694Y-64840388D01*
X106323777Y-64848699D01*
X106463213Y-65009667D01*
X106470580Y-65016883D01*
X106634434Y-65152916D01*
X106642881Y-65158831D01*
X106826756Y-65266279D01*
X106836042Y-65270729D01*
X107035001Y-65346703D01*
X107044899Y-65349579D01*
X107148250Y-65370606D01*
X107162299Y-65369410D01*
X107166000Y-65359065D01*
X107166000Y-64312115D01*
X107161525Y-64296876D01*
X107160135Y-64295671D01*
X107152452Y-64294000D01*
X106103225Y-64294000D01*
X106089694Y-64297973D01*
X106088257Y-64307966D01*
X103973056Y-64307966D01*
X104149928Y-64156903D01*
X104153690Y-64153690D01*
X104234004Y-64059654D01*
X104316748Y-63962774D01*
X104316751Y-63962769D01*
X104319963Y-63959009D01*
X104453734Y-63740715D01*
X104462093Y-63720536D01*
X104549816Y-63508754D01*
X104549818Y-63508749D01*
X104551710Y-63504181D01*
X104585848Y-63361986D01*
X104610322Y-63260046D01*
X104610323Y-63260040D01*
X104611477Y-63255233D01*
X104631564Y-63000000D01*
X104611477Y-62744767D01*
X104609155Y-62735092D01*
X104563318Y-62544171D01*
X104551710Y-62495819D01*
X104549816Y-62491246D01*
X104455629Y-62263859D01*
X104455627Y-62263855D01*
X104453734Y-62259285D01*
X104319963Y-62040991D01*
X104316751Y-62037231D01*
X104316748Y-62037226D01*
X104156903Y-61850072D01*
X104153690Y-61846310D01*
X104130438Y-61826451D01*
X103962774Y-61683252D01*
X103962769Y-61683249D01*
X103959009Y-61680037D01*
X103740715Y-61546266D01*
X103736145Y-61544373D01*
X103736141Y-61544371D01*
X103691571Y-61525910D01*
X103636290Y-61481362D01*
X103613869Y-61413998D01*
X103631427Y-61345207D01*
X103683389Y-61296829D01*
X103739789Y-61283501D01*
X105936645Y-61283501D01*
X106004766Y-61303503D01*
X106051259Y-61357159D01*
X106061932Y-61422889D01*
X106059341Y-61447135D01*
X106057251Y-61466695D01*
X106057548Y-61471848D01*
X106057548Y-61471851D01*
X106061839Y-61546266D01*
X106070110Y-61689715D01*
X106071247Y-61694761D01*
X106071248Y-61694767D01*
X106086469Y-61762306D01*
X106119222Y-61907639D01*
X106173370Y-62040991D01*
X106192383Y-62087813D01*
X106203266Y-62114616D01*
X106246966Y-62185928D01*
X106317291Y-62300688D01*
X106319987Y-62305088D01*
X106466250Y-62473938D01*
X106638126Y-62616632D01*
X106688502Y-62646069D01*
X106711955Y-62659774D01*
X106760679Y-62711412D01*
X106773750Y-62781195D01*
X106747019Y-62846967D01*
X106706562Y-62880327D01*
X106698457Y-62884546D01*
X106689738Y-62890036D01*
X106519433Y-63017905D01*
X106511726Y-63024748D01*
X106364590Y-63178717D01*
X106358104Y-63186727D01*
X106238098Y-63362649D01*
X106233000Y-63371623D01*
X106143338Y-63564783D01*
X106139775Y-63574470D01*
X106084389Y-63774183D01*
X106085912Y-63782607D01*
X106098292Y-63786000D01*
X107548000Y-63786000D01*
X107616121Y-63806002D01*
X107662614Y-63859658D01*
X107674000Y-63912000D01*
X107674000Y-65358517D01*
X107678064Y-65372359D01*
X107691478Y-65374393D01*
X107698184Y-65373534D01*
X107708262Y-65371392D01*
X107912255Y-65310191D01*
X107921842Y-65306433D01*
X108113095Y-65212739D01*
X108121945Y-65207464D01*
X108295328Y-65083792D01*
X108303200Y-65077139D01*
X108454052Y-64926812D01*
X108460730Y-64918965D01*
X108588022Y-64741819D01*
X108589279Y-64742722D01*
X108636373Y-64699362D01*
X108706311Y-64687145D01*
X108771751Y-64714678D01*
X108799579Y-64746511D01*
X108859987Y-64845088D01*
X109006250Y-65013938D01*
X109178126Y-65156632D01*
X109371000Y-65269338D01*
X109375825Y-65271180D01*
X109375826Y-65271181D01*
X109407730Y-65283364D01*
X109579692Y-65349030D01*
X109584760Y-65350061D01*
X109584763Y-65350062D01*
X109673148Y-65368044D01*
X109798597Y-65393567D01*
X109803772Y-65393757D01*
X109803774Y-65393757D01*
X110016673Y-65401564D01*
X110016677Y-65401564D01*
X110021837Y-65401753D01*
X110026957Y-65401097D01*
X110026959Y-65401097D01*
X110238288Y-65374025D01*
X110238289Y-65374025D01*
X110243416Y-65373368D01*
X110248366Y-65371883D01*
X110452429Y-65310661D01*
X110452434Y-65310659D01*
X110457384Y-65309174D01*
X110510070Y-65283364D01*
X110580041Y-65271358D01*
X110645398Y-65299088D01*
X110685388Y-65357751D01*
X110691499Y-65396516D01*
X110691499Y-79549605D01*
X110674617Y-79612606D01*
X110665473Y-79628444D01*
X110606458Y-79810072D01*
X110586496Y-80000000D01*
X110606458Y-80189928D01*
X110665473Y-80371556D01*
X110760960Y-80536944D01*
X110888747Y-80678866D01*
X111043248Y-80791118D01*
X111049276Y-80793802D01*
X111049278Y-80793803D01*
X111211681Y-80866109D01*
X111217712Y-80868794D01*
X111311112Y-80888647D01*
X111398056Y-80907128D01*
X111398061Y-80907128D01*
X111404513Y-80908500D01*
X111595487Y-80908500D01*
X111601939Y-80907128D01*
X111601944Y-80907128D01*
X111714303Y-80883245D01*
X111785094Y-80888647D01*
X111841727Y-80931464D01*
X111866220Y-80998102D01*
X111866500Y-81006492D01*
X111866500Y-81297476D01*
X111846498Y-81365597D01*
X111834142Y-81381779D01*
X111760960Y-81463056D01*
X111710729Y-81550059D01*
X111685354Y-81594010D01*
X111665473Y-81628444D01*
X111606458Y-81810072D01*
X111586496Y-82000000D01*
X111606458Y-82189928D01*
X111665473Y-82371556D01*
X111760960Y-82536944D01*
X111765378Y-82541851D01*
X111765379Y-82541852D01*
X111834964Y-82619134D01*
X111888747Y-82678866D01*
X112043248Y-82791118D01*
X112049276Y-82793802D01*
X112049278Y-82793803D01*
X112198113Y-82860068D01*
X112217712Y-82868794D01*
X112311112Y-82888647D01*
X112398056Y-82907128D01*
X112398061Y-82907128D01*
X112404513Y-82908500D01*
X112595487Y-82908500D01*
X112601939Y-82907128D01*
X112601944Y-82907128D01*
X112769304Y-82871554D01*
X112840095Y-82876956D01*
X112896727Y-82919773D01*
X112921221Y-82986411D01*
X112921501Y-82994801D01*
X112921501Y-84072230D01*
X112901499Y-84140351D01*
X112847843Y-84186844D01*
X112777569Y-84196948D01*
X112753442Y-84191003D01*
X112733091Y-84183796D01*
X112733083Y-84183794D01*
X112728212Y-84182069D01*
X112723119Y-84181162D01*
X112723116Y-84181161D01*
X112513373Y-84143800D01*
X112513367Y-84143799D01*
X112508284Y-84142894D01*
X112434452Y-84141992D01*
X112290081Y-84140228D01*
X112290079Y-84140228D01*
X112284911Y-84140165D01*
X112064091Y-84173955D01*
X111851756Y-84243357D01*
X111821443Y-84259137D01*
X111747017Y-84297881D01*
X111653607Y-84346507D01*
X111649474Y-84349610D01*
X111649471Y-84349612D01*
X111488963Y-84470125D01*
X111474965Y-84480635D01*
X111471393Y-84484373D01*
X111393898Y-84565466D01*
X111332374Y-84600895D01*
X111261462Y-84597438D01*
X111203676Y-84556192D01*
X111184823Y-84522644D01*
X111143324Y-84411946D01*
X111134786Y-84396351D01*
X111058285Y-84294276D01*
X111045724Y-84281715D01*
X110943649Y-84205214D01*
X110928054Y-84196676D01*
X110807606Y-84151522D01*
X110792351Y-84147895D01*
X110741486Y-84142369D01*
X110734672Y-84142000D01*
X110112115Y-84142000D01*
X110096876Y-84146475D01*
X110095671Y-84147865D01*
X110094000Y-84155548D01*
X110094000Y-85628000D01*
X110073998Y-85696121D01*
X110020342Y-85742614D01*
X109968000Y-85754000D01*
X108500116Y-85754000D01*
X108484877Y-85758475D01*
X108483672Y-85759865D01*
X108482001Y-85767548D01*
X108482001Y-86394669D01*
X108482371Y-86401490D01*
X108487895Y-86452352D01*
X108491521Y-86467604D01*
X108536676Y-86588054D01*
X108545213Y-86603648D01*
X108576157Y-86644936D01*
X108601004Y-86711442D01*
X108585951Y-86780825D01*
X108535776Y-86831054D01*
X108475330Y-86846500D01*
X107640694Y-86846500D01*
X107576555Y-86828954D01*
X107449419Y-86753766D01*
X107449418Y-86753766D01*
X107442596Y-86749731D01*
X107434985Y-86747520D01*
X107434983Y-86747519D01*
X107344250Y-86721159D01*
X107286466Y-86704371D01*
X107280059Y-86703867D01*
X107280055Y-86703866D01*
X107252444Y-86701693D01*
X107252438Y-86701693D01*
X107249989Y-86701500D01*
X107000152Y-86701500D01*
X106750012Y-86701501D01*
X106713534Y-86704371D01*
X106632506Y-86727912D01*
X106561960Y-86748407D01*
X106490963Y-86748204D01*
X106431347Y-86709650D01*
X106402039Y-86644985D01*
X106401497Y-86614240D01*
X106412814Y-86506565D01*
X106413504Y-86500000D01*
X106402585Y-86396109D01*
X106394232Y-86316635D01*
X106394232Y-86316633D01*
X106393542Y-86310072D01*
X106334527Y-86128444D01*
X106239040Y-85963056D01*
X106165863Y-85881785D01*
X106135147Y-85817779D01*
X106133500Y-85797476D01*
X106133500Y-85227885D01*
X108482000Y-85227885D01*
X108486475Y-85243124D01*
X108487865Y-85244329D01*
X108495548Y-85246000D01*
X109567885Y-85246000D01*
X109583124Y-85241525D01*
X109584329Y-85240135D01*
X109586000Y-85232452D01*
X109586000Y-84160116D01*
X109581525Y-84144877D01*
X109580135Y-84143672D01*
X109572452Y-84142001D01*
X108945331Y-84142001D01*
X108938510Y-84142371D01*
X108887648Y-84147895D01*
X108872396Y-84151521D01*
X108751946Y-84196676D01*
X108736351Y-84205214D01*
X108634276Y-84281715D01*
X108621715Y-84294276D01*
X108545214Y-84396351D01*
X108536676Y-84411946D01*
X108491522Y-84532394D01*
X108487895Y-84547649D01*
X108482369Y-84598514D01*
X108482000Y-84605328D01*
X108482000Y-85227885D01*
X106133500Y-85227885D01*
X106133500Y-69702524D01*
X106153502Y-69634403D01*
X106165858Y-69618221D01*
X106239040Y-69536944D01*
X106334527Y-69371556D01*
X106393542Y-69189928D01*
X106407004Y-69061849D01*
X106412814Y-69006565D01*
X106413504Y-69000000D01*
X106393542Y-68810072D01*
X106334527Y-68628444D01*
X106239040Y-68463056D01*
X106182715Y-68400500D01*
X106115675Y-68326045D01*
X106115674Y-68326044D01*
X106111253Y-68321134D01*
X105956752Y-68208882D01*
X105950724Y-68206198D01*
X105950722Y-68206197D01*
X105788319Y-68133891D01*
X105788318Y-68133891D01*
X105782288Y-68131206D01*
X105688888Y-68111353D01*
X105601944Y-68092872D01*
X105601939Y-68092872D01*
X105595487Y-68091500D01*
X105404513Y-68091500D01*
X105398061Y-68092872D01*
X105398056Y-68092872D01*
X105311112Y-68111353D01*
X105217712Y-68131206D01*
X105211682Y-68133891D01*
X105211681Y-68133891D01*
X105049278Y-68206197D01*
X105049276Y-68206198D01*
X105043248Y-68208882D01*
X104888747Y-68321134D01*
X104884326Y-68326044D01*
X104884325Y-68326045D01*
X104817286Y-68400500D01*
X104760960Y-68463056D01*
X104665473Y-68628444D01*
X104606458Y-68810072D01*
X104605769Y-68816631D01*
X104605768Y-68816634D01*
X104587658Y-68988942D01*
X104560645Y-69054598D01*
X104503361Y-69094573D01*
X104567012Y-69123643D01*
X104605396Y-69183369D01*
X104606034Y-69185894D01*
X104606458Y-69189928D01*
X104665473Y-69371556D01*
X104760960Y-69536944D01*
X104834137Y-69618215D01*
X104864853Y-69682221D01*
X104866500Y-69702524D01*
X104866500Y-85797476D01*
X104846498Y-85865597D01*
X104834142Y-85881779D01*
X104760960Y-85963056D01*
X104665473Y-86128444D01*
X104606458Y-86310072D01*
X104605769Y-86316631D01*
X104605768Y-86316634D01*
X104587658Y-86488942D01*
X104560645Y-86554598D01*
X104503361Y-86594573D01*
X104567012Y-86623643D01*
X104605396Y-86683369D01*
X104606034Y-86685894D01*
X104606458Y-86689928D01*
X104665473Y-86871556D01*
X104760960Y-87036944D01*
X104888747Y-87178866D01*
X104977755Y-87243534D01*
X105027961Y-87280011D01*
X105043248Y-87291118D01*
X105049276Y-87293802D01*
X105049278Y-87293803D01*
X105211681Y-87366109D01*
X105217712Y-87368794D01*
X105311112Y-87388647D01*
X105398056Y-87407128D01*
X105398061Y-87407128D01*
X105404513Y-87408500D01*
X105595487Y-87408500D01*
X105601939Y-87407128D01*
X105601944Y-87407128D01*
X105688888Y-87388647D01*
X105782288Y-87368794D01*
X105788319Y-87366109D01*
X105950722Y-87293803D01*
X105950724Y-87293802D01*
X105956752Y-87291118D01*
X105971438Y-87280448D01*
X106038305Y-87256589D01*
X106107457Y-87272668D01*
X106156938Y-87323582D01*
X106171500Y-87382383D01*
X106171501Y-87679988D01*
X106174371Y-87716466D01*
X106176168Y-87722650D01*
X106217124Y-87863621D01*
X106219731Y-87872596D01*
X106223767Y-87879421D01*
X106223769Y-87879425D01*
X106251231Y-87925861D01*
X106268691Y-87994677D01*
X106251231Y-88054139D01*
X106223769Y-88100575D01*
X106223767Y-88100579D01*
X106219731Y-88107404D01*
X106174371Y-88263534D01*
X106171500Y-88300011D01*
X106171501Y-88699988D01*
X106174371Y-88736466D01*
X106219731Y-88892596D01*
X106223766Y-88899418D01*
X106223766Y-88899419D01*
X106298460Y-89025720D01*
X106302494Y-89032541D01*
X106417459Y-89147506D01*
X106557404Y-89230269D01*
X106565015Y-89232480D01*
X106565017Y-89232481D01*
X106655750Y-89258841D01*
X106713534Y-89275629D01*
X106719941Y-89276133D01*
X106719945Y-89276134D01*
X106747556Y-89278307D01*
X106747562Y-89278307D01*
X106750011Y-89278500D01*
X106999848Y-89278500D01*
X107249988Y-89278499D01*
X107286466Y-89275629D01*
X107383270Y-89247505D01*
X107434983Y-89232481D01*
X107434985Y-89232480D01*
X107442596Y-89230269D01*
X107576555Y-89151046D01*
X107640694Y-89133500D01*
X120921233Y-89133500D01*
X120932416Y-89134027D01*
X120939909Y-89135702D01*
X120947835Y-89135453D01*
X120947836Y-89135453D01*
X121007986Y-89133562D01*
X121011945Y-89133500D01*
X121039856Y-89133500D01*
X121043791Y-89133003D01*
X121043856Y-89132995D01*
X121055693Y-89132062D01*
X121087951Y-89131048D01*
X121091970Y-89130922D01*
X121099889Y-89130673D01*
X121119343Y-89125021D01*
X121138700Y-89121013D01*
X121150930Y-89119468D01*
X121150931Y-89119468D01*
X121158797Y-89118474D01*
X121166168Y-89115555D01*
X121166170Y-89115555D01*
X121199912Y-89102196D01*
X121211142Y-89098351D01*
X121245983Y-89088229D01*
X121245984Y-89088229D01*
X121253593Y-89086018D01*
X121260412Y-89081985D01*
X121260417Y-89081983D01*
X121271028Y-89075707D01*
X121288776Y-89067012D01*
X121307617Y-89059552D01*
X121343387Y-89033564D01*
X121353307Y-89027048D01*
X121384535Y-89008580D01*
X121384538Y-89008578D01*
X121391362Y-89004542D01*
X121405683Y-88990221D01*
X121420717Y-88977380D01*
X121430694Y-88970131D01*
X121437107Y-88965472D01*
X121465298Y-88931395D01*
X121473288Y-88922616D01*
X125392247Y-85003657D01*
X125400537Y-84996113D01*
X125407018Y-84992000D01*
X125453659Y-84942332D01*
X125456413Y-84939491D01*
X125476134Y-84919770D01*
X125478612Y-84916575D01*
X125486318Y-84907553D01*
X125511158Y-84881101D01*
X125516586Y-84875321D01*
X125522732Y-84864142D01*
X125526346Y-84857568D01*
X125537199Y-84841045D01*
X125544753Y-84831306D01*
X125549613Y-84825041D01*
X125567176Y-84784457D01*
X125572383Y-84773827D01*
X125593695Y-84735060D01*
X125595666Y-84727383D01*
X125595668Y-84727378D01*
X125598732Y-84715442D01*
X125605138Y-84696730D01*
X125610033Y-84685419D01*
X125613181Y-84678145D01*
X125614421Y-84670317D01*
X125614423Y-84670310D01*
X125620099Y-84634476D01*
X125622505Y-84622856D01*
X125631528Y-84587711D01*
X125631528Y-84587710D01*
X125633500Y-84580030D01*
X125633500Y-84559776D01*
X125635051Y-84540065D01*
X125636980Y-84527886D01*
X125638220Y-84520057D01*
X125634059Y-84476038D01*
X125633500Y-84464181D01*
X125633500Y-81802063D01*
X125653502Y-81733942D01*
X125667643Y-81715818D01*
X125691587Y-81690320D01*
X125695406Y-81683374D01*
X125695408Y-81683371D01*
X125701349Y-81672565D01*
X125712200Y-81656046D01*
X125719759Y-81646300D01*
X125724615Y-81640040D01*
X125727760Y-81632771D01*
X125727763Y-81632767D01*
X125742175Y-81599462D01*
X125747392Y-81588812D01*
X125768696Y-81550059D01*
X125773734Y-81530436D01*
X125780138Y-81511733D01*
X125785034Y-81500419D01*
X125785034Y-81500418D01*
X125788182Y-81493144D01*
X125789421Y-81485321D01*
X125789424Y-81485311D01*
X125795100Y-81449475D01*
X125797506Y-81437855D01*
X125806529Y-81402710D01*
X125806529Y-81402709D01*
X125808501Y-81395029D01*
X125808501Y-81374775D01*
X125810052Y-81355064D01*
X125811981Y-81342885D01*
X125813221Y-81335056D01*
X125809060Y-81291037D01*
X125808501Y-81279180D01*
X125808501Y-73357377D01*
X125828503Y-73289256D01*
X125882159Y-73242763D01*
X125952433Y-73232659D01*
X125979450Y-73239667D01*
X126155001Y-73306703D01*
X126164899Y-73309579D01*
X126268250Y-73330606D01*
X126282299Y-73329410D01*
X126286000Y-73319065D01*
X126286000Y-70683102D01*
X126282082Y-70669758D01*
X126267806Y-70667771D01*
X126229324Y-70673660D01*
X126219288Y-70676051D01*
X126016868Y-70742212D01*
X126007364Y-70746207D01*
X125992682Y-70753850D01*
X125923023Y-70767563D01*
X125857007Y-70741438D01*
X125815596Y-70683770D01*
X125808501Y-70642087D01*
X125808501Y-68357377D01*
X125828503Y-68289256D01*
X125882159Y-68242763D01*
X125952433Y-68232659D01*
X125979450Y-68239667D01*
X126155001Y-68306703D01*
X126164899Y-68309579D01*
X126268250Y-68330606D01*
X126282299Y-68329410D01*
X126286000Y-68319065D01*
X126286000Y-65683102D01*
X126282082Y-65669758D01*
X126267806Y-65667771D01*
X126229324Y-65673660D01*
X126219288Y-65676051D01*
X126016868Y-65742212D01*
X126007359Y-65746209D01*
X125818463Y-65844542D01*
X125809738Y-65850036D01*
X125639433Y-65977905D01*
X125631726Y-65984748D01*
X125554478Y-66065584D01*
X125492954Y-66101014D01*
X125422042Y-66097557D01*
X125364255Y-66056311D01*
X125345402Y-66022763D01*
X125303767Y-65911703D01*
X125300615Y-65903295D01*
X125213261Y-65786739D01*
X125096705Y-65699385D01*
X124960316Y-65648255D01*
X124898134Y-65641500D01*
X124759500Y-65641500D01*
X124691379Y-65621498D01*
X124644886Y-65567842D01*
X124633500Y-65515500D01*
X124633500Y-65458768D01*
X124634027Y-65447585D01*
X124635702Y-65440092D01*
X124635376Y-65429701D01*
X124633562Y-65372002D01*
X124633500Y-65368044D01*
X124633500Y-65340144D01*
X124632996Y-65336153D01*
X124632063Y-65324311D01*
X124631620Y-65310191D01*
X124630674Y-65280111D01*
X124628080Y-65271181D01*
X124625021Y-65260652D01*
X124621012Y-65241293D01*
X124620846Y-65239983D01*
X124618474Y-65221203D01*
X124615558Y-65213837D01*
X124615556Y-65213831D01*
X124602200Y-65180098D01*
X124598355Y-65168868D01*
X124588230Y-65134017D01*
X124588230Y-65134016D01*
X124586019Y-65126407D01*
X124575705Y-65108966D01*
X124567008Y-65091213D01*
X124562472Y-65079758D01*
X124559552Y-65072383D01*
X124533563Y-65036612D01*
X124527047Y-65026692D01*
X124517194Y-65010031D01*
X124504542Y-64988638D01*
X124490221Y-64974317D01*
X124477380Y-64959283D01*
X124470131Y-64949306D01*
X124465472Y-64942893D01*
X124431395Y-64914702D01*
X124422616Y-64906712D01*
X124212739Y-64696835D01*
X124178713Y-64634523D01*
X124183778Y-64563708D01*
X124226325Y-64506872D01*
X124292845Y-64482061D01*
X124350052Y-64491331D01*
X124483128Y-64546453D01*
X124495819Y-64551710D01*
X124582149Y-64572436D01*
X124739954Y-64610322D01*
X124739960Y-64610323D01*
X124744767Y-64611477D01*
X125000000Y-64631564D01*
X125255233Y-64611477D01*
X125260040Y-64610323D01*
X125260046Y-64610322D01*
X125417851Y-64572436D01*
X125504181Y-64551710D01*
X125508754Y-64549816D01*
X125736141Y-64455629D01*
X125736145Y-64455627D01*
X125740715Y-64453734D01*
X125959009Y-64319963D01*
X125962769Y-64316751D01*
X125962774Y-64316748D01*
X126149928Y-64156903D01*
X126153690Y-64153690D01*
X126234004Y-64059654D01*
X126316748Y-63962774D01*
X126316751Y-63962769D01*
X126319963Y-63959009D01*
X126453734Y-63740715D01*
X126462093Y-63720536D01*
X126549816Y-63508754D01*
X126549818Y-63508749D01*
X126551710Y-63504181D01*
X126585848Y-63361986D01*
X126610322Y-63260046D01*
X126610323Y-63260040D01*
X126611477Y-63255233D01*
X126631564Y-63000000D01*
X126611477Y-62744767D01*
X126609155Y-62735092D01*
X126563318Y-62544171D01*
X126551710Y-62495819D01*
X126549816Y-62491246D01*
X126455629Y-62263859D01*
X126455627Y-62263855D01*
X126453734Y-62259285D01*
X126319963Y-62040991D01*
X126316751Y-62037231D01*
X126316748Y-62037226D01*
X126156903Y-61850072D01*
X126153690Y-61846310D01*
X126130438Y-61826451D01*
X125962774Y-61683252D01*
X125962769Y-61683249D01*
X125959009Y-61680037D01*
X125740715Y-61546266D01*
X125736145Y-61544373D01*
X125736141Y-61544371D01*
X125508754Y-61450184D01*
X125508752Y-61450183D01*
X125504181Y-61448290D01*
X125398378Y-61422889D01*
X125260046Y-61389678D01*
X125260040Y-61389677D01*
X125255233Y-61388523D01*
X125000000Y-61368436D01*
X124744767Y-61388523D01*
X124739960Y-61389677D01*
X124739954Y-61389678D01*
X124601622Y-61422889D01*
X124495819Y-61448290D01*
X124491248Y-61450183D01*
X124491246Y-61450184D01*
X124263859Y-61544371D01*
X124263855Y-61544373D01*
X124259285Y-61546266D01*
X124040991Y-61680037D01*
X124037231Y-61683249D01*
X124037226Y-61683252D01*
X123869562Y-61826451D01*
X123846310Y-61846310D01*
X123843097Y-61850072D01*
X123683252Y-62037226D01*
X123683249Y-62037231D01*
X123680037Y-62040991D01*
X123546266Y-62259285D01*
X123544373Y-62263855D01*
X123544371Y-62263859D01*
X123450184Y-62491246D01*
X123448290Y-62495819D01*
X123436682Y-62544171D01*
X123390846Y-62735092D01*
X123388523Y-62744767D01*
X123368938Y-62993617D01*
X123368436Y-63000000D01*
X123388523Y-63255233D01*
X123389677Y-63260040D01*
X123389678Y-63260046D01*
X123414152Y-63361986D01*
X123448290Y-63504181D01*
X123508669Y-63649949D01*
X123516258Y-63720536D01*
X123484479Y-63784023D01*
X123423421Y-63820251D01*
X123352470Y-63817717D01*
X123303165Y-63787260D01*
X121515405Y-61999500D01*
X121481379Y-61937188D01*
X121478500Y-61910405D01*
X121478500Y-60601866D01*
X121471745Y-60539684D01*
X121420615Y-60403295D01*
X121333261Y-60286739D01*
X121216705Y-60199385D01*
X121080316Y-60148255D01*
X121018134Y-60141500D01*
X119221866Y-60141500D01*
X119159684Y-60148255D01*
X119023295Y-60199385D01*
X118906739Y-60286739D01*
X118819385Y-60403295D01*
X118816233Y-60411703D01*
X118774919Y-60521907D01*
X118732277Y-60578671D01*
X118665716Y-60603371D01*
X118596367Y-60588163D01*
X118563743Y-60562476D01*
X118513151Y-60506875D01*
X118513142Y-60506866D01*
X118509670Y-60503051D01*
X118505619Y-60499852D01*
X118505615Y-60499848D01*
X118338414Y-60367800D01*
X118338410Y-60367798D01*
X118334359Y-60364598D01*
X118138789Y-60256638D01*
X118133920Y-60254914D01*
X118133916Y-60254912D01*
X117933087Y-60183795D01*
X117933083Y-60183794D01*
X117928212Y-60182069D01*
X117923119Y-60181162D01*
X117923116Y-60181161D01*
X117713373Y-60143800D01*
X117713367Y-60143799D01*
X117708284Y-60142894D01*
X117634452Y-60141992D01*
X117490081Y-60140228D01*
X117490079Y-60140228D01*
X117484911Y-60140165D01*
X117264091Y-60173955D01*
X117051756Y-60243357D01*
X116853607Y-60346507D01*
X116849474Y-60349610D01*
X116849471Y-60349612D01*
X116679100Y-60477530D01*
X116674965Y-60480635D01*
X116635525Y-60521907D01*
X116581280Y-60578671D01*
X116520629Y-60642138D01*
X116413201Y-60799621D01*
X116358293Y-60844621D01*
X116287768Y-60852792D01*
X116224021Y-60821538D01*
X116203324Y-60797054D01*
X116122822Y-60672617D01*
X116122820Y-60672614D01*
X116120014Y-60668277D01*
X115969670Y-60503051D01*
X115965619Y-60499852D01*
X115965615Y-60499848D01*
X115798414Y-60367800D01*
X115798410Y-60367798D01*
X115794359Y-60364598D01*
X115598789Y-60256638D01*
X115593920Y-60254914D01*
X115593916Y-60254912D01*
X115393087Y-60183795D01*
X115393083Y-60183794D01*
X115388212Y-60182069D01*
X115383119Y-60181162D01*
X115383116Y-60181161D01*
X115173373Y-60143800D01*
X115173367Y-60143799D01*
X115168284Y-60142894D01*
X115094452Y-60141992D01*
X114950081Y-60140228D01*
X114950079Y-60140228D01*
X114944911Y-60140165D01*
X114724091Y-60173955D01*
X114511756Y-60243357D01*
X114313607Y-60346507D01*
X114309474Y-60349610D01*
X114309471Y-60349612D01*
X114139100Y-60477530D01*
X114134965Y-60480635D01*
X114095525Y-60521907D01*
X114041280Y-60578671D01*
X113980629Y-60642138D01*
X113873201Y-60799621D01*
X113818293Y-60844621D01*
X113747768Y-60852792D01*
X113684021Y-60821538D01*
X113663324Y-60797054D01*
X113582822Y-60672617D01*
X113582820Y-60672614D01*
X113580014Y-60668277D01*
X113429670Y-60503051D01*
X113425619Y-60499852D01*
X113425615Y-60499848D01*
X113258414Y-60367800D01*
X113258410Y-60367798D01*
X113254359Y-60364598D01*
X113058789Y-60256638D01*
X113053920Y-60254914D01*
X113053916Y-60254912D01*
X112853087Y-60183795D01*
X112853083Y-60183794D01*
X112848212Y-60182069D01*
X112843119Y-60181162D01*
X112843116Y-60181161D01*
X112633373Y-60143800D01*
X112633367Y-60143799D01*
X112628284Y-60142894D01*
X112554452Y-60141992D01*
X112410081Y-60140228D01*
X112410079Y-60140228D01*
X112404911Y-60140165D01*
X112184091Y-60173955D01*
X111971756Y-60243357D01*
X111773607Y-60346507D01*
X111769474Y-60349610D01*
X111769471Y-60349612D01*
X111599100Y-60477530D01*
X111594965Y-60480635D01*
X111555525Y-60521907D01*
X111501280Y-60578671D01*
X111440629Y-60642138D01*
X111333201Y-60799621D01*
X111278293Y-60844621D01*
X111207768Y-60852792D01*
X111144021Y-60821538D01*
X111123324Y-60797054D01*
X111042822Y-60672617D01*
X111042820Y-60672614D01*
X111040014Y-60668277D01*
X110889670Y-60503051D01*
X110885619Y-60499852D01*
X110885615Y-60499848D01*
X110718414Y-60367800D01*
X110718410Y-60367798D01*
X110714359Y-60364598D01*
X110518789Y-60256638D01*
X110513920Y-60254914D01*
X110513916Y-60254912D01*
X110313087Y-60183795D01*
X110313083Y-60183794D01*
X110308212Y-60182069D01*
X110303119Y-60181162D01*
X110303116Y-60181161D01*
X110093373Y-60143800D01*
X110093367Y-60143799D01*
X110088284Y-60142894D01*
X110014452Y-60141992D01*
X109870081Y-60140228D01*
X109870079Y-60140228D01*
X109864911Y-60140165D01*
X109644091Y-60173955D01*
X109431756Y-60243357D01*
X109233607Y-60346507D01*
X109229474Y-60349610D01*
X109229471Y-60349612D01*
X109059100Y-60477530D01*
X109054965Y-60480635D01*
X109015525Y-60521907D01*
X108961280Y-60578671D01*
X108900629Y-60642138D01*
X108793201Y-60799621D01*
X108738293Y-60844621D01*
X108667768Y-60852792D01*
X108604021Y-60821538D01*
X108583324Y-60797054D01*
X108502822Y-60672617D01*
X108502820Y-60672614D01*
X108500014Y-60668277D01*
X108349670Y-60503051D01*
X108345619Y-60499852D01*
X108345615Y-60499848D01*
X108178414Y-60367800D01*
X108178410Y-60367798D01*
X108174359Y-60364598D01*
X107978789Y-60256638D01*
X107973920Y-60254914D01*
X107973916Y-60254912D01*
X107773087Y-60183795D01*
X107773083Y-60183794D01*
X107768212Y-60182069D01*
X107763119Y-60181162D01*
X107763116Y-60181161D01*
X107553373Y-60143800D01*
X107553367Y-60143799D01*
X107548284Y-60142894D01*
X107474452Y-60141992D01*
X107330081Y-60140228D01*
X107330079Y-60140228D01*
X107324911Y-60140165D01*
X107196706Y-60159783D01*
X107109200Y-60173173D01*
X107109197Y-60173174D01*
X107104091Y-60173955D01*
X107099181Y-60175560D01*
X107099172Y-60175562D01*
X107089308Y-60178786D01*
X107018344Y-60180937D01*
X106963912Y-60150872D01*
X106951101Y-60138842D01*
X106945322Y-60133415D01*
X106938376Y-60129596D01*
X106938373Y-60129594D01*
X106927567Y-60123653D01*
X106911048Y-60112802D01*
X106910584Y-60112442D01*
X106895042Y-60100387D01*
X106887773Y-60097242D01*
X106887769Y-60097239D01*
X106854464Y-60082827D01*
X106843814Y-60077610D01*
X106805061Y-60056306D01*
X106785438Y-60051268D01*
X106766735Y-60044864D01*
X106755421Y-60039968D01*
X106755420Y-60039968D01*
X106748146Y-60036820D01*
X106740323Y-60035581D01*
X106740313Y-60035578D01*
X106704477Y-60029902D01*
X106692857Y-60027496D01*
X106657712Y-60018473D01*
X106657711Y-60018473D01*
X106650031Y-60016501D01*
X106629777Y-60016501D01*
X106610066Y-60014950D01*
X106597887Y-60013021D01*
X106590058Y-60011781D01*
X106560787Y-60014548D01*
X106546040Y-60015942D01*
X106534182Y-60016501D01*
X102929822Y-60016501D01*
X102918639Y-60015974D01*
X102911146Y-60014299D01*
X102903220Y-60014548D01*
X102903219Y-60014548D01*
X102843069Y-60016439D01*
X102839110Y-60016501D01*
X102811199Y-60016501D01*
X102807265Y-60016998D01*
X102807264Y-60016998D01*
X102807199Y-60017006D01*
X102795362Y-60017939D01*
X102763545Y-60018939D01*
X102759084Y-60019079D01*
X102751165Y-60019328D01*
X102733509Y-60024457D01*
X102731713Y-60024979D01*
X102712361Y-60028987D01*
X102705290Y-60029881D01*
X102692258Y-60031527D01*
X102684889Y-60034444D01*
X102684887Y-60034445D01*
X102651152Y-60047801D01*
X102639924Y-60051646D01*
X102597462Y-60063983D01*
X102590640Y-60068017D01*
X102590634Y-60068020D01*
X102580023Y-60074295D01*
X102562273Y-60082991D01*
X102550811Y-60087529D01*
X102550806Y-60087532D01*
X102543438Y-60090449D01*
X102526025Y-60103100D01*
X102507680Y-60116428D01*
X102497762Y-60122944D01*
X102486518Y-60129594D01*
X102459692Y-60145459D01*
X102445368Y-60159783D01*
X102430336Y-60172622D01*
X102413948Y-60184529D01*
X102385767Y-60218594D01*
X102377777Y-60227374D01*
X100842845Y-61762306D01*
X100834559Y-61769846D01*
X100828080Y-61773958D01*
X100822655Y-61779735D01*
X100781455Y-61823609D01*
X100778700Y-61826451D01*
X100758963Y-61846188D01*
X100756483Y-61849385D01*
X100748777Y-61858408D01*
X100726349Y-61882291D01*
X100665136Y-61918256D01*
X100594196Y-61915417D01*
X100536053Y-61874676D01*
X100509165Y-61808968D01*
X100508500Y-61796037D01*
X100508500Y-58634500D01*
X100528502Y-58566379D01*
X100582158Y-58519886D01*
X100634500Y-58508500D01*
X127365500Y-58508500D01*
X127433621Y-58528502D01*
G37*
%TD.AperFunction*%
%TA.AperFunction,Conductor*%
G36*
X119664815Y-65890620D02*
G01*
X119688605Y-65910301D01*
X119697384Y-65918290D01*
X122789595Y-69010501D01*
X122823621Y-69072813D01*
X122826500Y-69099596D01*
X122826500Y-70696587D01*
X122806498Y-70764708D01*
X122791800Y-70782946D01*
X122786739Y-70786739D01*
X122699385Y-70903295D01*
X122648255Y-71039684D01*
X122641500Y-71101866D01*
X122641500Y-72898134D01*
X122648255Y-72960316D01*
X122699385Y-73096705D01*
X122786739Y-73213261D01*
X122903295Y-73300615D01*
X123039684Y-73351745D01*
X123101866Y-73358500D01*
X124415501Y-73358500D01*
X124483622Y-73378502D01*
X124530115Y-73432158D01*
X124541501Y-73484500D01*
X124541501Y-81002936D01*
X124521499Y-81071057D01*
X124507358Y-81089181D01*
X124483414Y-81114679D01*
X124479595Y-81121625D01*
X124479593Y-81121628D01*
X124473652Y-81132434D01*
X124462801Y-81148953D01*
X124450386Y-81164959D01*
X124447241Y-81172228D01*
X124447238Y-81172232D01*
X124432826Y-81205537D01*
X124427609Y-81216187D01*
X124406305Y-81254940D01*
X124404334Y-81262615D01*
X124404334Y-81262616D01*
X124401267Y-81274562D01*
X124394863Y-81293266D01*
X124386819Y-81311855D01*
X124385580Y-81319678D01*
X124385577Y-81319688D01*
X124379901Y-81355524D01*
X124377495Y-81367144D01*
X124366500Y-81409970D01*
X124366500Y-81430224D01*
X124364949Y-81449934D01*
X124361780Y-81469943D01*
X124362526Y-81477835D01*
X124365941Y-81513961D01*
X124366500Y-81525819D01*
X124366500Y-84185405D01*
X124346498Y-84253526D01*
X124329595Y-84274500D01*
X120774500Y-87829595D01*
X120712188Y-87863621D01*
X120685405Y-87866500D01*
X118833594Y-87866500D01*
X118765473Y-87846498D01*
X118718980Y-87792842D01*
X118708876Y-87722568D01*
X118738370Y-87657988D01*
X118744499Y-87651405D01*
X119544549Y-86851355D01*
X119606861Y-86817329D01*
X119658762Y-86816979D01*
X119838597Y-86853567D01*
X119843772Y-86853757D01*
X119843774Y-86853757D01*
X120056673Y-86861564D01*
X120056677Y-86861564D01*
X120061837Y-86861753D01*
X120066957Y-86861097D01*
X120066959Y-86861097D01*
X120278288Y-86834025D01*
X120278289Y-86834025D01*
X120283416Y-86833368D01*
X120298129Y-86828954D01*
X120492429Y-86770661D01*
X120492434Y-86770659D01*
X120497384Y-86769174D01*
X120697994Y-86670896D01*
X120879860Y-86541173D01*
X121038096Y-86383489D01*
X121168453Y-86202077D01*
X121171342Y-86196233D01*
X121265136Y-86006453D01*
X121265137Y-86006451D01*
X121267430Y-86001811D01*
X121332370Y-85788069D01*
X121361529Y-85566590D01*
X121363156Y-85500000D01*
X121344852Y-85277361D01*
X121290431Y-85060702D01*
X121201354Y-84855840D01*
X121127711Y-84742005D01*
X121082822Y-84672617D01*
X121082820Y-84672614D01*
X121080014Y-84668277D01*
X120929670Y-84503051D01*
X120925619Y-84499852D01*
X120925615Y-84499848D01*
X120758414Y-84367800D01*
X120758410Y-84367798D01*
X120754359Y-84364598D01*
X120728533Y-84350341D01*
X120674638Y-84320590D01*
X120558789Y-84256638D01*
X120553920Y-84254914D01*
X120553916Y-84254912D01*
X120353087Y-84183795D01*
X120353083Y-84183794D01*
X120348212Y-84182069D01*
X120343119Y-84181162D01*
X120343116Y-84181161D01*
X120133373Y-84143800D01*
X120133367Y-84143799D01*
X120128284Y-84142894D01*
X120054452Y-84141992D01*
X119910081Y-84140228D01*
X119910079Y-84140228D01*
X119904911Y-84140165D01*
X119684091Y-84173955D01*
X119655785Y-84183207D01*
X119623644Y-84193712D01*
X119552680Y-84195863D01*
X119491818Y-84159307D01*
X119460382Y-84095649D01*
X119458499Y-84073947D01*
X119458499Y-65987704D01*
X119478501Y-65919583D01*
X119532157Y-65873090D01*
X119602431Y-65862986D01*
X119664815Y-65890620D01*
G37*
%TD.AperFunction*%
%TA.AperFunction,Conductor*%
G36*
X116007864Y-65108877D02*
G01*
X116034045Y-65128951D01*
X116789595Y-65884501D01*
X116823621Y-65946813D01*
X116826500Y-65973596D01*
X116826500Y-74485006D01*
X116806498Y-74553127D01*
X116752842Y-74599620D01*
X116682568Y-74609724D01*
X116674303Y-74608253D01*
X116601944Y-74592872D01*
X116601939Y-74592872D01*
X116595487Y-74591500D01*
X116404513Y-74591500D01*
X116398061Y-74592872D01*
X116398056Y-74592872D01*
X116318776Y-74609724D01*
X116217712Y-74631206D01*
X116211682Y-74633891D01*
X116211681Y-74633891D01*
X116049278Y-74706197D01*
X116049276Y-74706198D01*
X116043248Y-74708882D01*
X115888747Y-74821134D01*
X115760960Y-74963056D01*
X115665473Y-75128444D01*
X115606458Y-75310072D01*
X115586496Y-75500000D01*
X115606458Y-75689928D01*
X115608498Y-75696206D01*
X115622986Y-75740796D01*
X115629153Y-75779732D01*
X115629153Y-82534823D01*
X115609151Y-82602944D01*
X115596795Y-82619126D01*
X115523613Y-82700403D01*
X115428126Y-82865791D01*
X115369111Y-83047419D01*
X115349149Y-83237347D01*
X115369111Y-83427275D01*
X115428126Y-83608903D01*
X115431429Y-83614625D01*
X115431430Y-83614626D01*
X115464060Y-83671142D01*
X115523613Y-83774291D01*
X115528031Y-83779198D01*
X115528032Y-83779199D01*
X115634197Y-83897107D01*
X115651400Y-83916213D01*
X115805901Y-84028465D01*
X115811929Y-84031149D01*
X115811931Y-84031150D01*
X115922484Y-84080371D01*
X115980365Y-84106141D01*
X116066535Y-84124457D01*
X116160709Y-84144475D01*
X116160714Y-84144475D01*
X116167166Y-84145847D01*
X116358140Y-84145847D01*
X116364592Y-84144475D01*
X116364597Y-84144475D01*
X116458771Y-84124457D01*
X116544941Y-84106141D01*
X116649252Y-84059699D01*
X116719618Y-84050265D01*
X116783915Y-84080371D01*
X116821729Y-84140460D01*
X116826500Y-84174806D01*
X116826500Y-84221692D01*
X116806498Y-84289813D01*
X116758683Y-84333453D01*
X116733607Y-84346507D01*
X116729474Y-84349610D01*
X116729471Y-84349612D01*
X116568963Y-84470125D01*
X116554965Y-84480635D01*
X116551393Y-84484373D01*
X116413709Y-84628451D01*
X116400629Y-84642138D01*
X116293201Y-84799621D01*
X116238293Y-84844621D01*
X116167768Y-84852792D01*
X116104021Y-84821538D01*
X116083324Y-84797054D01*
X116002822Y-84672617D01*
X116002820Y-84672614D01*
X116000014Y-84668277D01*
X115849670Y-84503051D01*
X115845619Y-84499852D01*
X115845615Y-84499848D01*
X115678414Y-84367800D01*
X115678410Y-84367798D01*
X115674359Y-84364598D01*
X115648533Y-84350341D01*
X115594638Y-84320590D01*
X115478789Y-84256638D01*
X115473920Y-84254914D01*
X115473916Y-84254912D01*
X115273087Y-84183795D01*
X115273083Y-84183794D01*
X115268212Y-84182069D01*
X115263119Y-84181162D01*
X115263116Y-84181161D01*
X115053373Y-84143800D01*
X115053367Y-84143799D01*
X115048284Y-84142894D01*
X114974452Y-84141992D01*
X114830081Y-84140228D01*
X114830079Y-84140228D01*
X114824911Y-84140165D01*
X114604091Y-84173955D01*
X114391756Y-84243357D01*
X114372680Y-84253287D01*
X114303023Y-84267000D01*
X114237007Y-84240875D01*
X114195596Y-84183207D01*
X114188501Y-84141524D01*
X114188501Y-65839593D01*
X114208503Y-65771472D01*
X114225406Y-65750498D01*
X114584549Y-65391355D01*
X114646861Y-65357329D01*
X114698762Y-65356979D01*
X114878597Y-65393567D01*
X114883772Y-65393757D01*
X114883774Y-65393757D01*
X115096673Y-65401564D01*
X115096677Y-65401564D01*
X115101837Y-65401753D01*
X115106957Y-65401097D01*
X115106959Y-65401097D01*
X115318288Y-65374025D01*
X115318289Y-65374025D01*
X115323416Y-65373368D01*
X115328366Y-65371883D01*
X115532429Y-65310661D01*
X115532434Y-65310659D01*
X115537384Y-65309174D01*
X115737994Y-65210896D01*
X115818703Y-65153327D01*
X115871782Y-65115467D01*
X115938855Y-65092193D01*
X116007864Y-65108877D01*
G37*
%TD.AperFunction*%
%TD*%
M02*
