%TF.GenerationSoftware,KiCad,Pcbnew,6.0.11+dfsg-1*%
%TF.CreationDate,2023-02-19T01:13:17+01:00*%
%TF.ProjectId,Controller,436f6e74-726f-46c6-9c65-722e6b696361,rev?*%
%TF.SameCoordinates,Original*%
%TF.FileFunction,Legend,Top*%
%TF.FilePolarity,Positive*%
%FSLAX46Y46*%
G04 Gerber Fmt 4.6, Leading zero omitted, Abs format (unit mm)*
G04 Created by KiCad (PCBNEW 6.0.11+dfsg-1) date 2023-02-19 01:13:17*
%MOMM*%
%LPD*%
G01*
G04 APERTURE LIST*
%ADD10C,0.300000*%
%ADD11C,0.150000*%
%ADD12C,0.200000*%
%ADD13C,0.120000*%
G04 APERTURE END LIST*
D10*
X107880952Y-78654761D02*
X107880952Y-76654761D01*
X108642857Y-76654761D01*
X108833333Y-76750000D01*
X108928571Y-76845238D01*
X109023809Y-77035714D01*
X109023809Y-77321428D01*
X108928571Y-77511904D01*
X108833333Y-77607142D01*
X108642857Y-77702380D01*
X107880952Y-77702380D01*
X109880952Y-78654761D02*
X109880952Y-77321428D01*
X109880952Y-76654761D02*
X109785714Y-76750000D01*
X109880952Y-76845238D01*
X109976190Y-76750000D01*
X109880952Y-76654761D01*
X109880952Y-76845238D01*
X110642857Y-78654761D02*
X111690476Y-77321428D01*
X110642857Y-77321428D02*
X111690476Y-78654761D01*
X113214285Y-78559523D02*
X113023809Y-78654761D01*
X112642857Y-78654761D01*
X112452380Y-78559523D01*
X112357142Y-78369047D01*
X112357142Y-77607142D01*
X112452380Y-77416666D01*
X112642857Y-77321428D01*
X113023809Y-77321428D01*
X113214285Y-77416666D01*
X113309523Y-77607142D01*
X113309523Y-77797619D01*
X112357142Y-77988095D01*
X114452380Y-78654761D02*
X114261904Y-78559523D01*
X114166666Y-78369047D01*
X114166666Y-76654761D01*
X116071428Y-78654761D02*
X116071428Y-76654761D01*
X116071428Y-78559523D02*
X115880952Y-78654761D01*
X115500000Y-78654761D01*
X115309523Y-78559523D01*
X115214285Y-78464285D01*
X115119047Y-78273809D01*
X115119047Y-77702380D01*
X115214285Y-77511904D01*
X115309523Y-77416666D01*
X115500000Y-77321428D01*
X115880952Y-77321428D01*
X116071428Y-77416666D01*
X117785714Y-78559523D02*
X117595238Y-78654761D01*
X117214285Y-78654761D01*
X117023809Y-78559523D01*
X116928571Y-78369047D01*
X116928571Y-77607142D01*
X117023809Y-77416666D01*
X117214285Y-77321428D01*
X117595238Y-77321428D01*
X117785714Y-77416666D01*
X117880952Y-77607142D01*
X117880952Y-77797619D01*
X116928571Y-77988095D01*
X119595238Y-78559523D02*
X119404761Y-78654761D01*
X119023809Y-78654761D01*
X118833333Y-78559523D01*
X118738095Y-78464285D01*
X118642857Y-78273809D01*
X118642857Y-77702380D01*
X118738095Y-77511904D01*
X118833333Y-77416666D01*
X119023809Y-77321428D01*
X119404761Y-77321428D01*
X119595238Y-77416666D01*
X120452380Y-78654761D02*
X120452380Y-76654761D01*
X120642857Y-77892857D02*
X121214285Y-78654761D01*
X121214285Y-77321428D02*
X120452380Y-78083333D01*
D11*
X110071428Y-58928571D02*
X110214285Y-58976190D01*
X110261904Y-59023809D01*
X110309523Y-59119047D01*
X110309523Y-59261904D01*
X110261904Y-59357142D01*
X110214285Y-59404761D01*
X110119047Y-59452380D01*
X109738095Y-59452380D01*
X109738095Y-58452380D01*
X110071428Y-58452380D01*
X110166666Y-58500000D01*
X110214285Y-58547619D01*
X110261904Y-58642857D01*
X110261904Y-58738095D01*
X110214285Y-58833333D01*
X110166666Y-58880952D01*
X110071428Y-58928571D01*
X109738095Y-58928571D01*
X117500000Y-82726190D02*
X117500000Y-83202380D01*
X117166666Y-82202380D02*
X117500000Y-82726190D01*
X117833333Y-82202380D01*
X107809523Y-59357142D02*
X107761904Y-59404761D01*
X107619047Y-59452380D01*
X107523809Y-59452380D01*
X107380952Y-59404761D01*
X107285714Y-59309523D01*
X107238095Y-59214285D01*
X107190476Y-59023809D01*
X107190476Y-58880952D01*
X107238095Y-58690476D01*
X107285714Y-58595238D01*
X107380952Y-58500000D01*
X107523809Y-58452380D01*
X107619047Y-58452380D01*
X107761904Y-58500000D01*
X107809523Y-58547619D01*
X119642857Y-82202380D02*
X119642857Y-82916666D01*
X119595238Y-83059523D01*
X119500000Y-83154761D01*
X119357142Y-83202380D01*
X119261904Y-83202380D01*
X120452380Y-82678571D02*
X120595238Y-82726190D01*
X120642857Y-82773809D01*
X120690476Y-82869047D01*
X120690476Y-83011904D01*
X120642857Y-83107142D01*
X120595238Y-83154761D01*
X120500000Y-83202380D01*
X120119047Y-83202380D01*
X120119047Y-82202380D01*
X120452380Y-82202380D01*
X120547619Y-82250000D01*
X120595238Y-82297619D01*
X120642857Y-82392857D01*
X120642857Y-82488095D01*
X120595238Y-82583333D01*
X120547619Y-82630952D01*
X120452380Y-82678571D01*
X120119047Y-82678571D01*
X106738095Y-66250000D02*
X106642857Y-66202380D01*
X106500000Y-66202380D01*
X106357142Y-66250000D01*
X106261904Y-66345238D01*
X106214285Y-66440476D01*
X106166666Y-66630952D01*
X106166666Y-66773809D01*
X106214285Y-66964285D01*
X106261904Y-67059523D01*
X106357142Y-67154761D01*
X106500000Y-67202380D01*
X106595238Y-67202380D01*
X106738095Y-67154761D01*
X106785714Y-67107142D01*
X106785714Y-66773809D01*
X106595238Y-66773809D01*
X107214285Y-67202380D02*
X107214285Y-66202380D01*
X107785714Y-67202380D01*
X107785714Y-66202380D01*
X108261904Y-67202380D02*
X108261904Y-66202380D01*
X108500000Y-66202380D01*
X108642857Y-66250000D01*
X108738095Y-66345238D01*
X108785714Y-66440476D01*
X108833333Y-66630952D01*
X108833333Y-66773809D01*
X108785714Y-66964285D01*
X108738095Y-67059523D01*
X108642857Y-67154761D01*
X108500000Y-67202380D01*
X108261904Y-67202380D01*
X118738095Y-66916666D02*
X119214285Y-66916666D01*
X118642857Y-67202380D02*
X118976190Y-66202380D01*
X119309523Y-67202380D01*
X119642857Y-66202380D02*
X119642857Y-67011904D01*
X119690476Y-67107142D01*
X119738095Y-67154761D01*
X119833333Y-67202380D01*
X120023809Y-67202380D01*
X120119047Y-67154761D01*
X120166666Y-67107142D01*
X120214285Y-67011904D01*
X120214285Y-66202380D01*
X120690476Y-67202380D02*
X120690476Y-66202380D01*
X120928571Y-66202380D01*
X121071428Y-66250000D01*
X121166666Y-66345238D01*
X121214285Y-66440476D01*
X121261904Y-66630952D01*
X121261904Y-66773809D01*
X121214285Y-66964285D01*
X121166666Y-67059523D01*
X121071428Y-67154761D01*
X120928571Y-67202380D01*
X120690476Y-67202380D01*
X114666666Y-82202380D02*
X115333333Y-83202380D01*
X115333333Y-82202380D02*
X114666666Y-83202380D01*
X100833333Y-73154761D02*
X100976190Y-73202380D01*
X101214285Y-73202380D01*
X101309523Y-73154761D01*
X101357142Y-73107142D01*
X101404761Y-73011904D01*
X101404761Y-72916666D01*
X101357142Y-72821428D01*
X101309523Y-72773809D01*
X101214285Y-72726190D01*
X101023809Y-72678571D01*
X100928571Y-72630952D01*
X100880952Y-72583333D01*
X100833333Y-72488095D01*
X100833333Y-72392857D01*
X100880952Y-72297619D01*
X100928571Y-72250000D01*
X101023809Y-72202380D01*
X101261904Y-72202380D01*
X101404761Y-72250000D01*
X101833333Y-72678571D02*
X102166666Y-72678571D01*
X102309523Y-73202380D02*
X101833333Y-73202380D01*
X101833333Y-72202380D01*
X102309523Y-72202380D01*
X103214285Y-73202380D02*
X102738095Y-73202380D01*
X102738095Y-72202380D01*
X104261904Y-72154761D02*
X103404761Y-73440476D01*
X105166666Y-73202380D02*
X104833333Y-72726190D01*
X104595238Y-73202380D02*
X104595238Y-72202380D01*
X104976190Y-72202380D01*
X105071428Y-72250000D01*
X105119047Y-72297619D01*
X105166666Y-72392857D01*
X105166666Y-72535714D01*
X105119047Y-72630952D01*
X105071428Y-72678571D01*
X104976190Y-72726190D01*
X104595238Y-72726190D01*
X112785714Y-67202380D02*
X112214285Y-67202380D01*
X112500000Y-67202380D02*
X112500000Y-66202380D01*
X112404761Y-66345238D01*
X112309523Y-66440476D01*
X112214285Y-66488095D01*
X109714285Y-66297619D02*
X109761904Y-66250000D01*
X109857142Y-66202380D01*
X110095238Y-66202380D01*
X110190476Y-66250000D01*
X110238095Y-66297619D01*
X110285714Y-66392857D01*
X110285714Y-66488095D01*
X110238095Y-66630952D01*
X109666666Y-67202380D01*
X110285714Y-67202380D01*
X125738095Y-69000000D02*
X125642857Y-68952380D01*
X125500000Y-68952380D01*
X125357142Y-69000000D01*
X125261904Y-69095238D01*
X125214285Y-69190476D01*
X125166666Y-69380952D01*
X125166666Y-69523809D01*
X125214285Y-69714285D01*
X125261904Y-69809523D01*
X125357142Y-69904761D01*
X125500000Y-69952380D01*
X125595238Y-69952380D01*
X125738095Y-69904761D01*
X125785714Y-69857142D01*
X125785714Y-69523809D01*
X125595238Y-69523809D01*
X126214285Y-69952380D02*
X126214285Y-68952380D01*
X126785714Y-69952380D01*
X126785714Y-68952380D01*
X127261904Y-69952380D02*
X127261904Y-68952380D01*
X127500000Y-68952380D01*
X127642857Y-69000000D01*
X127738095Y-69095238D01*
X127785714Y-69190476D01*
X127833333Y-69380952D01*
X127833333Y-69523809D01*
X127785714Y-69714285D01*
X127738095Y-69809523D01*
X127642857Y-69904761D01*
X127500000Y-69952380D01*
X127261904Y-69952380D01*
X100976190Y-90654761D02*
X101119047Y-90702380D01*
X101357142Y-90702380D01*
X101452380Y-90654761D01*
X101500000Y-90607142D01*
X101547619Y-90511904D01*
X101547619Y-90416666D01*
X101500000Y-90321428D01*
X101452380Y-90273809D01*
X101357142Y-90226190D01*
X101166666Y-90178571D01*
X101071428Y-90130952D01*
X101023809Y-90083333D01*
X100976190Y-89988095D01*
X100976190Y-89892857D01*
X101023809Y-89797619D01*
X101071428Y-89750000D01*
X101166666Y-89702380D01*
X101404761Y-89702380D01*
X101547619Y-89750000D01*
X101833333Y-89702380D02*
X102404761Y-89702380D01*
X102119047Y-90702380D02*
X102119047Y-89702380D01*
X102690476Y-90416666D02*
X103166666Y-90416666D01*
X102595238Y-90702380D02*
X102928571Y-89702380D01*
X103261904Y-90702380D01*
X104309523Y-89654761D02*
X103452380Y-90940476D01*
X105119047Y-90702380D02*
X104642857Y-90702380D01*
X104642857Y-89702380D01*
X112261904Y-59166666D02*
X112738095Y-59166666D01*
X112166666Y-59452380D02*
X112500000Y-58452380D01*
X112833333Y-59452380D01*
X122416666Y-68952380D02*
X122750000Y-69952380D01*
X123083333Y-68952380D01*
X123988095Y-69857142D02*
X123940476Y-69904761D01*
X123797619Y-69952380D01*
X123702380Y-69952380D01*
X123559523Y-69904761D01*
X123464285Y-69809523D01*
X123416666Y-69714285D01*
X123369047Y-69523809D01*
X123369047Y-69380952D01*
X123416666Y-69190476D01*
X123464285Y-69095238D01*
X123559523Y-69000000D01*
X123702380Y-68952380D01*
X123797619Y-68952380D01*
X123940476Y-69000000D01*
X123988095Y-69047619D01*
X124988095Y-69857142D02*
X124940476Y-69904761D01*
X124797619Y-69952380D01*
X124702380Y-69952380D01*
X124559523Y-69904761D01*
X124464285Y-69809523D01*
X124416666Y-69714285D01*
X124369047Y-69523809D01*
X124369047Y-69380952D01*
X124416666Y-69190476D01*
X124464285Y-69095238D01*
X124559523Y-69000000D01*
X124702380Y-68952380D01*
X124797619Y-68952380D01*
X124940476Y-69000000D01*
X124988095Y-69047619D01*
X111166666Y-82202380D02*
X111500000Y-83202380D01*
X111833333Y-82202380D01*
X112738095Y-83107142D02*
X112690476Y-83154761D01*
X112547619Y-83202380D01*
X112452380Y-83202380D01*
X112309523Y-83154761D01*
X112214285Y-83059523D01*
X112166666Y-82964285D01*
X112119047Y-82773809D01*
X112119047Y-82630952D01*
X112166666Y-82440476D01*
X112214285Y-82345238D01*
X112309523Y-82250000D01*
X112452380Y-82202380D01*
X112547619Y-82202380D01*
X112690476Y-82250000D01*
X112738095Y-82297619D01*
X113738095Y-83107142D02*
X113690476Y-83154761D01*
X113547619Y-83202380D01*
X113452380Y-83202380D01*
X113309523Y-83154761D01*
X113214285Y-83059523D01*
X113166666Y-82964285D01*
X113119047Y-82773809D01*
X113119047Y-82630952D01*
X113166666Y-82440476D01*
X113214285Y-82345238D01*
X113309523Y-82250000D01*
X113452380Y-82202380D01*
X113547619Y-82202380D01*
X113690476Y-82250000D01*
X113738095Y-82297619D01*
X125738095Y-74000000D02*
X125642857Y-73952380D01*
X125500000Y-73952380D01*
X125357142Y-74000000D01*
X125261904Y-74095238D01*
X125214285Y-74190476D01*
X125166666Y-74380952D01*
X125166666Y-74523809D01*
X125214285Y-74714285D01*
X125261904Y-74809523D01*
X125357142Y-74904761D01*
X125500000Y-74952380D01*
X125595238Y-74952380D01*
X125738095Y-74904761D01*
X125785714Y-74857142D01*
X125785714Y-74523809D01*
X125595238Y-74523809D01*
X126214285Y-74952380D02*
X126214285Y-73952380D01*
X126785714Y-74952380D01*
X126785714Y-73952380D01*
X127261904Y-74952380D02*
X127261904Y-73952380D01*
X127500000Y-73952380D01*
X127642857Y-74000000D01*
X127738095Y-74095238D01*
X127785714Y-74190476D01*
X127833333Y-74380952D01*
X127833333Y-74523809D01*
X127785714Y-74714285D01*
X127738095Y-74809523D01*
X127642857Y-74904761D01*
X127500000Y-74952380D01*
X127261904Y-74952380D01*
X118666666Y-58452380D02*
X119000000Y-59452380D01*
X119333333Y-58452380D01*
X120238095Y-59357142D02*
X120190476Y-59404761D01*
X120047619Y-59452380D01*
X119952380Y-59452380D01*
X119809523Y-59404761D01*
X119714285Y-59309523D01*
X119666666Y-59214285D01*
X119619047Y-59023809D01*
X119619047Y-58880952D01*
X119666666Y-58690476D01*
X119714285Y-58595238D01*
X119809523Y-58500000D01*
X119952380Y-58452380D01*
X120047619Y-58452380D01*
X120190476Y-58500000D01*
X120238095Y-58547619D01*
X121238095Y-59357142D02*
X121190476Y-59404761D01*
X121047619Y-59452380D01*
X120952380Y-59452380D01*
X120809523Y-59404761D01*
X120714285Y-59309523D01*
X120666666Y-59214285D01*
X120619047Y-59023809D01*
X120619047Y-58880952D01*
X120666666Y-58690476D01*
X120714285Y-58595238D01*
X120809523Y-58500000D01*
X120952380Y-58452380D01*
X121047619Y-58452380D01*
X121190476Y-58500000D01*
X121238095Y-58547619D01*
D12*
X109523809Y-80357142D02*
X109476190Y-80404761D01*
X109333333Y-80452380D01*
X109238095Y-80452380D01*
X109095238Y-80404761D01*
X109000000Y-80309523D01*
X108952380Y-80214285D01*
X108904761Y-80023809D01*
X108904761Y-79880952D01*
X108952380Y-79690476D01*
X109000000Y-79595238D01*
X109095238Y-79500000D01*
X109238095Y-79452380D01*
X109333333Y-79452380D01*
X109476190Y-79500000D01*
X109523809Y-79547619D01*
X110095238Y-80452380D02*
X110000000Y-80404761D01*
X109952380Y-80357142D01*
X109904761Y-80261904D01*
X109904761Y-79976190D01*
X109952380Y-79880952D01*
X110000000Y-79833333D01*
X110095238Y-79785714D01*
X110238095Y-79785714D01*
X110333333Y-79833333D01*
X110380952Y-79880952D01*
X110428571Y-79976190D01*
X110428571Y-80261904D01*
X110380952Y-80357142D01*
X110333333Y-80404761D01*
X110238095Y-80452380D01*
X110095238Y-80452380D01*
X110857142Y-79785714D02*
X110857142Y-80452380D01*
X110857142Y-79880952D02*
X110904761Y-79833333D01*
X111000000Y-79785714D01*
X111142857Y-79785714D01*
X111238095Y-79833333D01*
X111285714Y-79928571D01*
X111285714Y-80452380D01*
X111619047Y-79785714D02*
X112000000Y-79785714D01*
X111761904Y-79452380D02*
X111761904Y-80309523D01*
X111809523Y-80404761D01*
X111904761Y-80452380D01*
X112000000Y-80452380D01*
X112333333Y-80452380D02*
X112333333Y-79785714D01*
X112333333Y-79976190D02*
X112380952Y-79880952D01*
X112428571Y-79833333D01*
X112523809Y-79785714D01*
X112619047Y-79785714D01*
X113095238Y-80452380D02*
X113000000Y-80404761D01*
X112952380Y-80357142D01*
X112904761Y-80261904D01*
X112904761Y-79976190D01*
X112952380Y-79880952D01*
X113000000Y-79833333D01*
X113095238Y-79785714D01*
X113238095Y-79785714D01*
X113333333Y-79833333D01*
X113380952Y-79880952D01*
X113428571Y-79976190D01*
X113428571Y-80261904D01*
X113380952Y-80357142D01*
X113333333Y-80404761D01*
X113238095Y-80452380D01*
X113095238Y-80452380D01*
X114000000Y-80452380D02*
X113904761Y-80404761D01*
X113857142Y-80309523D01*
X113857142Y-79452380D01*
X114523809Y-80452380D02*
X114428571Y-80404761D01*
X114380952Y-80309523D01*
X114380952Y-79452380D01*
X115285714Y-80404761D02*
X115190476Y-80452380D01*
X115000000Y-80452380D01*
X114904761Y-80404761D01*
X114857142Y-80309523D01*
X114857142Y-79928571D01*
X114904761Y-79833333D01*
X115000000Y-79785714D01*
X115190476Y-79785714D01*
X115285714Y-79833333D01*
X115333333Y-79928571D01*
X115333333Y-80023809D01*
X114857142Y-80119047D01*
X115761904Y-80452380D02*
X115761904Y-79785714D01*
X115761904Y-79976190D02*
X115809523Y-79880952D01*
X115857142Y-79833333D01*
X115952380Y-79785714D01*
X116047619Y-79785714D01*
X117714285Y-80452380D02*
X117380952Y-79976190D01*
X117142857Y-80452380D02*
X117142857Y-79452380D01*
X117523809Y-79452380D01*
X117619047Y-79500000D01*
X117666666Y-79547619D01*
X117714285Y-79642857D01*
X117714285Y-79785714D01*
X117666666Y-79880952D01*
X117619047Y-79928571D01*
X117523809Y-79976190D01*
X117142857Y-79976190D01*
X118523809Y-80404761D02*
X118428571Y-80452380D01*
X118238095Y-80452380D01*
X118142857Y-80404761D01*
X118095238Y-80309523D01*
X118095238Y-79928571D01*
X118142857Y-79833333D01*
X118238095Y-79785714D01*
X118428571Y-79785714D01*
X118523809Y-79833333D01*
X118571428Y-79928571D01*
X118571428Y-80023809D01*
X118095238Y-80119047D01*
X118904761Y-79785714D02*
X119142857Y-80452380D01*
X119380952Y-79785714D01*
X120857142Y-79928571D02*
X121000000Y-79976190D01*
X121047619Y-80023809D01*
X121095238Y-80119047D01*
X121095238Y-80261904D01*
X121047619Y-80357142D01*
X121000000Y-80404761D01*
X120904761Y-80452380D01*
X120523809Y-80452380D01*
X120523809Y-79452380D01*
X120857142Y-79452380D01*
X120952380Y-79500000D01*
X121000000Y-79547619D01*
X121047619Y-79642857D01*
X121047619Y-79738095D01*
X121000000Y-79833333D01*
X120952380Y-79880952D01*
X120857142Y-79928571D01*
X120523809Y-79928571D01*
D11*
X116714285Y-67154761D02*
X116857142Y-67202380D01*
X117095238Y-67202380D01*
X117190476Y-67154761D01*
X117238095Y-67107142D01*
X117285714Y-67011904D01*
X117285714Y-66916666D01*
X117238095Y-66821428D01*
X117190476Y-66773809D01*
X117095238Y-66726190D01*
X116904761Y-66678571D01*
X116809523Y-66630952D01*
X116761904Y-66583333D01*
X116714285Y-66488095D01*
X116714285Y-66392857D01*
X116761904Y-66297619D01*
X116809523Y-66250000D01*
X116904761Y-66202380D01*
X117142857Y-66202380D01*
X117285714Y-66250000D01*
X117714285Y-67202380D02*
X117714285Y-66202380D01*
X118095238Y-66202380D01*
X118190476Y-66250000D01*
X118238095Y-66297619D01*
X118285714Y-66392857D01*
X118285714Y-66535714D01*
X118238095Y-66630952D01*
X118190476Y-66678571D01*
X118095238Y-66726190D01*
X117714285Y-66726190D01*
X117166666Y-58452380D02*
X117833333Y-59452380D01*
X117833333Y-58452380D02*
X117166666Y-59452380D01*
X122488095Y-74666666D02*
X122964285Y-74666666D01*
X122392857Y-74952380D02*
X122726190Y-73952380D01*
X123059523Y-74952380D01*
X123392857Y-73952380D02*
X123392857Y-74761904D01*
X123440476Y-74857142D01*
X123488095Y-74904761D01*
X123583333Y-74952380D01*
X123773809Y-74952380D01*
X123869047Y-74904761D01*
X123916666Y-74857142D01*
X123964285Y-74761904D01*
X123964285Y-73952380D01*
X124440476Y-74952380D02*
X124440476Y-73952380D01*
X124678571Y-73952380D01*
X124821428Y-74000000D01*
X124916666Y-74095238D01*
X124964285Y-74190476D01*
X125011904Y-74380952D01*
X125011904Y-74523809D01*
X124964285Y-74714285D01*
X124916666Y-74809523D01*
X124821428Y-74904761D01*
X124678571Y-74952380D01*
X124440476Y-74952380D01*
X115000000Y-58976190D02*
X115000000Y-59452380D01*
X114666666Y-58452380D02*
X115000000Y-58976190D01*
X115333333Y-58452380D01*
X114642857Y-66202380D02*
X114642857Y-66916666D01*
X114595238Y-67059523D01*
X114500000Y-67154761D01*
X114357142Y-67202380D01*
X114261904Y-67202380D01*
X115452380Y-66678571D02*
X115595238Y-66726190D01*
X115642857Y-66773809D01*
X115690476Y-66869047D01*
X115690476Y-67011904D01*
X115642857Y-67107142D01*
X115595238Y-67154761D01*
X115500000Y-67202380D01*
X115119047Y-67202380D01*
X115119047Y-66202380D01*
X115452380Y-66202380D01*
X115547619Y-66250000D01*
X115595238Y-66297619D01*
X115642857Y-66392857D01*
X115642857Y-66488095D01*
X115595238Y-66583333D01*
X115547619Y-66630952D01*
X115452380Y-66678571D01*
X115119047Y-66678571D01*
X108988095Y-82250000D02*
X108892857Y-82202380D01*
X108750000Y-82202380D01*
X108607142Y-82250000D01*
X108511904Y-82345238D01*
X108464285Y-82440476D01*
X108416666Y-82630952D01*
X108416666Y-82773809D01*
X108464285Y-82964285D01*
X108511904Y-83059523D01*
X108607142Y-83154761D01*
X108750000Y-83202380D01*
X108845238Y-83202380D01*
X108988095Y-83154761D01*
X109035714Y-83107142D01*
X109035714Y-82773809D01*
X108845238Y-82773809D01*
X109464285Y-83202380D02*
X109464285Y-82202380D01*
X110035714Y-83202380D01*
X110035714Y-82202380D01*
X110511904Y-83202380D02*
X110511904Y-82202380D01*
X110750000Y-82202380D01*
X110892857Y-82250000D01*
X110988095Y-82345238D01*
X111035714Y-82440476D01*
X111083333Y-82630952D01*
X111083333Y-82773809D01*
X111035714Y-82964285D01*
X110988095Y-83059523D01*
X110892857Y-83154761D01*
X110750000Y-83202380D01*
X110511904Y-83202380D01*
%TO.C,J1*%
X121842380Y-67488333D02*
X122556666Y-67488333D01*
X122699523Y-67535952D01*
X122794761Y-67631190D01*
X122842380Y-67774047D01*
X122842380Y-67869285D01*
X122842380Y-66488333D02*
X122842380Y-67059761D01*
X122842380Y-66774047D02*
X121842380Y-66774047D01*
X121985238Y-66869285D01*
X122080476Y-66964523D01*
X122128095Y-67059761D01*
%TO.C,J3*%
X121122380Y-72333333D02*
X121836666Y-72333333D01*
X121979523Y-72380952D01*
X122074761Y-72476190D01*
X122122380Y-72619047D01*
X122122380Y-72714285D01*
X121122380Y-71952380D02*
X121122380Y-71333333D01*
X121503333Y-71666666D01*
X121503333Y-71523809D01*
X121550952Y-71428571D01*
X121598571Y-71380952D01*
X121693809Y-71333333D01*
X121931904Y-71333333D01*
X122027142Y-71380952D01*
X122074761Y-71428571D01*
X122122380Y-71523809D01*
X122122380Y-71809523D01*
X122074761Y-71904761D01*
X122027142Y-71952380D01*
%TO.C,J4*%
X121122380Y-67333333D02*
X121836666Y-67333333D01*
X121979523Y-67380952D01*
X122074761Y-67476190D01*
X122122380Y-67619047D01*
X122122380Y-67714285D01*
X121455714Y-66428571D02*
X122122380Y-66428571D01*
X121074761Y-66666666D02*
X121789047Y-66904761D01*
X121789047Y-66285714D01*
%TO.C,J6*%
X98281666Y-71722380D02*
X98281666Y-72436666D01*
X98234047Y-72579523D01*
X98138809Y-72674761D01*
X97995952Y-72722380D01*
X97900714Y-72722380D01*
X99186428Y-71722380D02*
X98995952Y-71722380D01*
X98900714Y-71770000D01*
X98853095Y-71817619D01*
X98757857Y-71960476D01*
X98710238Y-72150952D01*
X98710238Y-72531904D01*
X98757857Y-72627142D01*
X98805476Y-72674761D01*
X98900714Y-72722380D01*
X99091190Y-72722380D01*
X99186428Y-72674761D01*
X99234047Y-72627142D01*
X99281666Y-72531904D01*
X99281666Y-72293809D01*
X99234047Y-72198571D01*
X99186428Y-72150952D01*
X99091190Y-72103333D01*
X98900714Y-72103333D01*
X98805476Y-72150952D01*
X98757857Y-72198571D01*
X98710238Y-72293809D01*
%TO.C,J5*%
X98281666Y-89222380D02*
X98281666Y-89936666D01*
X98234047Y-90079523D01*
X98138809Y-90174761D01*
X97995952Y-90222380D01*
X97900714Y-90222380D01*
X99234047Y-89222380D02*
X98757857Y-89222380D01*
X98710238Y-89698571D01*
X98757857Y-89650952D01*
X98853095Y-89603333D01*
X99091190Y-89603333D01*
X99186428Y-89650952D01*
X99234047Y-89698571D01*
X99281666Y-89793809D01*
X99281666Y-90031904D01*
X99234047Y-90127142D01*
X99186428Y-90174761D01*
X99091190Y-90222380D01*
X98853095Y-90222380D01*
X98757857Y-90174761D01*
X98710238Y-90127142D01*
%TO.C,R1*%
X105952380Y-88166666D02*
X105476190Y-88500000D01*
X105952380Y-88738095D02*
X104952380Y-88738095D01*
X104952380Y-88357142D01*
X105000000Y-88261904D01*
X105047619Y-88214285D01*
X105142857Y-88166666D01*
X105285714Y-88166666D01*
X105380952Y-88214285D01*
X105428571Y-88261904D01*
X105476190Y-88357142D01*
X105476190Y-88738095D01*
X105952380Y-87214285D02*
X105952380Y-87785714D01*
X105952380Y-87500000D02*
X104952380Y-87500000D01*
X105095238Y-87595238D01*
X105190476Y-87690476D01*
X105238095Y-87785714D01*
%TO.C,J2*%
X106522380Y-90213333D02*
X107236666Y-90213333D01*
X107379523Y-90260952D01*
X107474761Y-90356190D01*
X107522380Y-90499047D01*
X107522380Y-90594285D01*
X106617619Y-89784761D02*
X106570000Y-89737142D01*
X106522380Y-89641904D01*
X106522380Y-89403809D01*
X106570000Y-89308571D01*
X106617619Y-89260952D01*
X106712857Y-89213333D01*
X106808095Y-89213333D01*
X106950952Y-89260952D01*
X107522380Y-89832380D01*
X107522380Y-89213333D01*
D13*
%TO.C,J1*%
X117960000Y-68140000D02*
X117960000Y-74140000D01*
X112880000Y-65082929D02*
X112880000Y-65480000D01*
X121450000Y-65480000D02*
X106090000Y-65480000D01*
X110340000Y-62542929D02*
X110340000Y-62997071D01*
X109580000Y-74140000D02*
X109580000Y-68140000D01*
X110340000Y-68140000D02*
X110340000Y-74140000D01*
X120440000Y-68140000D02*
X120440000Y-74140000D01*
X106090000Y-68140000D02*
X121450000Y-68140000D01*
X106090000Y-65480000D02*
X106090000Y-68140000D01*
X120500000Y-68140000D02*
X120500000Y-74140000D01*
X109580000Y-62542929D02*
X109580000Y-62997071D01*
X115420000Y-62542929D02*
X115420000Y-62997071D01*
X115420000Y-68140000D02*
X115420000Y-74140000D01*
X120500000Y-62610000D02*
X120500000Y-62997071D01*
X117960000Y-65082929D02*
X117960000Y-65480000D01*
X119740000Y-65082929D02*
X119740000Y-65480000D01*
X107800000Y-68140000D02*
X107800000Y-74140000D01*
X114660000Y-62542929D02*
X114660000Y-62997071D01*
X110340000Y-74140000D02*
X109580000Y-74140000D01*
X120500000Y-74140000D02*
X119740000Y-74140000D01*
X120200000Y-68140000D02*
X120200000Y-74140000D01*
X121390000Y-60230000D02*
X121390000Y-61500000D01*
X112880000Y-68140000D02*
X112880000Y-74140000D01*
X107040000Y-65082929D02*
X107040000Y-65480000D01*
X113770000Y-65480000D02*
X113770000Y-68140000D01*
X121450000Y-68140000D02*
X121450000Y-65480000D01*
X112120000Y-74140000D02*
X112120000Y-68140000D01*
X117200000Y-62542929D02*
X117200000Y-62997071D01*
X120120000Y-60230000D02*
X121390000Y-60230000D01*
X111230000Y-65480000D02*
X111230000Y-68140000D01*
X107800000Y-62542929D02*
X107800000Y-62997071D01*
X110340000Y-65082929D02*
X110340000Y-65480000D01*
X114660000Y-65082929D02*
X114660000Y-65480000D01*
X120320000Y-68140000D02*
X120320000Y-74140000D01*
X120500000Y-65082929D02*
X120500000Y-65480000D01*
X117960000Y-62542929D02*
X117960000Y-62997071D01*
X112120000Y-62542929D02*
X112120000Y-62997071D01*
X120080000Y-68140000D02*
X120080000Y-74140000D01*
X107040000Y-74140000D02*
X107040000Y-68140000D01*
X117960000Y-74140000D02*
X117200000Y-74140000D01*
X115420000Y-65082929D02*
X115420000Y-65480000D01*
X118850000Y-65480000D02*
X118850000Y-68140000D01*
X117200000Y-74140000D02*
X117200000Y-68140000D01*
X112880000Y-62542929D02*
X112880000Y-62997071D01*
X112120000Y-65082929D02*
X112120000Y-65480000D01*
X115420000Y-74140000D02*
X114660000Y-74140000D01*
X112880000Y-74140000D02*
X112120000Y-74140000D01*
X119740000Y-62610000D02*
X119740000Y-62997071D01*
X117200000Y-65082929D02*
X117200000Y-65480000D01*
X107800000Y-74140000D02*
X107040000Y-74140000D01*
X119840000Y-68140000D02*
X119840000Y-74140000D01*
X109580000Y-65082929D02*
X109580000Y-65480000D01*
X108690000Y-65480000D02*
X108690000Y-68140000D01*
X119740000Y-74140000D02*
X119740000Y-68140000D01*
X107040000Y-62542929D02*
X107040000Y-62997071D01*
X114660000Y-74140000D02*
X114660000Y-68140000D01*
X116310000Y-65480000D02*
X116310000Y-68140000D01*
X119960000Y-68140000D02*
X119960000Y-74140000D01*
X107800000Y-65082929D02*
X107800000Y-65480000D01*
%TO.C,J3*%
X122670000Y-73330000D02*
X122670000Y-72000000D01*
X125270000Y-73330000D02*
X127870000Y-73330000D01*
X127870000Y-73330000D02*
X127870000Y-70670000D01*
X124000000Y-73330000D02*
X122670000Y-73330000D01*
X125270000Y-73330000D02*
X125270000Y-70670000D01*
X125270000Y-70670000D02*
X127870000Y-70670000D01*
%TO.C,J4*%
X125270000Y-68330000D02*
X127870000Y-68330000D01*
X125270000Y-68330000D02*
X125270000Y-65670000D01*
X127870000Y-68330000D02*
X127870000Y-65670000D01*
X122670000Y-68330000D02*
X122670000Y-67000000D01*
X124000000Y-68330000D02*
X122670000Y-68330000D01*
X125270000Y-65670000D02*
X127870000Y-65670000D01*
%TO.C,J6*%
X98900000Y-69720000D02*
X92900000Y-69720000D01*
X101560000Y-68730000D02*
X98900000Y-68730000D01*
X101957071Y-67080000D02*
X101560000Y-67080000D01*
X101560000Y-71330000D02*
X101560000Y-66130000D01*
X98900000Y-66130000D02*
X98900000Y-71330000D01*
X98900000Y-71330000D02*
X101560000Y-71330000D01*
X92900000Y-70380000D02*
X92900000Y-69620000D01*
X98900000Y-70380000D02*
X92900000Y-70380000D01*
X101890000Y-70380000D02*
X101560000Y-70380000D01*
X101560000Y-66130000D02*
X98900000Y-66130000D01*
X92900000Y-67080000D02*
X98900000Y-67080000D01*
X98900000Y-70200000D02*
X92900000Y-70200000D01*
X101957071Y-67840000D02*
X101560000Y-67840000D01*
X104270000Y-71270000D02*
X103000000Y-71270000D01*
X98900000Y-69840000D02*
X92900000Y-69840000D01*
X92900000Y-67840000D02*
X92900000Y-67080000D01*
X98900000Y-70320000D02*
X92900000Y-70320000D01*
X98900000Y-70080000D02*
X92900000Y-70080000D01*
X98900000Y-67840000D02*
X92900000Y-67840000D01*
X98900000Y-69960000D02*
X92900000Y-69960000D01*
X104270000Y-70000000D02*
X104270000Y-71270000D01*
X92900000Y-69620000D02*
X98900000Y-69620000D01*
X101890000Y-69620000D02*
X101560000Y-69620000D01*
%TO.C,J5*%
X98900000Y-87880000D02*
X92900000Y-87880000D01*
X98900000Y-83630000D02*
X98900000Y-88830000D01*
X92900000Y-87880000D02*
X92900000Y-87120000D01*
X98900000Y-87820000D02*
X92900000Y-87820000D01*
X98900000Y-87340000D02*
X92900000Y-87340000D01*
X104270000Y-88770000D02*
X103000000Y-88770000D01*
X101890000Y-87880000D02*
X101560000Y-87880000D01*
X101957071Y-85340000D02*
X101560000Y-85340000D01*
X98900000Y-87460000D02*
X92900000Y-87460000D01*
X98900000Y-87700000D02*
X92900000Y-87700000D01*
X92900000Y-84580000D02*
X98900000Y-84580000D01*
X101560000Y-83630000D02*
X98900000Y-83630000D01*
X101560000Y-88830000D02*
X101560000Y-83630000D01*
X101560000Y-86230000D02*
X98900000Y-86230000D01*
X98900000Y-85340000D02*
X92900000Y-85340000D01*
X98900000Y-87220000D02*
X92900000Y-87220000D01*
X92900000Y-85340000D02*
X92900000Y-84580000D01*
X101957071Y-84580000D02*
X101560000Y-84580000D01*
X104270000Y-87500000D02*
X104270000Y-88770000D01*
X98900000Y-87580000D02*
X92900000Y-87580000D01*
X92900000Y-87120000D02*
X98900000Y-87120000D01*
X101890000Y-87120000D02*
X101560000Y-87120000D01*
X98900000Y-88830000D02*
X101560000Y-88830000D01*
%TO.C,R1*%
X107380000Y-87836359D02*
X107380000Y-88143641D01*
X106620000Y-87836359D02*
X106620000Y-88143641D01*
%TO.C,J2*%
X109480000Y-86960000D02*
X109480000Y-86610000D01*
X109692855Y-95590000D02*
X109692855Y-86960000D01*
X110519520Y-95590000D02*
X110519520Y-86960000D01*
X117100000Y-86960000D02*
X117100000Y-86550000D01*
X111110000Y-95590000D02*
X111110000Y-86960000D01*
X108510000Y-95590000D02*
X121330000Y-95590000D01*
X112020000Y-86960000D02*
X112020000Y-86550000D01*
X109929045Y-95590000D02*
X109929045Y-86960000D01*
X116190000Y-95590000D02*
X116190000Y-86960000D01*
X119640000Y-86960000D02*
X119640000Y-86550000D01*
X114560000Y-86960000D02*
X114560000Y-86550000D01*
X110165235Y-95590000D02*
X110165235Y-86960000D01*
X120360000Y-86960000D02*
X120360000Y-86550000D01*
X115280000Y-86960000D02*
X115280000Y-86550000D01*
X112740000Y-86960000D02*
X112740000Y-86550000D01*
X109574760Y-95590000D02*
X109574760Y-86960000D01*
X108510000Y-85500000D02*
X108510000Y-84390000D01*
X108748095Y-95590000D02*
X108748095Y-86960000D01*
X110200000Y-86960000D02*
X110200000Y-86610000D01*
X117820000Y-86960000D02*
X117820000Y-86550000D01*
X108510000Y-95590000D02*
X108510000Y-86960000D01*
X113650000Y-95590000D02*
X113650000Y-86960000D01*
X110401425Y-95590000D02*
X110401425Y-86960000D01*
X109810950Y-95590000D02*
X109810950Y-86960000D01*
X109456665Y-95590000D02*
X109456665Y-86960000D01*
X108630000Y-95590000D02*
X108630000Y-86960000D01*
X110873805Y-95590000D02*
X110873805Y-86960000D01*
X110755710Y-95590000D02*
X110755710Y-86960000D01*
X110283330Y-95590000D02*
X110283330Y-86960000D01*
X108984285Y-95590000D02*
X108984285Y-86960000D01*
X108866190Y-95590000D02*
X108866190Y-86960000D01*
X110637615Y-95590000D02*
X110637615Y-86960000D01*
X109220475Y-95590000D02*
X109220475Y-86960000D01*
X108510000Y-84390000D02*
X109840000Y-84390000D01*
X109102380Y-95590000D02*
X109102380Y-86960000D01*
X118730000Y-95590000D02*
X118730000Y-86960000D01*
X110047140Y-95590000D02*
X110047140Y-86960000D01*
X110991900Y-95590000D02*
X110991900Y-86960000D01*
X109338570Y-95590000D02*
X109338570Y-86960000D01*
X108510000Y-86960000D02*
X121330000Y-86960000D01*
X121330000Y-95590000D02*
X121330000Y-86960000D01*
%TD*%
M02*
