%TF.GenerationSoftware,KiCad,Pcbnew,5.1.10-88a1d61d58~88~ubuntu18.04.1*%
%TF.CreationDate,2021-08-17T21:06:29+02:00*%
%TF.ProjectId,Mainboard,4d61696e-626f-4617-9264-2e6b69636164,rev?*%
%TF.SameCoordinates,Original*%
%TF.FileFunction,Legend,Top*%
%TF.FilePolarity,Positive*%
%FSLAX46Y46*%
G04 Gerber Fmt 4.6, Leading zero omitted, Abs format (unit mm)*
G04 Created by KiCad (PCBNEW 5.1.10-88a1d61d58~88~ubuntu18.04.1) date 2021-08-17 21:06:30*
%MOMM*%
%LPD*%
G01*
G04 APERTURE LIST*
%ADD10C,0.150000*%
%ADD11C,0.300000*%
%ADD12C,0.700000*%
%ADD13C,0.120000*%
%ADD14C,0.200000*%
G04 APERTURE END LIST*
D10*
X111974380Y-70572380D02*
X112164857Y-70572380D01*
X112260095Y-70620000D01*
X112355333Y-70715238D01*
X112402952Y-70905714D01*
X112402952Y-71239047D01*
X112355333Y-71429523D01*
X112260095Y-71524761D01*
X112164857Y-71572380D01*
X111974380Y-71572380D01*
X111879142Y-71524761D01*
X111783904Y-71429523D01*
X111736285Y-71239047D01*
X111736285Y-70905714D01*
X111783904Y-70715238D01*
X111879142Y-70620000D01*
X111974380Y-70572380D01*
X112831523Y-71048571D02*
X113164857Y-71048571D01*
X113307714Y-71572380D02*
X112831523Y-71572380D01*
X112831523Y-70572380D01*
X113307714Y-70572380D01*
X111418761Y-68937142D02*
X111371142Y-68984761D01*
X111228285Y-69032380D01*
X111133047Y-69032380D01*
X110990190Y-68984761D01*
X110894952Y-68889523D01*
X110847333Y-68794285D01*
X110799714Y-68603809D01*
X110799714Y-68460952D01*
X110847333Y-68270476D01*
X110894952Y-68175238D01*
X110990190Y-68080000D01*
X111133047Y-68032380D01*
X111228285Y-68032380D01*
X111371142Y-68080000D01*
X111418761Y-68127619D01*
X112323523Y-69032380D02*
X111847333Y-69032380D01*
X111847333Y-68032380D01*
X112656857Y-69032380D02*
X112656857Y-68032380D01*
X113228285Y-69032380D02*
X112799714Y-68460952D01*
X113228285Y-68032380D02*
X112656857Y-68603809D01*
X113339523Y-66397142D02*
X113291904Y-66444761D01*
X113149047Y-66492380D01*
X113053809Y-66492380D01*
X112910952Y-66444761D01*
X112815714Y-66349523D01*
X112768095Y-66254285D01*
X112720476Y-66063809D01*
X112720476Y-65920952D01*
X112768095Y-65730476D01*
X112815714Y-65635238D01*
X112910952Y-65540000D01*
X113053809Y-65492380D01*
X113149047Y-65492380D01*
X113291904Y-65540000D01*
X113339523Y-65587619D01*
X112791904Y-63666666D02*
X113268095Y-63666666D01*
X112696666Y-63952380D02*
X113030000Y-62952380D01*
X113363333Y-63952380D01*
X112117238Y-60888571D02*
X112260095Y-60936190D01*
X112307714Y-60983809D01*
X112355333Y-61079047D01*
X112355333Y-61221904D01*
X112307714Y-61317142D01*
X112260095Y-61364761D01*
X112164857Y-61412380D01*
X111783904Y-61412380D01*
X111783904Y-60412380D01*
X112117238Y-60412380D01*
X112212476Y-60460000D01*
X112260095Y-60507619D01*
X112307714Y-60602857D01*
X112307714Y-60698095D01*
X112260095Y-60793333D01*
X112212476Y-60840952D01*
X112117238Y-60888571D01*
X111783904Y-60888571D01*
X112736285Y-60507619D02*
X112783904Y-60460000D01*
X112879142Y-60412380D01*
X113117238Y-60412380D01*
X113212476Y-60460000D01*
X113260095Y-60507619D01*
X113307714Y-60602857D01*
X113307714Y-60698095D01*
X113260095Y-60840952D01*
X112688666Y-61412380D01*
X113307714Y-61412380D01*
X112355333Y-58872380D02*
X112022000Y-58396190D01*
X111783904Y-58872380D02*
X111783904Y-57872380D01*
X112164857Y-57872380D01*
X112260095Y-57920000D01*
X112307714Y-57967619D01*
X112355333Y-58062857D01*
X112355333Y-58205714D01*
X112307714Y-58300952D01*
X112260095Y-58348571D01*
X112164857Y-58396190D01*
X111783904Y-58396190D01*
X112736285Y-57967619D02*
X112783904Y-57920000D01*
X112879142Y-57872380D01*
X113117238Y-57872380D01*
X113212476Y-57920000D01*
X113260095Y-57967619D01*
X113307714Y-58062857D01*
X113307714Y-58158095D01*
X113260095Y-58300952D01*
X112688666Y-58872380D01*
X113307714Y-58872380D01*
X112117238Y-55808571D02*
X112260095Y-55856190D01*
X112307714Y-55903809D01*
X112355333Y-55999047D01*
X112355333Y-56141904D01*
X112307714Y-56237142D01*
X112260095Y-56284761D01*
X112164857Y-56332380D01*
X111783904Y-56332380D01*
X111783904Y-55332380D01*
X112117238Y-55332380D01*
X112212476Y-55380000D01*
X112260095Y-55427619D01*
X112307714Y-55522857D01*
X112307714Y-55618095D01*
X112260095Y-55713333D01*
X112212476Y-55760952D01*
X112117238Y-55808571D01*
X111783904Y-55808571D01*
X113307714Y-56332380D02*
X112736285Y-56332380D01*
X113022000Y-56332380D02*
X113022000Y-55332380D01*
X112926761Y-55475238D01*
X112831523Y-55570476D01*
X112736285Y-55618095D01*
X112355333Y-53792380D02*
X112022000Y-53316190D01*
X111783904Y-53792380D02*
X111783904Y-52792380D01*
X112164857Y-52792380D01*
X112260095Y-52840000D01*
X112307714Y-52887619D01*
X112355333Y-52982857D01*
X112355333Y-53125714D01*
X112307714Y-53220952D01*
X112260095Y-53268571D01*
X112164857Y-53316190D01*
X111783904Y-53316190D01*
X113307714Y-53792380D02*
X112736285Y-53792380D01*
X113022000Y-53792380D02*
X113022000Y-52792380D01*
X112926761Y-52935238D01*
X112831523Y-53030476D01*
X112736285Y-53078095D01*
X119927714Y-52840000D02*
X119832476Y-52792380D01*
X119689619Y-52792380D01*
X119546761Y-52840000D01*
X119451523Y-52935238D01*
X119403904Y-53030476D01*
X119356285Y-53220952D01*
X119356285Y-53363809D01*
X119403904Y-53554285D01*
X119451523Y-53649523D01*
X119546761Y-53744761D01*
X119689619Y-53792380D01*
X119784857Y-53792380D01*
X119927714Y-53744761D01*
X119975333Y-53697142D01*
X119975333Y-53363809D01*
X119784857Y-53363809D01*
X120927714Y-53792380D02*
X120356285Y-53792380D01*
X120642000Y-53792380D02*
X120642000Y-52792380D01*
X120546761Y-52935238D01*
X120451523Y-53030476D01*
X120356285Y-53078095D01*
X119888095Y-55380000D02*
X119792857Y-55332380D01*
X119650000Y-55332380D01*
X119507142Y-55380000D01*
X119411904Y-55475238D01*
X119364285Y-55570476D01*
X119316666Y-55760952D01*
X119316666Y-55903809D01*
X119364285Y-56094285D01*
X119411904Y-56189523D01*
X119507142Y-56284761D01*
X119650000Y-56332380D01*
X119745238Y-56332380D01*
X119888095Y-56284761D01*
X119935714Y-56237142D01*
X119935714Y-55903809D01*
X119745238Y-55903809D01*
X120364285Y-56332380D02*
X120364285Y-55332380D01*
X120935714Y-56332380D01*
X120935714Y-55332380D01*
X121411904Y-56332380D02*
X121411904Y-55332380D01*
X121650000Y-55332380D01*
X121792857Y-55380000D01*
X121888095Y-55475238D01*
X121935714Y-55570476D01*
X121983333Y-55760952D01*
X121983333Y-55903809D01*
X121935714Y-56094285D01*
X121888095Y-56189523D01*
X121792857Y-56284761D01*
X121650000Y-56332380D01*
X121411904Y-56332380D01*
X119927714Y-57920000D02*
X119832476Y-57872380D01*
X119689619Y-57872380D01*
X119546761Y-57920000D01*
X119451523Y-58015238D01*
X119403904Y-58110476D01*
X119356285Y-58300952D01*
X119356285Y-58443809D01*
X119403904Y-58634285D01*
X119451523Y-58729523D01*
X119546761Y-58824761D01*
X119689619Y-58872380D01*
X119784857Y-58872380D01*
X119927714Y-58824761D01*
X119975333Y-58777142D01*
X119975333Y-58443809D01*
X119784857Y-58443809D01*
X120356285Y-57967619D02*
X120403904Y-57920000D01*
X120499142Y-57872380D01*
X120737238Y-57872380D01*
X120832476Y-57920000D01*
X120880095Y-57967619D01*
X120927714Y-58062857D01*
X120927714Y-58158095D01*
X120880095Y-58300952D01*
X120308666Y-58872380D01*
X120927714Y-58872380D01*
X119419714Y-60888571D02*
X119753047Y-60888571D01*
X119895904Y-61412380D02*
X119419714Y-61412380D01*
X119419714Y-60412380D01*
X119895904Y-60412380D01*
X119705428Y-63428571D02*
X119848285Y-63476190D01*
X119895904Y-63523809D01*
X119943523Y-63619047D01*
X119943523Y-63761904D01*
X119895904Y-63857142D01*
X119848285Y-63904761D01*
X119753047Y-63952380D01*
X119372095Y-63952380D01*
X119372095Y-62952380D01*
X119705428Y-62952380D01*
X119800666Y-63000000D01*
X119848285Y-63047619D01*
X119895904Y-63142857D01*
X119895904Y-63238095D01*
X119848285Y-63333333D01*
X119800666Y-63380952D01*
X119705428Y-63428571D01*
X119372095Y-63428571D01*
X119372095Y-66492380D02*
X119372095Y-65492380D01*
X119610190Y-65492380D01*
X119753047Y-65540000D01*
X119848285Y-65635238D01*
X119895904Y-65730476D01*
X119943523Y-65920952D01*
X119943523Y-66063809D01*
X119895904Y-66254285D01*
X119848285Y-66349523D01*
X119753047Y-66444761D01*
X119610190Y-66492380D01*
X119372095Y-66492380D01*
X119896000Y-69032380D02*
X119419809Y-69032380D01*
X119419809Y-68032380D01*
X120181714Y-68746666D02*
X120657904Y-68746666D01*
X120086476Y-69032380D02*
X120419809Y-68032380D01*
X120753142Y-69032380D01*
X120943619Y-68032380D02*
X121515047Y-68032380D01*
X121229333Y-69032380D02*
X121229333Y-68032380D01*
X119888095Y-70620000D02*
X119792857Y-70572380D01*
X119650000Y-70572380D01*
X119507142Y-70620000D01*
X119411904Y-70715238D01*
X119364285Y-70810476D01*
X119316666Y-71000952D01*
X119316666Y-71143809D01*
X119364285Y-71334285D01*
X119411904Y-71429523D01*
X119507142Y-71524761D01*
X119650000Y-71572380D01*
X119745238Y-71572380D01*
X119888095Y-71524761D01*
X119935714Y-71477142D01*
X119935714Y-71143809D01*
X119745238Y-71143809D01*
X120364285Y-71572380D02*
X120364285Y-70572380D01*
X120935714Y-71572380D01*
X120935714Y-70572380D01*
X121411904Y-71572380D02*
X121411904Y-70572380D01*
X121650000Y-70572380D01*
X121792857Y-70620000D01*
X121888095Y-70715238D01*
X121935714Y-70810476D01*
X121983333Y-71000952D01*
X121983333Y-71143809D01*
X121935714Y-71334285D01*
X121888095Y-71429523D01*
X121792857Y-71524761D01*
X121650000Y-71572380D01*
X121411904Y-71572380D01*
D11*
X112315952Y-43449761D02*
X111649285Y-42497380D01*
X111173095Y-43449761D02*
X111173095Y-41449761D01*
X111935000Y-41449761D01*
X112125476Y-41545000D01*
X112220714Y-41640238D01*
X112315952Y-41830714D01*
X112315952Y-42116428D01*
X112220714Y-42306904D01*
X112125476Y-42402142D01*
X111935000Y-42497380D01*
X111173095Y-42497380D01*
X113935000Y-43354523D02*
X113744523Y-43449761D01*
X113363571Y-43449761D01*
X113173095Y-43354523D01*
X113077857Y-43164047D01*
X113077857Y-42402142D01*
X113173095Y-42211666D01*
X113363571Y-42116428D01*
X113744523Y-42116428D01*
X113935000Y-42211666D01*
X114030238Y-42402142D01*
X114030238Y-42592619D01*
X113077857Y-42783095D01*
X114696904Y-42116428D02*
X115173095Y-43449761D01*
X115649285Y-42116428D01*
X117839761Y-42878333D02*
X118792142Y-42878333D01*
X117649285Y-43449761D02*
X118315952Y-41449761D01*
X118982619Y-43449761D01*
X170803571Y-83863571D02*
X170803571Y-82363571D01*
X170803571Y-82935000D02*
X170946428Y-82863571D01*
X171232142Y-82863571D01*
X171375000Y-82935000D01*
X171446428Y-83006428D01*
X171517857Y-83149285D01*
X171517857Y-83577857D01*
X171446428Y-83720714D01*
X171375000Y-83792142D01*
X171232142Y-83863571D01*
X170946428Y-83863571D01*
X170803571Y-83792142D01*
X172017857Y-82863571D02*
X172375000Y-83863571D01*
X172732142Y-82863571D02*
X172375000Y-83863571D01*
X172232142Y-84220714D01*
X172160714Y-84292142D01*
X172017857Y-84363571D01*
X175160714Y-83863571D02*
X174446428Y-83863571D01*
X174446428Y-82363571D01*
X176303571Y-83863571D02*
X176303571Y-83077857D01*
X176232142Y-82935000D01*
X176089285Y-82863571D01*
X175803571Y-82863571D01*
X175660714Y-82935000D01*
X176303571Y-83792142D02*
X176160714Y-83863571D01*
X175803571Y-83863571D01*
X175660714Y-83792142D01*
X175589285Y-83649285D01*
X175589285Y-83506428D01*
X175660714Y-83363571D01*
X175803571Y-83292142D01*
X176160714Y-83292142D01*
X176303571Y-83220714D01*
X177017857Y-83863571D02*
X177017857Y-82863571D01*
X177017857Y-83149285D02*
X177089285Y-83006428D01*
X177160714Y-82935000D01*
X177303571Y-82863571D01*
X177446428Y-82863571D01*
X177875000Y-83792142D02*
X178017857Y-83863571D01*
X178303571Y-83863571D01*
X178446428Y-83792142D01*
X178517857Y-83649285D01*
X178517857Y-83577857D01*
X178446428Y-83435000D01*
X178303571Y-83363571D01*
X178089285Y-83363571D01*
X177946428Y-83292142D01*
X177875000Y-83149285D01*
X177875000Y-83077857D01*
X177946428Y-82935000D01*
X178089285Y-82863571D01*
X178303571Y-82863571D01*
X178446428Y-82935000D01*
D12*
X111889047Y-83089523D02*
X111889047Y-79089523D01*
X111889047Y-80994285D02*
X113717619Y-80994285D01*
X113717619Y-83089523D02*
X113717619Y-79089523D01*
X115241428Y-81565714D02*
X117679523Y-81565714D01*
X119203333Y-83089523D02*
X119203333Y-79089523D01*
X119203333Y-80994285D02*
X121031904Y-80994285D01*
X121031904Y-83089523D02*
X121031904Y-79089523D01*
X122098571Y-79089523D02*
X123927142Y-79089523D01*
X123012857Y-83089523D02*
X123012857Y-79089523D01*
X124536666Y-79089523D02*
X125603333Y-83089523D01*
X126670000Y-79089523D01*
X127736666Y-81565714D02*
X130174761Y-81565714D01*
X131698571Y-83089523D02*
X131698571Y-79089523D01*
X132765238Y-81946666D01*
X133831904Y-79089523D01*
X133831904Y-83089523D01*
X136727142Y-83089523D02*
X136727142Y-80994285D01*
X136574761Y-80613333D01*
X136270000Y-80422857D01*
X135660476Y-80422857D01*
X135355714Y-80613333D01*
X136727142Y-82899047D02*
X136422380Y-83089523D01*
X135660476Y-83089523D01*
X135355714Y-82899047D01*
X135203333Y-82518095D01*
X135203333Y-82137142D01*
X135355714Y-81756190D01*
X135660476Y-81565714D01*
X136422380Y-81565714D01*
X136727142Y-81375238D01*
X137793809Y-80422857D02*
X139012857Y-80422857D01*
X138250952Y-79089523D02*
X138250952Y-82518095D01*
X138403333Y-82899047D01*
X138708095Y-83089523D01*
X139012857Y-83089523D01*
X140079523Y-83089523D02*
X140079523Y-80422857D01*
X140079523Y-81184761D02*
X140231904Y-80803809D01*
X140384285Y-80613333D01*
X140689047Y-80422857D01*
X140993809Y-80422857D01*
X142060476Y-83089523D02*
X142060476Y-80422857D01*
X142060476Y-79089523D02*
X141908095Y-79280000D01*
X142060476Y-79470476D01*
X142212857Y-79280000D01*
X142060476Y-79089523D01*
X142060476Y-79470476D01*
X143279523Y-83089523D02*
X144955714Y-80422857D01*
X143279523Y-80422857D02*
X144955714Y-83089523D01*
D10*
X174021904Y-62047380D02*
X173545714Y-62047380D01*
X173545714Y-61047380D01*
X174926666Y-61952142D02*
X174879047Y-61999761D01*
X174736190Y-62047380D01*
X174640952Y-62047380D01*
X174498095Y-61999761D01*
X174402857Y-61904523D01*
X174355238Y-61809285D01*
X174307619Y-61618809D01*
X174307619Y-61475952D01*
X174355238Y-61285476D01*
X174402857Y-61190238D01*
X174498095Y-61095000D01*
X174640952Y-61047380D01*
X174736190Y-61047380D01*
X174879047Y-61095000D01*
X174926666Y-61142619D01*
X175545714Y-61047380D02*
X175736190Y-61047380D01*
X175831428Y-61095000D01*
X175926666Y-61190238D01*
X175974285Y-61380714D01*
X175974285Y-61714047D01*
X175926666Y-61904523D01*
X175831428Y-61999761D01*
X175736190Y-62047380D01*
X175545714Y-62047380D01*
X175450476Y-61999761D01*
X175355238Y-61904523D01*
X175307619Y-61714047D01*
X175307619Y-61380714D01*
X175355238Y-61190238D01*
X175450476Y-61095000D01*
X175545714Y-61047380D01*
X176402857Y-62047380D02*
X176402857Y-61047380D01*
X176974285Y-62047380D01*
X176974285Y-61047380D01*
X174021904Y-65857380D02*
X173688571Y-65381190D01*
X173450476Y-65857380D02*
X173450476Y-64857380D01*
X173831428Y-64857380D01*
X173926666Y-64905000D01*
X173974285Y-64952619D01*
X174021904Y-65047857D01*
X174021904Y-65190714D01*
X173974285Y-65285952D01*
X173926666Y-65333571D01*
X173831428Y-65381190D01*
X173450476Y-65381190D01*
X175021904Y-65762142D02*
X174974285Y-65809761D01*
X174831428Y-65857380D01*
X174736190Y-65857380D01*
X174593333Y-65809761D01*
X174498095Y-65714523D01*
X174450476Y-65619285D01*
X174402857Y-65428809D01*
X174402857Y-65285952D01*
X174450476Y-65095476D01*
X174498095Y-65000238D01*
X174593333Y-64905000D01*
X174736190Y-64857380D01*
X174831428Y-64857380D01*
X174974285Y-64905000D01*
X175021904Y-64952619D01*
X175640952Y-64857380D02*
X175831428Y-64857380D01*
X175926666Y-64905000D01*
X176021904Y-65000238D01*
X176069523Y-65190714D01*
X176069523Y-65524047D01*
X176021904Y-65714523D01*
X175926666Y-65809761D01*
X175831428Y-65857380D01*
X175640952Y-65857380D01*
X175545714Y-65809761D01*
X175450476Y-65714523D01*
X175402857Y-65524047D01*
X175402857Y-65190714D01*
X175450476Y-65000238D01*
X175545714Y-64905000D01*
X175640952Y-64857380D01*
X176498095Y-65857380D02*
X176498095Y-64857380D01*
X177069523Y-65857380D01*
X177069523Y-64857380D01*
X149796666Y-68667380D02*
X150130000Y-69667380D01*
X150463333Y-68667380D01*
X151368095Y-69572142D02*
X151320476Y-69619761D01*
X151177619Y-69667380D01*
X151082380Y-69667380D01*
X150939523Y-69619761D01*
X150844285Y-69524523D01*
X150796666Y-69429285D01*
X150749047Y-69238809D01*
X150749047Y-69095952D01*
X150796666Y-68905476D01*
X150844285Y-68810238D01*
X150939523Y-68715000D01*
X151082380Y-68667380D01*
X151177619Y-68667380D01*
X151320476Y-68715000D01*
X151368095Y-68762619D01*
X152368095Y-69572142D02*
X152320476Y-69619761D01*
X152177619Y-69667380D01*
X152082380Y-69667380D01*
X151939523Y-69619761D01*
X151844285Y-69524523D01*
X151796666Y-69429285D01*
X151749047Y-69238809D01*
X151749047Y-69095952D01*
X151796666Y-68905476D01*
X151844285Y-68810238D01*
X151939523Y-68715000D01*
X152082380Y-68667380D01*
X152177619Y-68667380D01*
X152320476Y-68715000D01*
X152368095Y-68762619D01*
X142748095Y-68715000D02*
X142652857Y-68667380D01*
X142510000Y-68667380D01*
X142367142Y-68715000D01*
X142271904Y-68810238D01*
X142224285Y-68905476D01*
X142176666Y-69095952D01*
X142176666Y-69238809D01*
X142224285Y-69429285D01*
X142271904Y-69524523D01*
X142367142Y-69619761D01*
X142510000Y-69667380D01*
X142605238Y-69667380D01*
X142748095Y-69619761D01*
X142795714Y-69572142D01*
X142795714Y-69238809D01*
X142605238Y-69238809D01*
X143224285Y-69667380D02*
X143224285Y-68667380D01*
X143795714Y-69667380D01*
X143795714Y-68667380D01*
X144271904Y-69667380D02*
X144271904Y-68667380D01*
X144510000Y-68667380D01*
X144652857Y-68715000D01*
X144748095Y-68810238D01*
X144795714Y-68905476D01*
X144843333Y-69095952D01*
X144843333Y-69238809D01*
X144795714Y-69429285D01*
X144748095Y-69524523D01*
X144652857Y-69619761D01*
X144510000Y-69667380D01*
X144271904Y-69667380D01*
X138866571Y-67143142D02*
X138914190Y-67000285D01*
X138961809Y-66952666D01*
X139057047Y-66905047D01*
X139199904Y-66905047D01*
X139295142Y-66952666D01*
X139342761Y-67000285D01*
X139390380Y-67095523D01*
X139390380Y-67476476D01*
X138390380Y-67476476D01*
X138390380Y-67143142D01*
X138438000Y-67047904D01*
X138485619Y-67000285D01*
X138580857Y-66952666D01*
X138676095Y-66952666D01*
X138771333Y-67000285D01*
X138818952Y-67047904D01*
X138866571Y-67143142D01*
X138866571Y-67476476D01*
X139104666Y-66524095D02*
X139104666Y-66047904D01*
X139390380Y-66619333D02*
X138390380Y-66286000D01*
X139390380Y-65952666D01*
X138390380Y-65762190D02*
X138390380Y-65190761D01*
X139390380Y-65476476D02*
X138390380Y-65476476D01*
X139009428Y-64857428D02*
X139009428Y-64095523D01*
X138866571Y-76541142D02*
X138914190Y-76398285D01*
X138961809Y-76350666D01*
X139057047Y-76303047D01*
X139199904Y-76303047D01*
X139295142Y-76350666D01*
X139342761Y-76398285D01*
X139390380Y-76493523D01*
X139390380Y-76874476D01*
X138390380Y-76874476D01*
X138390380Y-76541142D01*
X138438000Y-76445904D01*
X138485619Y-76398285D01*
X138580857Y-76350666D01*
X138676095Y-76350666D01*
X138771333Y-76398285D01*
X138818952Y-76445904D01*
X138866571Y-76541142D01*
X138866571Y-76874476D01*
X139104666Y-75922095D02*
X139104666Y-75445904D01*
X139390380Y-76017333D02*
X138390380Y-75684000D01*
X139390380Y-75350666D01*
X138390380Y-75160190D02*
X138390380Y-74588761D01*
X139390380Y-74874476D02*
X138390380Y-74874476D01*
X139009428Y-74255428D02*
X139009428Y-73493523D01*
X139390380Y-73874476D02*
X138628476Y-73874476D01*
X147121904Y-83002380D02*
X147121904Y-82002380D01*
X147502857Y-82002380D01*
X147598095Y-82050000D01*
X147645714Y-82097619D01*
X147693333Y-82192857D01*
X147693333Y-82335714D01*
X147645714Y-82430952D01*
X147598095Y-82478571D01*
X147502857Y-82526190D01*
X147121904Y-82526190D01*
X148026666Y-82002380D02*
X148264761Y-83002380D01*
X148455238Y-82288095D01*
X148645714Y-83002380D01*
X148883809Y-82002380D01*
X149836190Y-83002380D02*
X149502857Y-82526190D01*
X149264761Y-83002380D02*
X149264761Y-82002380D01*
X149645714Y-82002380D01*
X149740952Y-82050000D01*
X149788571Y-82097619D01*
X149836190Y-82192857D01*
X149836190Y-82335714D01*
X149788571Y-82430952D01*
X149740952Y-82478571D01*
X149645714Y-82526190D01*
X149264761Y-82526190D01*
X150598095Y-82478571D02*
X150740952Y-82526190D01*
X150788571Y-82573809D01*
X150836190Y-82669047D01*
X150836190Y-82811904D01*
X150788571Y-82907142D01*
X150740952Y-82954761D01*
X150645714Y-83002380D01*
X150264761Y-83002380D01*
X150264761Y-82002380D01*
X150598095Y-82002380D01*
X150693333Y-82050000D01*
X150740952Y-82097619D01*
X150788571Y-82192857D01*
X150788571Y-82288095D01*
X150740952Y-82383333D01*
X150693333Y-82430952D01*
X150598095Y-82478571D01*
X150264761Y-82478571D01*
X151121904Y-82002380D02*
X151693333Y-82002380D01*
X151407619Y-83002380D02*
X151407619Y-82002380D01*
X152026666Y-83002380D02*
X152026666Y-82002380D01*
X152598095Y-83002380D01*
X152598095Y-82002380D01*
X160409047Y-83002380D02*
X160409047Y-82002380D01*
X160647142Y-82002380D01*
X160790000Y-82050000D01*
X160885238Y-82145238D01*
X160932857Y-82240476D01*
X160980476Y-82430952D01*
X160980476Y-82573809D01*
X160932857Y-82764285D01*
X160885238Y-82859523D01*
X160790000Y-82954761D01*
X160647142Y-83002380D01*
X160409047Y-83002380D01*
X161409047Y-82621428D02*
X162170952Y-82621428D01*
X162949047Y-83002380D02*
X162949047Y-82002380D01*
X163187142Y-82002380D01*
X163330000Y-82050000D01*
X163425238Y-82145238D01*
X163472857Y-82240476D01*
X163520476Y-82430952D01*
X163520476Y-82573809D01*
X163472857Y-82764285D01*
X163425238Y-82859523D01*
X163330000Y-82954761D01*
X163187142Y-83002380D01*
X162949047Y-83002380D01*
X163949047Y-82621428D02*
X164710952Y-82621428D01*
X164330000Y-83002380D02*
X164330000Y-82240476D01*
X165608095Y-82050000D02*
X165512857Y-82002380D01*
X165370000Y-82002380D01*
X165227142Y-82050000D01*
X165131904Y-82145238D01*
X165084285Y-82240476D01*
X165036666Y-82430952D01*
X165036666Y-82573809D01*
X165084285Y-82764285D01*
X165131904Y-82859523D01*
X165227142Y-82954761D01*
X165370000Y-83002380D01*
X165465238Y-83002380D01*
X165608095Y-82954761D01*
X165655714Y-82907142D01*
X165655714Y-82573809D01*
X165465238Y-82573809D01*
X166084285Y-83002380D02*
X166084285Y-82002380D01*
X166655714Y-83002380D01*
X166655714Y-82002380D01*
X167131904Y-83002380D02*
X167131904Y-82002380D01*
X167370000Y-82002380D01*
X167512857Y-82050000D01*
X167608095Y-82145238D01*
X167655714Y-82240476D01*
X167703333Y-82430952D01*
X167703333Y-82573809D01*
X167655714Y-82764285D01*
X167608095Y-82859523D01*
X167512857Y-82954761D01*
X167370000Y-83002380D01*
X167131904Y-83002380D01*
X158559523Y-82002380D02*
X158083333Y-82002380D01*
X158035714Y-82478571D01*
X158083333Y-82430952D01*
X158178571Y-82383333D01*
X158416666Y-82383333D01*
X158511904Y-82430952D01*
X158559523Y-82478571D01*
X158607142Y-82573809D01*
X158607142Y-82811904D01*
X158559523Y-82907142D01*
X158511904Y-82954761D01*
X158416666Y-83002380D01*
X158178571Y-83002380D01*
X158083333Y-82954761D01*
X158035714Y-82907142D01*
X158892857Y-82002380D02*
X159226190Y-83002380D01*
X159559523Y-82002380D01*
X147232857Y-43743571D02*
X147375714Y-43791190D01*
X147423333Y-43838809D01*
X147470952Y-43934047D01*
X147470952Y-44076904D01*
X147423333Y-44172142D01*
X147375714Y-44219761D01*
X147280476Y-44267380D01*
X146899523Y-44267380D01*
X146899523Y-43267380D01*
X147232857Y-43267380D01*
X147328095Y-43315000D01*
X147375714Y-43362619D01*
X147423333Y-43457857D01*
X147423333Y-43553095D01*
X147375714Y-43648333D01*
X147328095Y-43695952D01*
X147232857Y-43743571D01*
X146899523Y-43743571D01*
X148090000Y-43267380D02*
X148280476Y-43267380D01*
X148375714Y-43315000D01*
X148470952Y-43410238D01*
X148518571Y-43600714D01*
X148518571Y-43934047D01*
X148470952Y-44124523D01*
X148375714Y-44219761D01*
X148280476Y-44267380D01*
X148090000Y-44267380D01*
X147994761Y-44219761D01*
X147899523Y-44124523D01*
X147851904Y-43934047D01*
X147851904Y-43600714D01*
X147899523Y-43410238D01*
X147994761Y-43315000D01*
X148090000Y-43267380D01*
X149137619Y-43267380D02*
X149328095Y-43267380D01*
X149423333Y-43315000D01*
X149518571Y-43410238D01*
X149566190Y-43600714D01*
X149566190Y-43934047D01*
X149518571Y-44124523D01*
X149423333Y-44219761D01*
X149328095Y-44267380D01*
X149137619Y-44267380D01*
X149042380Y-44219761D01*
X148947142Y-44124523D01*
X148899523Y-43934047D01*
X148899523Y-43600714D01*
X148947142Y-43410238D01*
X149042380Y-43315000D01*
X149137619Y-43267380D01*
X149851904Y-43267380D02*
X150423333Y-43267380D01*
X150137619Y-44267380D02*
X150137619Y-43267380D01*
X147216904Y-45013571D02*
X147550238Y-45013571D01*
X147693095Y-45537380D02*
X147216904Y-45537380D01*
X147216904Y-44537380D01*
X147693095Y-44537380D01*
X148121666Y-45537380D02*
X148121666Y-44537380D01*
X148693095Y-45537380D01*
X148693095Y-44537380D01*
X147193095Y-45807380D02*
X147764523Y-45807380D01*
X147478809Y-46807380D02*
X147478809Y-45807380D01*
X148002619Y-45807380D02*
X148669285Y-46807380D01*
X148669285Y-45807380D02*
X148002619Y-46807380D01*
X147788333Y-48077380D02*
X147455000Y-47601190D01*
X147216904Y-48077380D02*
X147216904Y-47077380D01*
X147597857Y-47077380D01*
X147693095Y-47125000D01*
X147740714Y-47172619D01*
X147788333Y-47267857D01*
X147788333Y-47410714D01*
X147740714Y-47505952D01*
X147693095Y-47553571D01*
X147597857Y-47601190D01*
X147216904Y-47601190D01*
X148121666Y-47077380D02*
X148788333Y-48077380D01*
X148788333Y-47077380D02*
X148121666Y-48077380D01*
X147828095Y-48395000D02*
X147732857Y-48347380D01*
X147590000Y-48347380D01*
X147447142Y-48395000D01*
X147351904Y-48490238D01*
X147304285Y-48585476D01*
X147256666Y-48775952D01*
X147256666Y-48918809D01*
X147304285Y-49109285D01*
X147351904Y-49204523D01*
X147447142Y-49299761D01*
X147590000Y-49347380D01*
X147685238Y-49347380D01*
X147828095Y-49299761D01*
X147875714Y-49252142D01*
X147875714Y-48918809D01*
X147685238Y-48918809D01*
X148304285Y-49347380D02*
X148304285Y-48347380D01*
X148875714Y-49347380D01*
X148875714Y-48347380D01*
X149351904Y-49347380D02*
X149351904Y-48347380D01*
X149590000Y-48347380D01*
X149732857Y-48395000D01*
X149828095Y-48490238D01*
X149875714Y-48585476D01*
X149923333Y-48775952D01*
X149923333Y-48918809D01*
X149875714Y-49109285D01*
X149828095Y-49204523D01*
X149732857Y-49299761D01*
X149590000Y-49347380D01*
X149351904Y-49347380D01*
X168148095Y-63635000D02*
X168052857Y-63587380D01*
X167910000Y-63587380D01*
X167767142Y-63635000D01*
X167671904Y-63730238D01*
X167624285Y-63825476D01*
X167576666Y-64015952D01*
X167576666Y-64158809D01*
X167624285Y-64349285D01*
X167671904Y-64444523D01*
X167767142Y-64539761D01*
X167910000Y-64587380D01*
X168005238Y-64587380D01*
X168148095Y-64539761D01*
X168195714Y-64492142D01*
X168195714Y-64158809D01*
X168005238Y-64158809D01*
X168624285Y-64587380D02*
X168624285Y-63587380D01*
X169195714Y-64587380D01*
X169195714Y-63587380D01*
X169671904Y-64587380D02*
X169671904Y-63587380D01*
X169910000Y-63587380D01*
X170052857Y-63635000D01*
X170148095Y-63730238D01*
X170195714Y-63825476D01*
X170243333Y-64015952D01*
X170243333Y-64158809D01*
X170195714Y-64349285D01*
X170148095Y-64444523D01*
X170052857Y-64539761D01*
X169910000Y-64587380D01*
X169671904Y-64587380D01*
D13*
%TO.C,Q2*%
X146765000Y-72944000D02*
X146765000Y-75374000D01*
X146775000Y-72924000D02*
X147775000Y-72924000D01*
X149825000Y-72924000D02*
X149825000Y-74774000D01*
X148775000Y-72924000D02*
X149825000Y-72924000D01*
%TO.C,C8*%
X148394748Y-59663000D02*
X148917252Y-59663000D01*
X148394748Y-58193000D02*
X148917252Y-58193000D01*
%TO.C,C17*%
X122027836Y-47985000D02*
X121812164Y-47985000D01*
X122027836Y-47265000D02*
X121812164Y-47265000D01*
%TO.C,C16*%
X147601252Y-71395000D02*
X146178748Y-71395000D01*
X147601252Y-69575000D02*
X146178748Y-69575000D01*
%TO.C,C15*%
X136015000Y-73660580D02*
X136015000Y-73379420D01*
X137035000Y-73660580D02*
X137035000Y-73379420D01*
%TO.C,R11*%
X135355000Y-76330436D02*
X135355000Y-76784564D01*
X133885000Y-76330436D02*
X133885000Y-76784564D01*
%TO.C,U4*%
X135275000Y-71120000D02*
X135275000Y-69170000D01*
X135275000Y-71120000D02*
X135275000Y-73070000D01*
X130155000Y-71120000D02*
X130155000Y-69170000D01*
X130155000Y-71120000D02*
X130155000Y-74570000D01*
%TO.C,C14*%
X167365000Y-47672164D02*
X167365000Y-47887836D01*
X166645000Y-47672164D02*
X166645000Y-47887836D01*
%TO.C,C13*%
X170455000Y-51062836D02*
X170455000Y-50847164D01*
X171175000Y-51062836D02*
X171175000Y-50847164D01*
%TO.C,C12*%
X170862164Y-69490000D02*
X171077836Y-69490000D01*
X170862164Y-70210000D02*
X171077836Y-70210000D01*
%TO.C,C11*%
X170862164Y-72030000D02*
X171077836Y-72030000D01*
X170862164Y-72750000D02*
X171077836Y-72750000D01*
%TO.C,C10*%
X141095000Y-70765580D02*
X141095000Y-70484420D01*
X142115000Y-70765580D02*
X142115000Y-70484420D01*
%TO.C,R10*%
X131723641Y-75945000D02*
X131416359Y-75945000D01*
X131723641Y-75185000D02*
X131416359Y-75185000D01*
%TO.C,R9*%
X145388359Y-52706000D02*
X145695641Y-52706000D01*
X145388359Y-53466000D02*
X145695641Y-53466000D01*
%TO.C,R8*%
X146430000Y-56742359D02*
X146430000Y-57049641D01*
X145670000Y-56742359D02*
X145670000Y-57049641D01*
%TO.C,C9*%
X165020164Y-45360000D02*
X165235836Y-45360000D01*
X165020164Y-46080000D02*
X165235836Y-46080000D01*
%TO.C,U3*%
X150200000Y-63300000D02*
X150200000Y-61500000D01*
X146980000Y-61500000D02*
X146980000Y-63950000D01*
%TO.C,C7*%
X148002164Y-64410000D02*
X148217836Y-64410000D01*
X148002164Y-65130000D02*
X148217836Y-65130000D01*
%TO.C,J9*%
X142180000Y-65980000D02*
X142180000Y-68640000D01*
X149860000Y-65980000D02*
X142180000Y-65980000D01*
X149860000Y-68640000D02*
X142180000Y-68640000D01*
X149860000Y-65980000D02*
X149860000Y-68640000D01*
X151130000Y-65980000D02*
X152460000Y-65980000D01*
X152460000Y-65980000D02*
X152460000Y-67310000D01*
%TO.C,J8*%
X147260000Y-78680000D02*
X147260000Y-81340000D01*
X149860000Y-78680000D02*
X147260000Y-78680000D01*
X149860000Y-81340000D02*
X147260000Y-81340000D01*
X149860000Y-78680000D02*
X149860000Y-81340000D01*
X151130000Y-78680000D02*
X152460000Y-78680000D01*
X152460000Y-78680000D02*
X152460000Y-80010000D01*
%TO.C,J7*%
X137735000Y-73085000D02*
X140395000Y-73085000D01*
X137735000Y-70485000D02*
X137735000Y-73085000D01*
X140395000Y-70485000D02*
X140395000Y-73085000D01*
X137735000Y-70485000D02*
X140395000Y-70485000D01*
X137735000Y-69215000D02*
X137735000Y-67885000D01*
X137735000Y-67885000D02*
X139065000Y-67885000D01*
%TO.C,J6*%
X167700000Y-81340000D02*
X167700000Y-78680000D01*
X160020000Y-81340000D02*
X167700000Y-81340000D01*
X160020000Y-78680000D02*
X167700000Y-78680000D01*
X160020000Y-81340000D02*
X160020000Y-78680000D01*
X158750000Y-81340000D02*
X157420000Y-81340000D01*
X157420000Y-81340000D02*
X157420000Y-80010000D01*
%TO.C,Q1*%
X144540000Y-78288000D02*
X143080000Y-78288000D01*
X144540000Y-75128000D02*
X142380000Y-75128000D01*
X144540000Y-75128000D02*
X144540000Y-76058000D01*
X144540000Y-78288000D02*
X144540000Y-77358000D01*
%TO.C,R7*%
X145160000Y-73938641D02*
X145160000Y-73631359D01*
X144400000Y-73938641D02*
X144400000Y-73631359D01*
%TO.C,D2*%
X151397500Y-77697000D02*
X153682500Y-77697000D01*
X151397500Y-76227000D02*
X151397500Y-77697000D01*
X153682500Y-76227000D02*
X151397500Y-76227000D01*
%TO.C,D1*%
X150862500Y-76227000D02*
X148577500Y-76227000D01*
X150862500Y-77697000D02*
X150862500Y-76227000D01*
X148577500Y-77697000D02*
X150862500Y-77697000D01*
D14*
%TO.C,U1*%
X124350000Y-42165000D02*
X124350000Y-35665000D01*
X124350000Y-35665000D02*
X142350000Y-35665000D01*
X142350000Y-35665000D02*
X142350000Y-42165000D01*
X124350000Y-60665000D02*
X124350000Y-61165000D01*
X124350000Y-61165000D02*
X126350000Y-61165000D01*
X140350000Y-61165000D02*
X142350000Y-61165000D01*
X142350000Y-61165000D02*
X142350000Y-60665000D01*
D13*
%TO.C,J5*%
X165040000Y-62925000D02*
X165040000Y-61595000D01*
X166370000Y-62925000D02*
X165040000Y-62925000D01*
X165040000Y-60325000D02*
X165040000Y-57725000D01*
X167640000Y-60325000D02*
X165040000Y-60325000D01*
X167640000Y-62925000D02*
X167640000Y-60325000D01*
X165040000Y-57725000D02*
X170240000Y-57725000D01*
X167640000Y-62925000D02*
X170240000Y-62925000D01*
X170240000Y-62925000D02*
X170240000Y-57725000D01*
%TO.C,R6*%
X170458641Y-66930000D02*
X170151359Y-66930000D01*
X170458641Y-67690000D02*
X170151359Y-67690000D01*
%TO.C,R5*%
X170458641Y-46610000D02*
X170151359Y-46610000D01*
X170458641Y-47370000D02*
X170151359Y-47370000D01*
%TO.C,J4*%
X172720000Y-66040000D02*
X173990000Y-66040000D01*
X172720000Y-67310000D02*
X172720000Y-66040000D01*
X175032929Y-80390000D02*
X175487071Y-80390000D01*
X175032929Y-79630000D02*
X175487071Y-79630000D01*
X177572929Y-80390000D02*
X177970000Y-80390000D01*
X177572929Y-79630000D02*
X177970000Y-79630000D01*
X186630000Y-80390000D02*
X180630000Y-80390000D01*
X186630000Y-79630000D02*
X186630000Y-80390000D01*
X180630000Y-79630000D02*
X186630000Y-79630000D01*
X177970000Y-78740000D02*
X180630000Y-78740000D01*
X175032929Y-77850000D02*
X175487071Y-77850000D01*
X175032929Y-77090000D02*
X175487071Y-77090000D01*
X177572929Y-77850000D02*
X177970000Y-77850000D01*
X177572929Y-77090000D02*
X177970000Y-77090000D01*
X186630000Y-77850000D02*
X180630000Y-77850000D01*
X186630000Y-77090000D02*
X186630000Y-77850000D01*
X180630000Y-77090000D02*
X186630000Y-77090000D01*
X177970000Y-76200000D02*
X180630000Y-76200000D01*
X175032929Y-75310000D02*
X175487071Y-75310000D01*
X175032929Y-74550000D02*
X175487071Y-74550000D01*
X177572929Y-75310000D02*
X177970000Y-75310000D01*
X177572929Y-74550000D02*
X177970000Y-74550000D01*
X186630000Y-75310000D02*
X180630000Y-75310000D01*
X186630000Y-74550000D02*
X186630000Y-75310000D01*
X180630000Y-74550000D02*
X186630000Y-74550000D01*
X177970000Y-73660000D02*
X180630000Y-73660000D01*
X175032929Y-72770000D02*
X175487071Y-72770000D01*
X175032929Y-72010000D02*
X175487071Y-72010000D01*
X177572929Y-72770000D02*
X177970000Y-72770000D01*
X177572929Y-72010000D02*
X177970000Y-72010000D01*
X186630000Y-72770000D02*
X180630000Y-72770000D01*
X186630000Y-72010000D02*
X186630000Y-72770000D01*
X180630000Y-72010000D02*
X186630000Y-72010000D01*
X177970000Y-71120000D02*
X180630000Y-71120000D01*
X175032929Y-70230000D02*
X175487071Y-70230000D01*
X175032929Y-69470000D02*
X175487071Y-69470000D01*
X177572929Y-70230000D02*
X177970000Y-70230000D01*
X177572929Y-69470000D02*
X177970000Y-69470000D01*
X186630000Y-70230000D02*
X180630000Y-70230000D01*
X186630000Y-69470000D02*
X186630000Y-70230000D01*
X180630000Y-69470000D02*
X186630000Y-69470000D01*
X177970000Y-68580000D02*
X180630000Y-68580000D01*
X175100000Y-67690000D02*
X175487071Y-67690000D01*
X175100000Y-66930000D02*
X175487071Y-66930000D01*
X177572929Y-67690000D02*
X177970000Y-67690000D01*
X177572929Y-66930000D02*
X177970000Y-66930000D01*
X180630000Y-67590000D02*
X186630000Y-67590000D01*
X180630000Y-67470000D02*
X186630000Y-67470000D01*
X180630000Y-67350000D02*
X186630000Y-67350000D01*
X180630000Y-67230000D02*
X186630000Y-67230000D01*
X180630000Y-67110000D02*
X186630000Y-67110000D01*
X180630000Y-66990000D02*
X186630000Y-66990000D01*
X186630000Y-67690000D02*
X180630000Y-67690000D01*
X186630000Y-66930000D02*
X186630000Y-67690000D01*
X180630000Y-66930000D02*
X186630000Y-66930000D01*
X180630000Y-65980000D02*
X177970000Y-65980000D01*
X180630000Y-81340000D02*
X180630000Y-65980000D01*
X177970000Y-81340000D02*
X180630000Y-81340000D01*
X177970000Y-65980000D02*
X177970000Y-81340000D01*
%TO.C,J3*%
X172720000Y-45720000D02*
X173990000Y-45720000D01*
X172720000Y-46990000D02*
X172720000Y-45720000D01*
X175032929Y-60070000D02*
X175487071Y-60070000D01*
X175032929Y-59310000D02*
X175487071Y-59310000D01*
X177572929Y-60070000D02*
X177970000Y-60070000D01*
X177572929Y-59310000D02*
X177970000Y-59310000D01*
X186630000Y-60070000D02*
X180630000Y-60070000D01*
X186630000Y-59310000D02*
X186630000Y-60070000D01*
X180630000Y-59310000D02*
X186630000Y-59310000D01*
X177970000Y-58420000D02*
X180630000Y-58420000D01*
X175032929Y-57530000D02*
X175487071Y-57530000D01*
X175032929Y-56770000D02*
X175487071Y-56770000D01*
X177572929Y-57530000D02*
X177970000Y-57530000D01*
X177572929Y-56770000D02*
X177970000Y-56770000D01*
X186630000Y-57530000D02*
X180630000Y-57530000D01*
X186630000Y-56770000D02*
X186630000Y-57530000D01*
X180630000Y-56770000D02*
X186630000Y-56770000D01*
X177970000Y-55880000D02*
X180630000Y-55880000D01*
X175032929Y-54990000D02*
X175487071Y-54990000D01*
X175032929Y-54230000D02*
X175487071Y-54230000D01*
X177572929Y-54990000D02*
X177970000Y-54990000D01*
X177572929Y-54230000D02*
X177970000Y-54230000D01*
X186630000Y-54990000D02*
X180630000Y-54990000D01*
X186630000Y-54230000D02*
X186630000Y-54990000D01*
X180630000Y-54230000D02*
X186630000Y-54230000D01*
X177970000Y-53340000D02*
X180630000Y-53340000D01*
X175032929Y-52450000D02*
X175487071Y-52450000D01*
X175032929Y-51690000D02*
X175487071Y-51690000D01*
X177572929Y-52450000D02*
X177970000Y-52450000D01*
X177572929Y-51690000D02*
X177970000Y-51690000D01*
X186630000Y-52450000D02*
X180630000Y-52450000D01*
X186630000Y-51690000D02*
X186630000Y-52450000D01*
X180630000Y-51690000D02*
X186630000Y-51690000D01*
X177970000Y-50800000D02*
X180630000Y-50800000D01*
X175032929Y-49910000D02*
X175487071Y-49910000D01*
X175032929Y-49150000D02*
X175487071Y-49150000D01*
X177572929Y-49910000D02*
X177970000Y-49910000D01*
X177572929Y-49150000D02*
X177970000Y-49150000D01*
X186630000Y-49910000D02*
X180630000Y-49910000D01*
X186630000Y-49150000D02*
X186630000Y-49910000D01*
X180630000Y-49150000D02*
X186630000Y-49150000D01*
X177970000Y-48260000D02*
X180630000Y-48260000D01*
X175100000Y-47370000D02*
X175487071Y-47370000D01*
X175100000Y-46610000D02*
X175487071Y-46610000D01*
X177572929Y-47370000D02*
X177970000Y-47370000D01*
X177572929Y-46610000D02*
X177970000Y-46610000D01*
X180630000Y-47270000D02*
X186630000Y-47270000D01*
X180630000Y-47150000D02*
X186630000Y-47150000D01*
X180630000Y-47030000D02*
X186630000Y-47030000D01*
X180630000Y-46910000D02*
X186630000Y-46910000D01*
X180630000Y-46790000D02*
X186630000Y-46790000D01*
X180630000Y-46670000D02*
X186630000Y-46670000D01*
X186630000Y-47370000D02*
X180630000Y-47370000D01*
X186630000Y-46610000D02*
X186630000Y-47370000D01*
X180630000Y-46610000D02*
X186630000Y-46610000D01*
X180630000Y-45660000D02*
X177970000Y-45660000D01*
X180630000Y-61020000D02*
X180630000Y-45660000D01*
X177970000Y-61020000D02*
X180630000Y-61020000D01*
X177970000Y-45660000D02*
X177970000Y-61020000D01*
%TO.C,FB1*%
X167515000Y-52867779D02*
X167515000Y-52542221D01*
X166495000Y-52867779D02*
X166495000Y-52542221D01*
%TO.C,C6*%
X165460000Y-52657836D02*
X165460000Y-52442164D01*
X164740000Y-52657836D02*
X164740000Y-52442164D01*
%TO.C,C5*%
X155312164Y-44650000D02*
X155527836Y-44650000D01*
X155312164Y-43930000D02*
X155527836Y-43930000D01*
%TO.C,C4*%
X150474000Y-53193836D02*
X150474000Y-52978164D01*
X149754000Y-53193836D02*
X149754000Y-52978164D01*
%TO.C,C3*%
X159647836Y-58822000D02*
X159432164Y-58822000D01*
X159647836Y-59542000D02*
X159432164Y-59542000D01*
%TO.C,C2*%
X155312164Y-42905000D02*
X155527836Y-42905000D01*
X155312164Y-42185000D02*
X155527836Y-42185000D01*
D10*
%TO.C,U2*%
X162528000Y-46735000D02*
X161953000Y-46735000D01*
X162528000Y-57085000D02*
X161853000Y-57085000D01*
X152178000Y-57085000D02*
X152853000Y-57085000D01*
X152178000Y-46735000D02*
X152853000Y-46735000D01*
X162528000Y-46735000D02*
X162528000Y-47410000D01*
X152178000Y-46735000D02*
X152178000Y-47410000D01*
X152178000Y-57085000D02*
X152178000Y-56410000D01*
X162528000Y-57085000D02*
X162528000Y-56410000D01*
X161953000Y-46735000D02*
X161953000Y-45460000D01*
D13*
%TO.C,J1*%
X146961000Y-49876000D02*
X145851000Y-49876000D01*
X146961000Y-49116000D02*
X146961000Y-49876000D01*
X145287529Y-48356000D02*
X144741000Y-48356000D01*
X146961000Y-48356000D02*
X146414471Y-48356000D01*
X144741000Y-48356000D02*
X144741000Y-43341000D01*
X146961000Y-48356000D02*
X146961000Y-43341000D01*
X145543470Y-43341000D02*
X144741000Y-43341000D01*
X146961000Y-43341000D02*
X146158530Y-43341000D01*
%TO.C,C1*%
X122821000Y-43061836D02*
X122821000Y-42846164D01*
X122101000Y-43061836D02*
X122101000Y-42846164D01*
%TO.C,R1*%
X122081000Y-44802359D02*
X122081000Y-45109641D01*
X122841000Y-44802359D02*
X122841000Y-45109641D01*
%TO.C,R2*%
X153698641Y-42165000D02*
X153391359Y-42165000D01*
X153698641Y-42925000D02*
X153391359Y-42925000D01*
%TO.C,R3*%
X139327359Y-62236000D02*
X139634641Y-62236000D01*
X139327359Y-62996000D02*
X139634641Y-62996000D01*
%TO.C,R4*%
X122841000Y-60042359D02*
X122841000Y-60349641D01*
X122081000Y-60042359D02*
X122081000Y-60349641D01*
%TO.C,Q2*%
D10*
X146372619Y-73969238D02*
X146325000Y-74064476D01*
X146229761Y-74159714D01*
X146086904Y-74302571D01*
X146039285Y-74397809D01*
X146039285Y-74493047D01*
X146277380Y-74445428D02*
X146229761Y-74540666D01*
X146134523Y-74635904D01*
X145944047Y-74683523D01*
X145610714Y-74683523D01*
X145420238Y-74635904D01*
X145325000Y-74540666D01*
X145277380Y-74445428D01*
X145277380Y-74254952D01*
X145325000Y-74159714D01*
X145420238Y-74064476D01*
X145610714Y-74016857D01*
X145944047Y-74016857D01*
X146134523Y-74064476D01*
X146229761Y-74159714D01*
X146277380Y-74254952D01*
X146277380Y-74445428D01*
X145372619Y-73635904D02*
X145325000Y-73588285D01*
X145277380Y-73493047D01*
X145277380Y-73254952D01*
X145325000Y-73159714D01*
X145372619Y-73112095D01*
X145467857Y-73064476D01*
X145563095Y-73064476D01*
X145705952Y-73112095D01*
X146277380Y-73683523D01*
X146277380Y-73064476D01*
%TO.C,C8*%
X148489333Y-57605142D02*
X148441714Y-57652761D01*
X148298857Y-57700380D01*
X148203619Y-57700380D01*
X148060761Y-57652761D01*
X147965523Y-57557523D01*
X147917904Y-57462285D01*
X147870285Y-57271809D01*
X147870285Y-57128952D01*
X147917904Y-56938476D01*
X147965523Y-56843238D01*
X148060761Y-56748000D01*
X148203619Y-56700380D01*
X148298857Y-56700380D01*
X148441714Y-56748000D01*
X148489333Y-56795619D01*
X149060761Y-57128952D02*
X148965523Y-57081333D01*
X148917904Y-57033714D01*
X148870285Y-56938476D01*
X148870285Y-56890857D01*
X148917904Y-56795619D01*
X148965523Y-56748000D01*
X149060761Y-56700380D01*
X149251238Y-56700380D01*
X149346476Y-56748000D01*
X149394095Y-56795619D01*
X149441714Y-56890857D01*
X149441714Y-56938476D01*
X149394095Y-57033714D01*
X149346476Y-57081333D01*
X149251238Y-57128952D01*
X149060761Y-57128952D01*
X148965523Y-57176571D01*
X148917904Y-57224190D01*
X148870285Y-57319428D01*
X148870285Y-57509904D01*
X148917904Y-57605142D01*
X148965523Y-57652761D01*
X149060761Y-57700380D01*
X149251238Y-57700380D01*
X149346476Y-57652761D01*
X149394095Y-57605142D01*
X149441714Y-57509904D01*
X149441714Y-57319428D01*
X149394095Y-57224190D01*
X149346476Y-57176571D01*
X149251238Y-57128952D01*
%TO.C,C17*%
X121277142Y-49142142D02*
X121229523Y-49189761D01*
X121086666Y-49237380D01*
X120991428Y-49237380D01*
X120848571Y-49189761D01*
X120753333Y-49094523D01*
X120705714Y-48999285D01*
X120658095Y-48808809D01*
X120658095Y-48665952D01*
X120705714Y-48475476D01*
X120753333Y-48380238D01*
X120848571Y-48285000D01*
X120991428Y-48237380D01*
X121086666Y-48237380D01*
X121229523Y-48285000D01*
X121277142Y-48332619D01*
X122229523Y-49237380D02*
X121658095Y-49237380D01*
X121943809Y-49237380D02*
X121943809Y-48237380D01*
X121848571Y-48380238D01*
X121753333Y-48475476D01*
X121658095Y-48523095D01*
X122562857Y-48237380D02*
X123229523Y-48237380D01*
X122800952Y-49237380D01*
%TO.C,C16*%
X149979142Y-70969142D02*
X149931523Y-71016761D01*
X149788666Y-71064380D01*
X149693428Y-71064380D01*
X149550571Y-71016761D01*
X149455333Y-70921523D01*
X149407714Y-70826285D01*
X149360095Y-70635809D01*
X149360095Y-70492952D01*
X149407714Y-70302476D01*
X149455333Y-70207238D01*
X149550571Y-70112000D01*
X149693428Y-70064380D01*
X149788666Y-70064380D01*
X149931523Y-70112000D01*
X149979142Y-70159619D01*
X150931523Y-71064380D02*
X150360095Y-71064380D01*
X150645809Y-71064380D02*
X150645809Y-70064380D01*
X150550571Y-70207238D01*
X150455333Y-70302476D01*
X150360095Y-70350095D01*
X151788666Y-70064380D02*
X151598190Y-70064380D01*
X151502952Y-70112000D01*
X151455333Y-70159619D01*
X151360095Y-70302476D01*
X151312476Y-70492952D01*
X151312476Y-70873904D01*
X151360095Y-70969142D01*
X151407714Y-71016761D01*
X151502952Y-71064380D01*
X151693428Y-71064380D01*
X151788666Y-71016761D01*
X151836285Y-70969142D01*
X151883904Y-70873904D01*
X151883904Y-70635809D01*
X151836285Y-70540571D01*
X151788666Y-70492952D01*
X151693428Y-70445333D01*
X151502952Y-70445333D01*
X151407714Y-70492952D01*
X151360095Y-70540571D01*
X151312476Y-70635809D01*
%TO.C,C15*%
X137009142Y-71254857D02*
X137056761Y-71302476D01*
X137104380Y-71445333D01*
X137104380Y-71540571D01*
X137056761Y-71683428D01*
X136961523Y-71778666D01*
X136866285Y-71826285D01*
X136675809Y-71873904D01*
X136532952Y-71873904D01*
X136342476Y-71826285D01*
X136247238Y-71778666D01*
X136152000Y-71683428D01*
X136104380Y-71540571D01*
X136104380Y-71445333D01*
X136152000Y-71302476D01*
X136199619Y-71254857D01*
X137104380Y-70302476D02*
X137104380Y-70873904D01*
X137104380Y-70588190D02*
X136104380Y-70588190D01*
X136247238Y-70683428D01*
X136342476Y-70778666D01*
X136390095Y-70873904D01*
X136104380Y-69397714D02*
X136104380Y-69873904D01*
X136580571Y-69921523D01*
X136532952Y-69873904D01*
X136485333Y-69778666D01*
X136485333Y-69540571D01*
X136532952Y-69445333D01*
X136580571Y-69397714D01*
X136675809Y-69350095D01*
X136913904Y-69350095D01*
X137009142Y-69397714D01*
X137056761Y-69445333D01*
X137104380Y-69540571D01*
X137104380Y-69778666D01*
X137056761Y-69873904D01*
X137009142Y-69921523D01*
%TO.C,R11*%
X136722380Y-77200357D02*
X136246190Y-77533690D01*
X136722380Y-77771785D02*
X135722380Y-77771785D01*
X135722380Y-77390833D01*
X135770000Y-77295595D01*
X135817619Y-77247976D01*
X135912857Y-77200357D01*
X136055714Y-77200357D01*
X136150952Y-77247976D01*
X136198571Y-77295595D01*
X136246190Y-77390833D01*
X136246190Y-77771785D01*
X136722380Y-76247976D02*
X136722380Y-76819404D01*
X136722380Y-76533690D02*
X135722380Y-76533690D01*
X135865238Y-76628928D01*
X135960476Y-76724166D01*
X136008095Y-76819404D01*
X136722380Y-75295595D02*
X136722380Y-75867023D01*
X136722380Y-75581309D02*
X135722380Y-75581309D01*
X135865238Y-75676547D01*
X135960476Y-75771785D01*
X136008095Y-75867023D01*
%TO.C,U4*%
X128767380Y-71881904D02*
X129576904Y-71881904D01*
X129672142Y-71834285D01*
X129719761Y-71786666D01*
X129767380Y-71691428D01*
X129767380Y-71500952D01*
X129719761Y-71405714D01*
X129672142Y-71358095D01*
X129576904Y-71310476D01*
X128767380Y-71310476D01*
X129100714Y-70405714D02*
X129767380Y-70405714D01*
X128719761Y-70643809D02*
X129434047Y-70881904D01*
X129434047Y-70262857D01*
%TO.C,C14*%
X168522142Y-48422857D02*
X168569761Y-48470476D01*
X168617380Y-48613333D01*
X168617380Y-48708571D01*
X168569761Y-48851428D01*
X168474523Y-48946666D01*
X168379285Y-48994285D01*
X168188809Y-49041904D01*
X168045952Y-49041904D01*
X167855476Y-48994285D01*
X167760238Y-48946666D01*
X167665000Y-48851428D01*
X167617380Y-48708571D01*
X167617380Y-48613333D01*
X167665000Y-48470476D01*
X167712619Y-48422857D01*
X168617380Y-47470476D02*
X168617380Y-48041904D01*
X168617380Y-47756190D02*
X167617380Y-47756190D01*
X167760238Y-47851428D01*
X167855476Y-47946666D01*
X167903095Y-48041904D01*
X167950714Y-46613333D02*
X168617380Y-46613333D01*
X167569761Y-46851428D02*
X168284047Y-47089523D01*
X168284047Y-46470476D01*
%TO.C,C13*%
X170012142Y-51597857D02*
X170059761Y-51645476D01*
X170107380Y-51788333D01*
X170107380Y-51883571D01*
X170059761Y-52026428D01*
X169964523Y-52121666D01*
X169869285Y-52169285D01*
X169678809Y-52216904D01*
X169535952Y-52216904D01*
X169345476Y-52169285D01*
X169250238Y-52121666D01*
X169155000Y-52026428D01*
X169107380Y-51883571D01*
X169107380Y-51788333D01*
X169155000Y-51645476D01*
X169202619Y-51597857D01*
X170107380Y-50645476D02*
X170107380Y-51216904D01*
X170107380Y-50931190D02*
X169107380Y-50931190D01*
X169250238Y-51026428D01*
X169345476Y-51121666D01*
X169393095Y-51216904D01*
X169107380Y-50312142D02*
X169107380Y-49693095D01*
X169488333Y-50026428D01*
X169488333Y-49883571D01*
X169535952Y-49788333D01*
X169583571Y-49740714D01*
X169678809Y-49693095D01*
X169916904Y-49693095D01*
X170012142Y-49740714D01*
X170059761Y-49788333D01*
X170107380Y-49883571D01*
X170107380Y-50169285D01*
X170059761Y-50264523D01*
X170012142Y-50312142D01*
%TO.C,C12*%
X170327142Y-69047142D02*
X170279523Y-69094761D01*
X170136666Y-69142380D01*
X170041428Y-69142380D01*
X169898571Y-69094761D01*
X169803333Y-68999523D01*
X169755714Y-68904285D01*
X169708095Y-68713809D01*
X169708095Y-68570952D01*
X169755714Y-68380476D01*
X169803333Y-68285238D01*
X169898571Y-68190000D01*
X170041428Y-68142380D01*
X170136666Y-68142380D01*
X170279523Y-68190000D01*
X170327142Y-68237619D01*
X171279523Y-69142380D02*
X170708095Y-69142380D01*
X170993809Y-69142380D02*
X170993809Y-68142380D01*
X170898571Y-68285238D01*
X170803333Y-68380476D01*
X170708095Y-68428095D01*
X171660476Y-68237619D02*
X171708095Y-68190000D01*
X171803333Y-68142380D01*
X172041428Y-68142380D01*
X172136666Y-68190000D01*
X172184285Y-68237619D01*
X172231904Y-68332857D01*
X172231904Y-68428095D01*
X172184285Y-68570952D01*
X171612857Y-69142380D01*
X172231904Y-69142380D01*
%TO.C,C11*%
X170327142Y-71587142D02*
X170279523Y-71634761D01*
X170136666Y-71682380D01*
X170041428Y-71682380D01*
X169898571Y-71634761D01*
X169803333Y-71539523D01*
X169755714Y-71444285D01*
X169708095Y-71253809D01*
X169708095Y-71110952D01*
X169755714Y-70920476D01*
X169803333Y-70825238D01*
X169898571Y-70730000D01*
X170041428Y-70682380D01*
X170136666Y-70682380D01*
X170279523Y-70730000D01*
X170327142Y-70777619D01*
X171279523Y-71682380D02*
X170708095Y-71682380D01*
X170993809Y-71682380D02*
X170993809Y-70682380D01*
X170898571Y-70825238D01*
X170803333Y-70920476D01*
X170708095Y-70968095D01*
X172231904Y-71682380D02*
X171660476Y-71682380D01*
X171946190Y-71682380D02*
X171946190Y-70682380D01*
X171850952Y-70825238D01*
X171755714Y-70920476D01*
X171660476Y-70968095D01*
%TO.C,C10*%
X141835142Y-74188857D02*
X141882761Y-74236476D01*
X141930380Y-74379333D01*
X141930380Y-74474571D01*
X141882761Y-74617428D01*
X141787523Y-74712666D01*
X141692285Y-74760285D01*
X141501809Y-74807904D01*
X141358952Y-74807904D01*
X141168476Y-74760285D01*
X141073238Y-74712666D01*
X140978000Y-74617428D01*
X140930380Y-74474571D01*
X140930380Y-74379333D01*
X140978000Y-74236476D01*
X141025619Y-74188857D01*
X141930380Y-73236476D02*
X141930380Y-73807904D01*
X141930380Y-73522190D02*
X140930380Y-73522190D01*
X141073238Y-73617428D01*
X141168476Y-73712666D01*
X141216095Y-73807904D01*
X140930380Y-72617428D02*
X140930380Y-72522190D01*
X140978000Y-72426952D01*
X141025619Y-72379333D01*
X141120857Y-72331714D01*
X141311333Y-72284095D01*
X141549428Y-72284095D01*
X141739904Y-72331714D01*
X141835142Y-72379333D01*
X141882761Y-72426952D01*
X141930380Y-72522190D01*
X141930380Y-72617428D01*
X141882761Y-72712666D01*
X141835142Y-72760285D01*
X141739904Y-72807904D01*
X141549428Y-72855523D01*
X141311333Y-72855523D01*
X141120857Y-72807904D01*
X141025619Y-72760285D01*
X140978000Y-72712666D01*
X140930380Y-72617428D01*
%TO.C,R10*%
X130927142Y-77187380D02*
X130593809Y-76711190D01*
X130355714Y-77187380D02*
X130355714Y-76187380D01*
X130736666Y-76187380D01*
X130831904Y-76235000D01*
X130879523Y-76282619D01*
X130927142Y-76377857D01*
X130927142Y-76520714D01*
X130879523Y-76615952D01*
X130831904Y-76663571D01*
X130736666Y-76711190D01*
X130355714Y-76711190D01*
X131879523Y-77187380D02*
X131308095Y-77187380D01*
X131593809Y-77187380D02*
X131593809Y-76187380D01*
X131498571Y-76330238D01*
X131403333Y-76425476D01*
X131308095Y-76473095D01*
X132498571Y-76187380D02*
X132593809Y-76187380D01*
X132689047Y-76235000D01*
X132736666Y-76282619D01*
X132784285Y-76377857D01*
X132831904Y-76568333D01*
X132831904Y-76806428D01*
X132784285Y-76996904D01*
X132736666Y-77092142D01*
X132689047Y-77139761D01*
X132593809Y-77187380D01*
X132498571Y-77187380D01*
X132403333Y-77139761D01*
X132355714Y-77092142D01*
X132308095Y-76996904D01*
X132260476Y-76806428D01*
X132260476Y-76568333D01*
X132308095Y-76377857D01*
X132355714Y-76282619D01*
X132403333Y-76235000D01*
X132498571Y-76187380D01*
%TO.C,R9*%
X145375333Y-54808380D02*
X145042000Y-54332190D01*
X144803904Y-54808380D02*
X144803904Y-53808380D01*
X145184857Y-53808380D01*
X145280095Y-53856000D01*
X145327714Y-53903619D01*
X145375333Y-53998857D01*
X145375333Y-54141714D01*
X145327714Y-54236952D01*
X145280095Y-54284571D01*
X145184857Y-54332190D01*
X144803904Y-54332190D01*
X145851523Y-54808380D02*
X146042000Y-54808380D01*
X146137238Y-54760761D01*
X146184857Y-54713142D01*
X146280095Y-54570285D01*
X146327714Y-54379809D01*
X146327714Y-53998857D01*
X146280095Y-53903619D01*
X146232476Y-53856000D01*
X146137238Y-53808380D01*
X145946761Y-53808380D01*
X145851523Y-53856000D01*
X145803904Y-53903619D01*
X145756285Y-53998857D01*
X145756285Y-54236952D01*
X145803904Y-54332190D01*
X145851523Y-54379809D01*
X145946761Y-54427428D01*
X146137238Y-54427428D01*
X146232476Y-54379809D01*
X146280095Y-54332190D01*
X146327714Y-54236952D01*
%TO.C,R8*%
X145486380Y-57062666D02*
X145010190Y-57396000D01*
X145486380Y-57634095D02*
X144486380Y-57634095D01*
X144486380Y-57253142D01*
X144534000Y-57157904D01*
X144581619Y-57110285D01*
X144676857Y-57062666D01*
X144819714Y-57062666D01*
X144914952Y-57110285D01*
X144962571Y-57157904D01*
X145010190Y-57253142D01*
X145010190Y-57634095D01*
X144914952Y-56491238D02*
X144867333Y-56586476D01*
X144819714Y-56634095D01*
X144724476Y-56681714D01*
X144676857Y-56681714D01*
X144581619Y-56634095D01*
X144534000Y-56586476D01*
X144486380Y-56491238D01*
X144486380Y-56300761D01*
X144534000Y-56205523D01*
X144581619Y-56157904D01*
X144676857Y-56110285D01*
X144724476Y-56110285D01*
X144819714Y-56157904D01*
X144867333Y-56205523D01*
X144914952Y-56300761D01*
X144914952Y-56491238D01*
X144962571Y-56586476D01*
X145010190Y-56634095D01*
X145105428Y-56681714D01*
X145295904Y-56681714D01*
X145391142Y-56634095D01*
X145438761Y-56586476D01*
X145486380Y-56491238D01*
X145486380Y-56300761D01*
X145438761Y-56205523D01*
X145391142Y-56157904D01*
X145295904Y-56110285D01*
X145105428Y-56110285D01*
X145010190Y-56157904D01*
X144962571Y-56205523D01*
X144914952Y-56300761D01*
%TO.C,C9*%
X164961333Y-44917142D02*
X164913714Y-44964761D01*
X164770857Y-45012380D01*
X164675619Y-45012380D01*
X164532761Y-44964761D01*
X164437523Y-44869523D01*
X164389904Y-44774285D01*
X164342285Y-44583809D01*
X164342285Y-44440952D01*
X164389904Y-44250476D01*
X164437523Y-44155238D01*
X164532761Y-44060000D01*
X164675619Y-44012380D01*
X164770857Y-44012380D01*
X164913714Y-44060000D01*
X164961333Y-44107619D01*
X165437523Y-45012380D02*
X165628000Y-45012380D01*
X165723238Y-44964761D01*
X165770857Y-44917142D01*
X165866095Y-44774285D01*
X165913714Y-44583809D01*
X165913714Y-44202857D01*
X165866095Y-44107619D01*
X165818476Y-44060000D01*
X165723238Y-44012380D01*
X165532761Y-44012380D01*
X165437523Y-44060000D01*
X165389904Y-44107619D01*
X165342285Y-44202857D01*
X165342285Y-44440952D01*
X165389904Y-44536190D01*
X165437523Y-44583809D01*
X165532761Y-44631428D01*
X165723238Y-44631428D01*
X165818476Y-44583809D01*
X165866095Y-44536190D01*
X165913714Y-44440952D01*
%TO.C,U3*%
X145142380Y-63161904D02*
X145951904Y-63161904D01*
X146047142Y-63114285D01*
X146094761Y-63066666D01*
X146142380Y-62971428D01*
X146142380Y-62780952D01*
X146094761Y-62685714D01*
X146047142Y-62638095D01*
X145951904Y-62590476D01*
X145142380Y-62590476D01*
X145142380Y-62209523D02*
X145142380Y-61590476D01*
X145523333Y-61923809D01*
X145523333Y-61780952D01*
X145570952Y-61685714D01*
X145618571Y-61638095D01*
X145713809Y-61590476D01*
X145951904Y-61590476D01*
X146047142Y-61638095D01*
X146094761Y-61685714D01*
X146142380Y-61780952D01*
X146142380Y-62066666D01*
X146094761Y-62161904D01*
X146047142Y-62209523D01*
%TO.C,C7*%
X147943333Y-63967142D02*
X147895714Y-64014761D01*
X147752857Y-64062380D01*
X147657619Y-64062380D01*
X147514761Y-64014761D01*
X147419523Y-63919523D01*
X147371904Y-63824285D01*
X147324285Y-63633809D01*
X147324285Y-63490952D01*
X147371904Y-63300476D01*
X147419523Y-63205238D01*
X147514761Y-63110000D01*
X147657619Y-63062380D01*
X147752857Y-63062380D01*
X147895714Y-63110000D01*
X147943333Y-63157619D01*
X148276666Y-63062380D02*
X148943333Y-63062380D01*
X148514761Y-64062380D01*
%TO.C,J8*%
X152912380Y-80343333D02*
X153626666Y-80343333D01*
X153769523Y-80390952D01*
X153864761Y-80486190D01*
X153912380Y-80629047D01*
X153912380Y-80724285D01*
X153340952Y-79724285D02*
X153293333Y-79819523D01*
X153245714Y-79867142D01*
X153150476Y-79914761D01*
X153102857Y-79914761D01*
X153007619Y-79867142D01*
X152960000Y-79819523D01*
X152912380Y-79724285D01*
X152912380Y-79533809D01*
X152960000Y-79438571D01*
X153007619Y-79390952D01*
X153102857Y-79343333D01*
X153150476Y-79343333D01*
X153245714Y-79390952D01*
X153293333Y-79438571D01*
X153340952Y-79533809D01*
X153340952Y-79724285D01*
X153388571Y-79819523D01*
X153436190Y-79867142D01*
X153531428Y-79914761D01*
X153721904Y-79914761D01*
X153817142Y-79867142D01*
X153864761Y-79819523D01*
X153912380Y-79724285D01*
X153912380Y-79533809D01*
X153864761Y-79438571D01*
X153817142Y-79390952D01*
X153721904Y-79343333D01*
X153531428Y-79343333D01*
X153436190Y-79390952D01*
X153388571Y-79438571D01*
X153340952Y-79533809D01*
%TO.C,J6*%
X155872380Y-80343333D02*
X156586666Y-80343333D01*
X156729523Y-80390952D01*
X156824761Y-80486190D01*
X156872380Y-80629047D01*
X156872380Y-80724285D01*
X155872380Y-79438571D02*
X155872380Y-79629047D01*
X155920000Y-79724285D01*
X155967619Y-79771904D01*
X156110476Y-79867142D01*
X156300952Y-79914761D01*
X156681904Y-79914761D01*
X156777142Y-79867142D01*
X156824761Y-79819523D01*
X156872380Y-79724285D01*
X156872380Y-79533809D01*
X156824761Y-79438571D01*
X156777142Y-79390952D01*
X156681904Y-79343333D01*
X156443809Y-79343333D01*
X156348571Y-79390952D01*
X156300952Y-79438571D01*
X156253333Y-79533809D01*
X156253333Y-79724285D01*
X156300952Y-79819523D01*
X156348571Y-79867142D01*
X156443809Y-79914761D01*
%TO.C,Q1*%
X146462761Y-77255619D02*
X146367523Y-77208000D01*
X146272285Y-77112761D01*
X146129428Y-76969904D01*
X146034190Y-76922285D01*
X145938952Y-76922285D01*
X145986571Y-77160380D02*
X145891333Y-77112761D01*
X145796095Y-77017523D01*
X145748476Y-76827047D01*
X145748476Y-76493714D01*
X145796095Y-76303238D01*
X145891333Y-76208000D01*
X145986571Y-76160380D01*
X146177047Y-76160380D01*
X146272285Y-76208000D01*
X146367523Y-76303238D01*
X146415142Y-76493714D01*
X146415142Y-76827047D01*
X146367523Y-77017523D01*
X146272285Y-77112761D01*
X146177047Y-77160380D01*
X145986571Y-77160380D01*
X147367523Y-77160380D02*
X146796095Y-77160380D01*
X147081809Y-77160380D02*
X147081809Y-76160380D01*
X146986571Y-76303238D01*
X146891333Y-76398476D01*
X146796095Y-76446095D01*
%TO.C,R7*%
X144062380Y-73826666D02*
X143586190Y-74160000D01*
X144062380Y-74398095D02*
X143062380Y-74398095D01*
X143062380Y-74017142D01*
X143110000Y-73921904D01*
X143157619Y-73874285D01*
X143252857Y-73826666D01*
X143395714Y-73826666D01*
X143490952Y-73874285D01*
X143538571Y-73921904D01*
X143586190Y-74017142D01*
X143586190Y-74398095D01*
X143062380Y-73493333D02*
X143062380Y-72826666D01*
X144062380Y-73255238D01*
%TO.C,D2*%
X152169904Y-78938380D02*
X152169904Y-77938380D01*
X152408000Y-77938380D01*
X152550857Y-77986000D01*
X152646095Y-78081238D01*
X152693714Y-78176476D01*
X152741333Y-78366952D01*
X152741333Y-78509809D01*
X152693714Y-78700285D01*
X152646095Y-78795523D01*
X152550857Y-78890761D01*
X152408000Y-78938380D01*
X152169904Y-78938380D01*
X153122285Y-78033619D02*
X153169904Y-77986000D01*
X153265142Y-77938380D01*
X153503238Y-77938380D01*
X153598476Y-77986000D01*
X153646095Y-78033619D01*
X153693714Y-78128857D01*
X153693714Y-78224095D01*
X153646095Y-78366952D01*
X153074666Y-78938380D01*
X153693714Y-78938380D01*
%TO.C,D1*%
X148639404Y-78938380D02*
X148639404Y-77938380D01*
X148877500Y-77938380D01*
X149020357Y-77986000D01*
X149115595Y-78081238D01*
X149163214Y-78176476D01*
X149210833Y-78366952D01*
X149210833Y-78509809D01*
X149163214Y-78700285D01*
X149115595Y-78795523D01*
X149020357Y-78890761D01*
X148877500Y-78938380D01*
X148639404Y-78938380D01*
X150163214Y-78938380D02*
X149591785Y-78938380D01*
X149877500Y-78938380D02*
X149877500Y-77938380D01*
X149782261Y-78081238D01*
X149687023Y-78176476D01*
X149591785Y-78224095D01*
%TO.C,U1*%
X132036190Y-44864761D02*
X132036190Y-45633809D01*
X132081428Y-45724285D01*
X132126666Y-45769523D01*
X132217142Y-45814761D01*
X132398095Y-45814761D01*
X132488571Y-45769523D01*
X132533809Y-45724285D01*
X132579047Y-45633809D01*
X132579047Y-44864761D01*
X133529047Y-45814761D02*
X132986190Y-45814761D01*
X133257619Y-45814761D02*
X133257619Y-44864761D01*
X133167142Y-45000476D01*
X133076666Y-45090952D01*
X132986190Y-45136190D01*
X135799285Y-59720238D02*
X135799285Y-59296904D01*
X136464523Y-59115476D02*
X136464523Y-59720238D01*
X135194523Y-59720238D01*
X135194523Y-59115476D01*
X136404047Y-58631666D02*
X136464523Y-58450238D01*
X136464523Y-58147857D01*
X136404047Y-58026904D01*
X136343571Y-57966428D01*
X136222619Y-57905952D01*
X136101666Y-57905952D01*
X135980714Y-57966428D01*
X135920238Y-58026904D01*
X135859761Y-58147857D01*
X135799285Y-58389761D01*
X135738809Y-58510714D01*
X135678333Y-58571190D01*
X135557380Y-58631666D01*
X135436428Y-58631666D01*
X135315476Y-58571190D01*
X135255000Y-58510714D01*
X135194523Y-58389761D01*
X135194523Y-58087380D01*
X135255000Y-57905952D01*
X136464523Y-57361666D02*
X135194523Y-57361666D01*
X135194523Y-56877857D01*
X135255000Y-56756904D01*
X135315476Y-56696428D01*
X135436428Y-56635952D01*
X135617857Y-56635952D01*
X135738809Y-56696428D01*
X135799285Y-56756904D01*
X135859761Y-56877857D01*
X135859761Y-57361666D01*
X135194523Y-56212619D02*
X135194523Y-55426428D01*
X135678333Y-55849761D01*
X135678333Y-55668333D01*
X135738809Y-55547380D01*
X135799285Y-55486904D01*
X135920238Y-55426428D01*
X136222619Y-55426428D01*
X136343571Y-55486904D01*
X136404047Y-55547380D01*
X136464523Y-55668333D01*
X136464523Y-56031190D01*
X136404047Y-56152142D01*
X136343571Y-56212619D01*
X135315476Y-54942619D02*
X135255000Y-54882142D01*
X135194523Y-54761190D01*
X135194523Y-54458809D01*
X135255000Y-54337857D01*
X135315476Y-54277380D01*
X135436428Y-54216904D01*
X135557380Y-54216904D01*
X135738809Y-54277380D01*
X136464523Y-55003095D01*
X136464523Y-54216904D01*
X135980714Y-53672619D02*
X135980714Y-52705000D01*
X135194523Y-52221190D02*
X136464523Y-51918809D01*
X135557380Y-51676904D01*
X136464523Y-51435000D01*
X135194523Y-51132619D01*
X136464523Y-49923095D02*
X135859761Y-50346428D01*
X136464523Y-50648809D02*
X135194523Y-50648809D01*
X135194523Y-50165000D01*
X135255000Y-50044047D01*
X135315476Y-49983571D01*
X135436428Y-49923095D01*
X135617857Y-49923095D01*
X135738809Y-49983571D01*
X135799285Y-50044047D01*
X135859761Y-50165000D01*
X135859761Y-50648809D01*
X135194523Y-49136904D02*
X135194523Y-48895000D01*
X135255000Y-48774047D01*
X135375952Y-48653095D01*
X135617857Y-48592619D01*
X136041190Y-48592619D01*
X136283095Y-48653095D01*
X136404047Y-48774047D01*
X136464523Y-48895000D01*
X136464523Y-49136904D01*
X136404047Y-49257857D01*
X136283095Y-49378809D01*
X136041190Y-49439285D01*
X135617857Y-49439285D01*
X135375952Y-49378809D01*
X135255000Y-49257857D01*
X135194523Y-49136904D01*
X135194523Y-47806428D02*
X135194523Y-47564523D01*
X135255000Y-47443571D01*
X135375952Y-47322619D01*
X135617857Y-47262142D01*
X136041190Y-47262142D01*
X136283095Y-47322619D01*
X136404047Y-47443571D01*
X136464523Y-47564523D01*
X136464523Y-47806428D01*
X136404047Y-47927380D01*
X136283095Y-48048333D01*
X136041190Y-48108809D01*
X135617857Y-48108809D01*
X135375952Y-48048333D01*
X135255000Y-47927380D01*
X135194523Y-47806428D01*
X136464523Y-46717857D02*
X135194523Y-46717857D01*
X136101666Y-46294523D01*
X135194523Y-45871190D01*
X136464523Y-45871190D01*
X135980714Y-45266428D02*
X135980714Y-44298809D01*
X135194523Y-43815000D02*
X135194523Y-43028809D01*
X135678333Y-43452142D01*
X135678333Y-43270714D01*
X135738809Y-43149761D01*
X135799285Y-43089285D01*
X135920238Y-43028809D01*
X136222619Y-43028809D01*
X136343571Y-43089285D01*
X136404047Y-43149761D01*
X136464523Y-43270714D01*
X136464523Y-43633571D01*
X136404047Y-43754523D01*
X136343571Y-43815000D01*
X135315476Y-42545000D02*
X135255000Y-42484523D01*
X135194523Y-42363571D01*
X135194523Y-42061190D01*
X135255000Y-41940238D01*
X135315476Y-41879761D01*
X135436428Y-41819285D01*
X135557380Y-41819285D01*
X135738809Y-41879761D01*
X136464523Y-42605476D01*
X136464523Y-41819285D01*
X136464523Y-41275000D02*
X135194523Y-41275000D01*
X135194523Y-40972619D01*
X135255000Y-40791190D01*
X135375952Y-40670238D01*
X135496904Y-40609761D01*
X135738809Y-40549285D01*
X135920238Y-40549285D01*
X136162142Y-40609761D01*
X136283095Y-40670238D01*
X136404047Y-40791190D01*
X136464523Y-40972619D01*
X136464523Y-41275000D01*
%TO.C,J5*%
X163492380Y-60658333D02*
X164206666Y-60658333D01*
X164349523Y-60705952D01*
X164444761Y-60801190D01*
X164492380Y-60944047D01*
X164492380Y-61039285D01*
X163492380Y-59705952D02*
X163492380Y-60182142D01*
X163968571Y-60229761D01*
X163920952Y-60182142D01*
X163873333Y-60086904D01*
X163873333Y-59848809D01*
X163920952Y-59753571D01*
X163968571Y-59705952D01*
X164063809Y-59658333D01*
X164301904Y-59658333D01*
X164397142Y-59705952D01*
X164444761Y-59753571D01*
X164492380Y-59848809D01*
X164492380Y-60086904D01*
X164444761Y-60182142D01*
X164397142Y-60229761D01*
%TO.C,R6*%
X170138333Y-66746380D02*
X169805000Y-66270190D01*
X169566904Y-66746380D02*
X169566904Y-65746380D01*
X169947857Y-65746380D01*
X170043095Y-65794000D01*
X170090714Y-65841619D01*
X170138333Y-65936857D01*
X170138333Y-66079714D01*
X170090714Y-66174952D01*
X170043095Y-66222571D01*
X169947857Y-66270190D01*
X169566904Y-66270190D01*
X170995476Y-65746380D02*
X170805000Y-65746380D01*
X170709761Y-65794000D01*
X170662142Y-65841619D01*
X170566904Y-65984476D01*
X170519285Y-66174952D01*
X170519285Y-66555904D01*
X170566904Y-66651142D01*
X170614523Y-66698761D01*
X170709761Y-66746380D01*
X170900238Y-66746380D01*
X170995476Y-66698761D01*
X171043095Y-66651142D01*
X171090714Y-66555904D01*
X171090714Y-66317809D01*
X171043095Y-66222571D01*
X170995476Y-66174952D01*
X170900238Y-66127333D01*
X170709761Y-66127333D01*
X170614523Y-66174952D01*
X170566904Y-66222571D01*
X170519285Y-66317809D01*
%TO.C,R5*%
X170138333Y-48612380D02*
X169805000Y-48136190D01*
X169566904Y-48612380D02*
X169566904Y-47612380D01*
X169947857Y-47612380D01*
X170043095Y-47660000D01*
X170090714Y-47707619D01*
X170138333Y-47802857D01*
X170138333Y-47945714D01*
X170090714Y-48040952D01*
X170043095Y-48088571D01*
X169947857Y-48136190D01*
X169566904Y-48136190D01*
X171043095Y-47612380D02*
X170566904Y-47612380D01*
X170519285Y-48088571D01*
X170566904Y-48040952D01*
X170662142Y-47993333D01*
X170900238Y-47993333D01*
X170995476Y-48040952D01*
X171043095Y-48088571D01*
X171090714Y-48183809D01*
X171090714Y-48421904D01*
X171043095Y-48517142D01*
X170995476Y-48564761D01*
X170900238Y-48612380D01*
X170662142Y-48612380D01*
X170566904Y-48564761D01*
X170519285Y-48517142D01*
%TO.C,J4*%
X179311666Y-64492380D02*
X179311666Y-65206666D01*
X179264047Y-65349523D01*
X179168809Y-65444761D01*
X179025952Y-65492380D01*
X178930714Y-65492380D01*
X180216428Y-64825714D02*
X180216428Y-65492380D01*
X179978333Y-64444761D02*
X179740238Y-65159047D01*
X180359285Y-65159047D01*
%TO.C,J3*%
X179311666Y-44172380D02*
X179311666Y-44886666D01*
X179264047Y-45029523D01*
X179168809Y-45124761D01*
X179025952Y-45172380D01*
X178930714Y-45172380D01*
X179692619Y-44172380D02*
X180311666Y-44172380D01*
X179978333Y-44553333D01*
X180121190Y-44553333D01*
X180216428Y-44600952D01*
X180264047Y-44648571D01*
X180311666Y-44743809D01*
X180311666Y-44981904D01*
X180264047Y-45077142D01*
X180216428Y-45124761D01*
X180121190Y-45172380D01*
X179835476Y-45172380D01*
X179740238Y-45124761D01*
X179692619Y-45077142D01*
%TO.C,FB1*%
X168203571Y-53538333D02*
X168203571Y-53871666D01*
X168727380Y-53871666D02*
X167727380Y-53871666D01*
X167727380Y-53395476D01*
X168203571Y-52681190D02*
X168251190Y-52538333D01*
X168298809Y-52490714D01*
X168394047Y-52443095D01*
X168536904Y-52443095D01*
X168632142Y-52490714D01*
X168679761Y-52538333D01*
X168727380Y-52633571D01*
X168727380Y-53014523D01*
X167727380Y-53014523D01*
X167727380Y-52681190D01*
X167775000Y-52585952D01*
X167822619Y-52538333D01*
X167917857Y-52490714D01*
X168013095Y-52490714D01*
X168108333Y-52538333D01*
X168155952Y-52585952D01*
X168203571Y-52681190D01*
X168203571Y-53014523D01*
X168727380Y-51490714D02*
X168727380Y-52062142D01*
X168727380Y-51776428D02*
X167727380Y-51776428D01*
X167870238Y-51871666D01*
X167965476Y-51966904D01*
X168013095Y-52062142D01*
%TO.C,C6*%
X165457142Y-54776666D02*
X165504761Y-54824285D01*
X165552380Y-54967142D01*
X165552380Y-55062380D01*
X165504761Y-55205238D01*
X165409523Y-55300476D01*
X165314285Y-55348095D01*
X165123809Y-55395714D01*
X164980952Y-55395714D01*
X164790476Y-55348095D01*
X164695238Y-55300476D01*
X164600000Y-55205238D01*
X164552380Y-55062380D01*
X164552380Y-54967142D01*
X164600000Y-54824285D01*
X164647619Y-54776666D01*
X164552380Y-53919523D02*
X164552380Y-54110000D01*
X164600000Y-54205238D01*
X164647619Y-54252857D01*
X164790476Y-54348095D01*
X164980952Y-54395714D01*
X165361904Y-54395714D01*
X165457142Y-54348095D01*
X165504761Y-54300476D01*
X165552380Y-54205238D01*
X165552380Y-54014761D01*
X165504761Y-53919523D01*
X165457142Y-53871904D01*
X165361904Y-53824285D01*
X165123809Y-53824285D01*
X165028571Y-53871904D01*
X164980952Y-53919523D01*
X164933333Y-54014761D01*
X164933333Y-54205238D01*
X164980952Y-54300476D01*
X165028571Y-54348095D01*
X165123809Y-54395714D01*
%TO.C,C5*%
X153503333Y-44807142D02*
X153455714Y-44854761D01*
X153312857Y-44902380D01*
X153217619Y-44902380D01*
X153074761Y-44854761D01*
X152979523Y-44759523D01*
X152931904Y-44664285D01*
X152884285Y-44473809D01*
X152884285Y-44330952D01*
X152931904Y-44140476D01*
X152979523Y-44045238D01*
X153074761Y-43950000D01*
X153217619Y-43902380D01*
X153312857Y-43902380D01*
X153455714Y-43950000D01*
X153503333Y-43997619D01*
X154408095Y-43902380D02*
X153931904Y-43902380D01*
X153884285Y-44378571D01*
X153931904Y-44330952D01*
X154027142Y-44283333D01*
X154265238Y-44283333D01*
X154360476Y-44330952D01*
X154408095Y-44378571D01*
X154455714Y-44473809D01*
X154455714Y-44711904D01*
X154408095Y-44807142D01*
X154360476Y-44854761D01*
X154265238Y-44902380D01*
X154027142Y-44902380D01*
X153931904Y-44854761D01*
X153884285Y-44807142D01*
%TO.C,C4*%
X149311142Y-53252666D02*
X149358761Y-53300285D01*
X149406380Y-53443142D01*
X149406380Y-53538380D01*
X149358761Y-53681238D01*
X149263523Y-53776476D01*
X149168285Y-53824095D01*
X148977809Y-53871714D01*
X148834952Y-53871714D01*
X148644476Y-53824095D01*
X148549238Y-53776476D01*
X148454000Y-53681238D01*
X148406380Y-53538380D01*
X148406380Y-53443142D01*
X148454000Y-53300285D01*
X148501619Y-53252666D01*
X148739714Y-52395523D02*
X149406380Y-52395523D01*
X148358761Y-52633619D02*
X149073047Y-52871714D01*
X149073047Y-52252666D01*
%TO.C,C3*%
X159373333Y-60699142D02*
X159325714Y-60746761D01*
X159182857Y-60794380D01*
X159087619Y-60794380D01*
X158944761Y-60746761D01*
X158849523Y-60651523D01*
X158801904Y-60556285D01*
X158754285Y-60365809D01*
X158754285Y-60222952D01*
X158801904Y-60032476D01*
X158849523Y-59937238D01*
X158944761Y-59842000D01*
X159087619Y-59794380D01*
X159182857Y-59794380D01*
X159325714Y-59842000D01*
X159373333Y-59889619D01*
X159706666Y-59794380D02*
X160325714Y-59794380D01*
X159992380Y-60175333D01*
X160135238Y-60175333D01*
X160230476Y-60222952D01*
X160278095Y-60270571D01*
X160325714Y-60365809D01*
X160325714Y-60603904D01*
X160278095Y-60699142D01*
X160230476Y-60746761D01*
X160135238Y-60794380D01*
X159849523Y-60794380D01*
X159754285Y-60746761D01*
X159706666Y-60699142D01*
%TO.C,C2*%
X155408333Y-41632142D02*
X155360714Y-41679761D01*
X155217857Y-41727380D01*
X155122619Y-41727380D01*
X154979761Y-41679761D01*
X154884523Y-41584523D01*
X154836904Y-41489285D01*
X154789285Y-41298809D01*
X154789285Y-41155952D01*
X154836904Y-40965476D01*
X154884523Y-40870238D01*
X154979761Y-40775000D01*
X155122619Y-40727380D01*
X155217857Y-40727380D01*
X155360714Y-40775000D01*
X155408333Y-40822619D01*
X155789285Y-40822619D02*
X155836904Y-40775000D01*
X155932142Y-40727380D01*
X156170238Y-40727380D01*
X156265476Y-40775000D01*
X156313095Y-40822619D01*
X156360714Y-40917857D01*
X156360714Y-41013095D01*
X156313095Y-41155952D01*
X155741666Y-41727380D01*
X156360714Y-41727380D01*
%TO.C,U2*%
X162647380Y-47116904D02*
X163456904Y-47116904D01*
X163552142Y-47069285D01*
X163599761Y-47021666D01*
X163647380Y-46926428D01*
X163647380Y-46735952D01*
X163599761Y-46640714D01*
X163552142Y-46593095D01*
X163456904Y-46545476D01*
X162647380Y-46545476D01*
X162742619Y-46116904D02*
X162695000Y-46069285D01*
X162647380Y-45974047D01*
X162647380Y-45735952D01*
X162695000Y-45640714D01*
X162742619Y-45593095D01*
X162837857Y-45545476D01*
X162933095Y-45545476D01*
X163075952Y-45593095D01*
X163647380Y-46164523D01*
X163647380Y-45545476D01*
%TO.C,J1*%
X145517666Y-50263380D02*
X145517666Y-50977666D01*
X145470047Y-51120523D01*
X145374809Y-51215761D01*
X145231952Y-51263380D01*
X145136714Y-51263380D01*
X146517666Y-51263380D02*
X145946238Y-51263380D01*
X146231952Y-51263380D02*
X146231952Y-50263380D01*
X146136714Y-50406238D01*
X146041476Y-50501476D01*
X145946238Y-50549095D01*
%TO.C,C1*%
X121658142Y-43120666D02*
X121705761Y-43168285D01*
X121753380Y-43311142D01*
X121753380Y-43406380D01*
X121705761Y-43549238D01*
X121610523Y-43644476D01*
X121515285Y-43692095D01*
X121324809Y-43739714D01*
X121181952Y-43739714D01*
X120991476Y-43692095D01*
X120896238Y-43644476D01*
X120801000Y-43549238D01*
X120753380Y-43406380D01*
X120753380Y-43311142D01*
X120801000Y-43168285D01*
X120848619Y-43120666D01*
X121753380Y-42168285D02*
X121753380Y-42739714D01*
X121753380Y-42454000D02*
X120753380Y-42454000D01*
X120896238Y-42549238D01*
X120991476Y-42644476D01*
X121039095Y-42739714D01*
%TO.C,R1*%
X121737380Y-45251666D02*
X121261190Y-45585000D01*
X121737380Y-45823095D02*
X120737380Y-45823095D01*
X120737380Y-45442142D01*
X120785000Y-45346904D01*
X120832619Y-45299285D01*
X120927857Y-45251666D01*
X121070714Y-45251666D01*
X121165952Y-45299285D01*
X121213571Y-45346904D01*
X121261190Y-45442142D01*
X121261190Y-45823095D01*
X121737380Y-44299285D02*
X121737380Y-44870714D01*
X121737380Y-44585000D02*
X120737380Y-44585000D01*
X120880238Y-44680238D01*
X120975476Y-44775476D01*
X121023095Y-44870714D01*
%TO.C,R2*%
X153378333Y-41727380D02*
X153045000Y-41251190D01*
X152806904Y-41727380D02*
X152806904Y-40727380D01*
X153187857Y-40727380D01*
X153283095Y-40775000D01*
X153330714Y-40822619D01*
X153378333Y-40917857D01*
X153378333Y-41060714D01*
X153330714Y-41155952D01*
X153283095Y-41203571D01*
X153187857Y-41251190D01*
X152806904Y-41251190D01*
X153759285Y-40822619D02*
X153806904Y-40775000D01*
X153902142Y-40727380D01*
X154140238Y-40727380D01*
X154235476Y-40775000D01*
X154283095Y-40822619D01*
X154330714Y-40917857D01*
X154330714Y-41013095D01*
X154283095Y-41155952D01*
X153711666Y-41727380D01*
X154330714Y-41727380D01*
%TO.C,R3*%
X136993333Y-63317380D02*
X136660000Y-62841190D01*
X136421904Y-63317380D02*
X136421904Y-62317380D01*
X136802857Y-62317380D01*
X136898095Y-62365000D01*
X136945714Y-62412619D01*
X136993333Y-62507857D01*
X136993333Y-62650714D01*
X136945714Y-62745952D01*
X136898095Y-62793571D01*
X136802857Y-62841190D01*
X136421904Y-62841190D01*
X137326666Y-62317380D02*
X137945714Y-62317380D01*
X137612380Y-62698333D01*
X137755238Y-62698333D01*
X137850476Y-62745952D01*
X137898095Y-62793571D01*
X137945714Y-62888809D01*
X137945714Y-63126904D01*
X137898095Y-63222142D01*
X137850476Y-63269761D01*
X137755238Y-63317380D01*
X137469523Y-63317380D01*
X137374285Y-63269761D01*
X137326666Y-63222142D01*
%TO.C,R4*%
X122880380Y-62396666D02*
X122404190Y-62730000D01*
X122880380Y-62968095D02*
X121880380Y-62968095D01*
X121880380Y-62587142D01*
X121928000Y-62491904D01*
X121975619Y-62444285D01*
X122070857Y-62396666D01*
X122213714Y-62396666D01*
X122308952Y-62444285D01*
X122356571Y-62491904D01*
X122404190Y-62587142D01*
X122404190Y-62968095D01*
X122213714Y-61539523D02*
X122880380Y-61539523D01*
X121832761Y-61777619D02*
X122547047Y-62015714D01*
X122547047Y-61396666D01*
%TD*%
M02*
