%TF.GenerationSoftware,KiCad,Pcbnew,5.1.9+dfsg1-1*%
%TF.CreationDate,2021-11-08T10:09:36+01:00*%
%TF.ProjectId,Controller,436f6e74-726f-46c6-9c65-722e6b696361,rev?*%
%TF.SameCoordinates,Original*%
%TF.FileFunction,Copper,L1,Top*%
%TF.FilePolarity,Positive*%
%FSLAX46Y46*%
G04 Gerber Fmt 4.6, Leading zero omitted, Abs format (unit mm)*
G04 Created by KiCad (PCBNEW 5.1.9+dfsg1-1) date 2021-11-08 10:09:36*
%MOMM*%
%LPD*%
G01*
G04 APERTURE LIST*
%TA.AperFunction,ComponentPad*%
%ADD10O,1.700000X1.700000*%
%TD*%
%TA.AperFunction,ComponentPad*%
%ADD11R,1.700000X1.700000*%
%TD*%
%TA.AperFunction,ViaPad*%
%ADD12C,0.800000*%
%TD*%
%TA.AperFunction,Conductor*%
%ADD13C,0.250000*%
%TD*%
%TA.AperFunction,Conductor*%
%ADD14C,0.254000*%
%TD*%
%TA.AperFunction,Conductor*%
%ADD15C,0.100000*%
%TD*%
G04 APERTURE END LIST*
D10*
%TO.P,J6,2*%
%TO.N,Net-(D6-Pad2)*%
X103000000Y-67460000D03*
D11*
%TO.P,J6,1*%
%TO.N,/CON_BMC*%
X103000000Y-70000000D03*
%TD*%
D10*
%TO.P,J5,2*%
%TO.N,/CON_BMC*%
X103000000Y-84960000D03*
D11*
%TO.P,J5,1*%
%TO.N,Net-(D3-Pad2)*%
X103000000Y-87500000D03*
%TD*%
%TO.P,R1,2*%
%TO.N,+3V3*%
%TA.AperFunction,SMDPad,CuDef*%
G36*
G01*
X106815000Y-88230000D02*
X107185000Y-88230000D01*
G75*
G02*
X107320000Y-88365000I0J-135000D01*
G01*
X107320000Y-88635000D01*
G75*
G02*
X107185000Y-88770000I-135000J0D01*
G01*
X106815000Y-88770000D01*
G75*
G02*
X106680000Y-88635000I0J135000D01*
G01*
X106680000Y-88365000D01*
G75*
G02*
X106815000Y-88230000I135000J0D01*
G01*
G37*
%TD.AperFunction*%
%TO.P,R1,1*%
%TO.N,Net-(J2-Pad2)*%
%TA.AperFunction,SMDPad,CuDef*%
G36*
G01*
X106815000Y-87210000D02*
X107185000Y-87210000D01*
G75*
G02*
X107320000Y-87345000I0J-135000D01*
G01*
X107320000Y-87615000D01*
G75*
G02*
X107185000Y-87750000I-135000J0D01*
G01*
X106815000Y-87750000D01*
G75*
G02*
X106680000Y-87615000I0J135000D01*
G01*
X106680000Y-87345000D01*
G75*
G02*
X106815000Y-87210000I135000J0D01*
G01*
G37*
%TD.AperFunction*%
%TD*%
D10*
%TO.P,J4,2*%
%TO.N,GND*%
X126540000Y-67000000D03*
D11*
%TO.P,J4,1*%
%TO.N,+3V3*%
X124000000Y-67000000D03*
%TD*%
D10*
%TO.P,J3,2*%
%TO.N,GND*%
X126540000Y-72000000D03*
D11*
%TO.P,J3,1*%
%TO.N,/CON_AUD*%
X124000000Y-72000000D03*
%TD*%
D10*
%TO.P,J2,5*%
%TO.N,/CON_JB*%
X120000000Y-85500000D03*
%TO.P,J2,4*%
%TO.N,/CON_Y*%
X117460000Y-85500000D03*
%TO.P,J2,3*%
%TO.N,/CON_X*%
X114920000Y-85500000D03*
%TO.P,J2,2*%
%TO.N,Net-(J2-Pad2)*%
X112380000Y-85500000D03*
D11*
%TO.P,J2,1*%
%TO.N,GND*%
X109840000Y-85500000D03*
%TD*%
D10*
%TO.P,J1,12*%
%TO.N,GND*%
X107420000Y-64040000D03*
%TO.P,J1,11*%
%TO.N,/CON_BMC*%
X107420000Y-61500000D03*
%TO.P,J1,10*%
%TO.N,/CON_BM2*%
X109960000Y-64040000D03*
%TO.P,J1,9*%
%TO.N,/CON_BMB*%
X109960000Y-61500000D03*
%TO.P,J1,8*%
%TO.N,/CON_BM1*%
X112500000Y-64040000D03*
%TO.P,J1,7*%
%TO.N,/CON_BMA*%
X112500000Y-61500000D03*
%TO.P,J1,6*%
%TO.N,/CON_JB*%
X115040000Y-64040000D03*
%TO.P,J1,5*%
%TO.N,/CON_Y*%
X115040000Y-61500000D03*
%TO.P,J1,4*%
%TO.N,N/C*%
X117580000Y-64040000D03*
%TO.P,J1,3*%
%TO.N,/CON_X*%
X117580000Y-61500000D03*
%TO.P,J1,2*%
%TO.N,/CON_AUD*%
X120120000Y-64040000D03*
D11*
%TO.P,J1,1*%
%TO.N,+3V3*%
X120120000Y-61500000D03*
%TD*%
D12*
%TO.N,/CON_BM1*%
X112500000Y-82000000D03*
%TO.N,/CON_BM2*%
X105500000Y-86500000D03*
X105500000Y-69000000D03*
%TO.N,GND*%
X123698000Y-80772000D03*
X120650000Y-76962000D03*
X121412000Y-73660000D03*
X108204000Y-77216000D03*
X108966000Y-91440000D03*
X118364000Y-91440000D03*
X126238000Y-84836000D03*
X116332000Y-69596000D03*
X126746000Y-61214000D03*
X122936000Y-61214000D03*
%TO.N,/CON_BMB*%
X116262653Y-83237347D03*
X116500000Y-75500000D03*
%TO.N,/CON_BMA*%
X111500000Y-80000000D03*
%TO.N,GND*%
X103000000Y-77500000D03*
%TD*%
D13*
%TO.N,/CON_BM1*%
X112500000Y-64040000D02*
X112500000Y-79000000D01*
X112500000Y-79000000D02*
X112500000Y-82000000D01*
%TO.N,/CON_BM2*%
X105500000Y-86500000D02*
X105500000Y-78000000D01*
X105500000Y-69000000D02*
X105500000Y-78000000D01*
%TO.N,/CON_BMC*%
X103000000Y-84960000D02*
X101500000Y-83460000D01*
X101500000Y-71500000D02*
X103000000Y-70000000D01*
X101500000Y-83460000D02*
X101500000Y-71500000D01*
X101235098Y-62265958D02*
X101235098Y-68235098D01*
X106570001Y-60650001D02*
X102851055Y-60650001D01*
X101235098Y-68235098D02*
X103000000Y-70000000D01*
X102851055Y-60650001D02*
X101235098Y-62265958D01*
X107420000Y-61500000D02*
X106570001Y-60650001D01*
%TO.N,/CON_BMB*%
X116262653Y-75737347D02*
X116500000Y-75500000D01*
X116262653Y-83237347D02*
X116262653Y-75737347D01*
%TO.N,/CON_BMA*%
X111324999Y-62675001D02*
X112500000Y-61500000D01*
X111324999Y-79824999D02*
X111324999Y-62675001D01*
X111500000Y-80000000D02*
X111324999Y-79824999D01*
%TO.N,/CON_Y*%
X117500000Y-85500000D02*
X118080000Y-85500000D01*
%TO.N,+3V3*%
X120120000Y-62060000D02*
X120120000Y-61500000D01*
X124000000Y-65380000D02*
X120120000Y-61500000D01*
%TO.N,GND*%
X110500000Y-85460000D02*
X110460000Y-85500000D01*
%TO.N,/CON_JB*%
X113555001Y-65524999D02*
X115040000Y-64040000D01*
X113555001Y-85874003D02*
X113555001Y-65524999D01*
X115230988Y-87549990D02*
X113555001Y-85874003D01*
X117950010Y-87549990D02*
X115230988Y-87549990D01*
X120000000Y-85500000D02*
X117950010Y-87549990D01*
%TO.N,/CON_Y*%
X116215001Y-62675001D02*
X115040000Y-61500000D01*
X116215001Y-64414003D02*
X116215001Y-62675001D01*
X117460000Y-65659002D02*
X116215001Y-64414003D01*
X117460000Y-85500000D02*
X117460000Y-65659002D01*
%TO.N,/CON_X*%
X118824999Y-62744999D02*
X117580000Y-61500000D01*
X118824999Y-85874003D02*
X118824999Y-62744999D01*
X118024001Y-86675001D02*
X118824999Y-85874003D01*
X116095001Y-86675001D02*
X118024001Y-86675001D01*
X114920000Y-85500000D02*
X116095001Y-86675001D01*
%TO.N,/CON_AUD*%
X123460000Y-71460000D02*
X124000000Y-72000000D01*
X123460000Y-68785002D02*
X123460000Y-71460000D01*
X120120000Y-65445002D02*
X123460000Y-68785002D01*
X120120000Y-64040000D02*
X120120000Y-65445002D01*
%TO.N,+3V3*%
X124000000Y-67000000D02*
X124000000Y-65380000D01*
X125175001Y-81314999D02*
X125175001Y-68175001D01*
X125175001Y-68175001D02*
X124000000Y-67000000D01*
X125000000Y-81490000D02*
X125175001Y-81314999D01*
X125000000Y-84500000D02*
X125000000Y-81490000D01*
X121000000Y-88500000D02*
X125000000Y-84500000D01*
X107000000Y-88500000D02*
X121000000Y-88500000D01*
%TO.N,Net-(J2-Pad2)*%
X110400000Y-87480000D02*
X107000000Y-87480000D01*
X112380000Y-85500000D02*
X110400000Y-87480000D01*
%TD*%
D14*
%TO.N,GND*%
X127315000Y-65734386D02*
X127306920Y-65728359D01*
X127044099Y-65603175D01*
X126896890Y-65558524D01*
X126667000Y-65679845D01*
X126667000Y-66873000D01*
X126687000Y-66873000D01*
X126687000Y-67127000D01*
X126667000Y-67127000D01*
X126667000Y-68320155D01*
X126896890Y-68441476D01*
X127044099Y-68396825D01*
X127306920Y-68271641D01*
X127315000Y-68265614D01*
X127315000Y-70734386D01*
X127306920Y-70728359D01*
X127044099Y-70603175D01*
X126896890Y-70558524D01*
X126667000Y-70679845D01*
X126667000Y-71873000D01*
X126687000Y-71873000D01*
X126687000Y-72127000D01*
X126667000Y-72127000D01*
X126667000Y-73320155D01*
X126896890Y-73441476D01*
X127044099Y-73396825D01*
X127306920Y-73271641D01*
X127315000Y-73265614D01*
X127315001Y-95315000D01*
X100685000Y-95315000D01*
X100685000Y-92823762D01*
X101210624Y-92823762D01*
X101210624Y-93176238D01*
X101279389Y-93521942D01*
X101414276Y-93847587D01*
X101610101Y-94140661D01*
X101859339Y-94389899D01*
X102152413Y-94585724D01*
X102478058Y-94720611D01*
X102823762Y-94789376D01*
X103176238Y-94789376D01*
X103521942Y-94720611D01*
X103847587Y-94585724D01*
X104140661Y-94389899D01*
X104389899Y-94140661D01*
X104585724Y-93847587D01*
X104720611Y-93521942D01*
X104789376Y-93176238D01*
X104789376Y-92823762D01*
X123210624Y-92823762D01*
X123210624Y-93176238D01*
X123279389Y-93521942D01*
X123414276Y-93847587D01*
X123610101Y-94140661D01*
X123859339Y-94389899D01*
X124152413Y-94585724D01*
X124478058Y-94720611D01*
X124823762Y-94789376D01*
X125176238Y-94789376D01*
X125521942Y-94720611D01*
X125847587Y-94585724D01*
X126140661Y-94389899D01*
X126389899Y-94140661D01*
X126585724Y-93847587D01*
X126720611Y-93521942D01*
X126789376Y-93176238D01*
X126789376Y-92823762D01*
X126720611Y-92478058D01*
X126585724Y-92152413D01*
X126389899Y-91859339D01*
X126140661Y-91610101D01*
X125847587Y-91414276D01*
X125521942Y-91279389D01*
X125176238Y-91210624D01*
X124823762Y-91210624D01*
X124478058Y-91279389D01*
X124152413Y-91414276D01*
X123859339Y-91610101D01*
X123610101Y-91859339D01*
X123414276Y-92152413D01*
X123279389Y-92478058D01*
X123210624Y-92823762D01*
X104789376Y-92823762D01*
X104720611Y-92478058D01*
X104585724Y-92152413D01*
X104389899Y-91859339D01*
X104140661Y-91610101D01*
X103847587Y-91414276D01*
X103521942Y-91279389D01*
X103176238Y-91210624D01*
X102823762Y-91210624D01*
X102478058Y-91279389D01*
X102152413Y-91414276D01*
X101859339Y-91610101D01*
X101610101Y-91859339D01*
X101414276Y-92152413D01*
X101279389Y-92478058D01*
X101210624Y-92823762D01*
X100685000Y-92823762D01*
X100685000Y-68762795D01*
X100695098Y-68775099D01*
X100724096Y-68798897D01*
X101511928Y-69586729D01*
X101511928Y-70413271D01*
X100988998Y-70936201D01*
X100960000Y-70959999D01*
X100936202Y-70988997D01*
X100936201Y-70988998D01*
X100865026Y-71075724D01*
X100794454Y-71207754D01*
X100750998Y-71351015D01*
X100736324Y-71500000D01*
X100740001Y-71537332D01*
X100740000Y-83422678D01*
X100736324Y-83460000D01*
X100740000Y-83497322D01*
X100740000Y-83497332D01*
X100750997Y-83608985D01*
X100786979Y-83727603D01*
X100794454Y-83752246D01*
X100865026Y-83884276D01*
X100875568Y-83897121D01*
X100959999Y-84000001D01*
X100989003Y-84023804D01*
X101558791Y-84593592D01*
X101515000Y-84813740D01*
X101515000Y-85106260D01*
X101572068Y-85393158D01*
X101684010Y-85663411D01*
X101846525Y-85906632D01*
X101978380Y-86038487D01*
X101905820Y-86060498D01*
X101795506Y-86119463D01*
X101698815Y-86198815D01*
X101619463Y-86295506D01*
X101560498Y-86405820D01*
X101524188Y-86525518D01*
X101511928Y-86650000D01*
X101511928Y-88350000D01*
X101524188Y-88474482D01*
X101560498Y-88594180D01*
X101619463Y-88704494D01*
X101698815Y-88801185D01*
X101795506Y-88880537D01*
X101905820Y-88939502D01*
X102025518Y-88975812D01*
X102150000Y-88988072D01*
X103850000Y-88988072D01*
X103974482Y-88975812D01*
X104094180Y-88939502D01*
X104204494Y-88880537D01*
X104301185Y-88801185D01*
X104380537Y-88704494D01*
X104439502Y-88594180D01*
X104475812Y-88474482D01*
X104488072Y-88350000D01*
X104488072Y-86717931D01*
X104504774Y-86801898D01*
X104582795Y-86990256D01*
X104696063Y-87159774D01*
X104840226Y-87303937D01*
X105009744Y-87417205D01*
X105198102Y-87495226D01*
X105398061Y-87535000D01*
X105601939Y-87535000D01*
X105801898Y-87495226D01*
X105990256Y-87417205D01*
X106041928Y-87382679D01*
X106041928Y-87615000D01*
X106056782Y-87765819D01*
X106100775Y-87910842D01*
X106143086Y-87990000D01*
X106100775Y-88069158D01*
X106056782Y-88214181D01*
X106041928Y-88365000D01*
X106041928Y-88635000D01*
X106056782Y-88785819D01*
X106100775Y-88930842D01*
X106172214Y-89064496D01*
X106268356Y-89181644D01*
X106385504Y-89277786D01*
X106519158Y-89349225D01*
X106664181Y-89393218D01*
X106815000Y-89408072D01*
X107185000Y-89408072D01*
X107335819Y-89393218D01*
X107480842Y-89349225D01*
X107614496Y-89277786D01*
X107636168Y-89260000D01*
X120962678Y-89260000D01*
X121000000Y-89263676D01*
X121037322Y-89260000D01*
X121037333Y-89260000D01*
X121148986Y-89249003D01*
X121292247Y-89205546D01*
X121424276Y-89134974D01*
X121540001Y-89040001D01*
X121563804Y-89010997D01*
X125511004Y-85063798D01*
X125540001Y-85040001D01*
X125634974Y-84924276D01*
X125705546Y-84792247D01*
X125749003Y-84648986D01*
X125760000Y-84537333D01*
X125760000Y-84537324D01*
X125763676Y-84500001D01*
X125760000Y-84462678D01*
X125760000Y-81800170D01*
X125809975Y-81739275D01*
X125880547Y-81607246D01*
X125924004Y-81463985D01*
X125935001Y-81352332D01*
X125935001Y-81352324D01*
X125938677Y-81314999D01*
X125935001Y-81277674D01*
X125935001Y-73348765D01*
X126035901Y-73396825D01*
X126183110Y-73441476D01*
X126413000Y-73320155D01*
X126413000Y-72127000D01*
X126393000Y-72127000D01*
X126393000Y-71873000D01*
X126413000Y-71873000D01*
X126413000Y-70679845D01*
X126183110Y-70558524D01*
X126035901Y-70603175D01*
X125935001Y-70651235D01*
X125935001Y-68348765D01*
X126035901Y-68396825D01*
X126183110Y-68441476D01*
X126413000Y-68320155D01*
X126413000Y-67127000D01*
X126393000Y-67127000D01*
X126393000Y-66873000D01*
X126413000Y-66873000D01*
X126413000Y-65679845D01*
X126183110Y-65558524D01*
X126035901Y-65603175D01*
X125773080Y-65728359D01*
X125539731Y-65902412D01*
X125463966Y-65986466D01*
X125439502Y-65905820D01*
X125380537Y-65795506D01*
X125301185Y-65698815D01*
X125204494Y-65619463D01*
X125094180Y-65560498D01*
X124974482Y-65524188D01*
X124850000Y-65511928D01*
X124760000Y-65511928D01*
X124760000Y-65417333D01*
X124763677Y-65380000D01*
X124749003Y-65231014D01*
X124705546Y-65087753D01*
X124634974Y-64955724D01*
X124563799Y-64868997D01*
X124540001Y-64839999D01*
X124511003Y-64816201D01*
X124371116Y-64676314D01*
X124478058Y-64720611D01*
X124823762Y-64789376D01*
X125176238Y-64789376D01*
X125521942Y-64720611D01*
X125847587Y-64585724D01*
X126140661Y-64389899D01*
X126389899Y-64140661D01*
X126585724Y-63847587D01*
X126720611Y-63521942D01*
X126789376Y-63176238D01*
X126789376Y-62823762D01*
X126720611Y-62478058D01*
X126585724Y-62152413D01*
X126389899Y-61859339D01*
X126140661Y-61610101D01*
X125847587Y-61414276D01*
X125521942Y-61279389D01*
X125176238Y-61210624D01*
X124823762Y-61210624D01*
X124478058Y-61279389D01*
X124152413Y-61414276D01*
X123859339Y-61610101D01*
X123610101Y-61859339D01*
X123414276Y-62152413D01*
X123279389Y-62478058D01*
X123210624Y-62823762D01*
X123210624Y-63176238D01*
X123279389Y-63521942D01*
X123323686Y-63628884D01*
X121608072Y-61913271D01*
X121608072Y-60650000D01*
X121595812Y-60525518D01*
X121559502Y-60405820D01*
X121500537Y-60295506D01*
X121421185Y-60198815D01*
X121324494Y-60119463D01*
X121214180Y-60060498D01*
X121094482Y-60024188D01*
X120970000Y-60011928D01*
X119270000Y-60011928D01*
X119145518Y-60024188D01*
X119025820Y-60060498D01*
X118915506Y-60119463D01*
X118818815Y-60198815D01*
X118739463Y-60295506D01*
X118680498Y-60405820D01*
X118658487Y-60478380D01*
X118526632Y-60346525D01*
X118283411Y-60184010D01*
X118013158Y-60072068D01*
X117726260Y-60015000D01*
X117433740Y-60015000D01*
X117146842Y-60072068D01*
X116876589Y-60184010D01*
X116633368Y-60346525D01*
X116426525Y-60553368D01*
X116310000Y-60727760D01*
X116193475Y-60553368D01*
X115986632Y-60346525D01*
X115743411Y-60184010D01*
X115473158Y-60072068D01*
X115186260Y-60015000D01*
X114893740Y-60015000D01*
X114606842Y-60072068D01*
X114336589Y-60184010D01*
X114093368Y-60346525D01*
X113886525Y-60553368D01*
X113770000Y-60727760D01*
X113653475Y-60553368D01*
X113446632Y-60346525D01*
X113203411Y-60184010D01*
X112933158Y-60072068D01*
X112646260Y-60015000D01*
X112353740Y-60015000D01*
X112066842Y-60072068D01*
X111796589Y-60184010D01*
X111553368Y-60346525D01*
X111346525Y-60553368D01*
X111230000Y-60727760D01*
X111113475Y-60553368D01*
X110906632Y-60346525D01*
X110663411Y-60184010D01*
X110393158Y-60072068D01*
X110106260Y-60015000D01*
X109813740Y-60015000D01*
X109526842Y-60072068D01*
X109256589Y-60184010D01*
X109013368Y-60346525D01*
X108806525Y-60553368D01*
X108690000Y-60727760D01*
X108573475Y-60553368D01*
X108366632Y-60346525D01*
X108123411Y-60184010D01*
X107853158Y-60072068D01*
X107566260Y-60015000D01*
X107273740Y-60015000D01*
X107048771Y-60059749D01*
X106994277Y-60015027D01*
X106862248Y-59944455D01*
X106718987Y-59900998D01*
X106607334Y-59890001D01*
X106607323Y-59890001D01*
X106570001Y-59886325D01*
X106532679Y-59890001D01*
X102888377Y-59890001D01*
X102851054Y-59886325D01*
X102813731Y-59890001D01*
X102813722Y-59890001D01*
X102702069Y-59900998D01*
X102558808Y-59944455D01*
X102426779Y-60015027D01*
X102311054Y-60110000D01*
X102287256Y-60138998D01*
X100724101Y-61702154D01*
X100695097Y-61725957D01*
X100685000Y-61738260D01*
X100685000Y-58685000D01*
X127315000Y-58685000D01*
X127315000Y-65734386D01*
%TA.AperFunction,Conductor*%
D15*
G36*
X127315000Y-65734386D02*
G01*
X127306920Y-65728359D01*
X127044099Y-65603175D01*
X126896890Y-65558524D01*
X126667000Y-65679845D01*
X126667000Y-66873000D01*
X126687000Y-66873000D01*
X126687000Y-67127000D01*
X126667000Y-67127000D01*
X126667000Y-68320155D01*
X126896890Y-68441476D01*
X127044099Y-68396825D01*
X127306920Y-68271641D01*
X127315000Y-68265614D01*
X127315000Y-70734386D01*
X127306920Y-70728359D01*
X127044099Y-70603175D01*
X126896890Y-70558524D01*
X126667000Y-70679845D01*
X126667000Y-71873000D01*
X126687000Y-71873000D01*
X126687000Y-72127000D01*
X126667000Y-72127000D01*
X126667000Y-73320155D01*
X126896890Y-73441476D01*
X127044099Y-73396825D01*
X127306920Y-73271641D01*
X127315000Y-73265614D01*
X127315001Y-95315000D01*
X100685000Y-95315000D01*
X100685000Y-92823762D01*
X101210624Y-92823762D01*
X101210624Y-93176238D01*
X101279389Y-93521942D01*
X101414276Y-93847587D01*
X101610101Y-94140661D01*
X101859339Y-94389899D01*
X102152413Y-94585724D01*
X102478058Y-94720611D01*
X102823762Y-94789376D01*
X103176238Y-94789376D01*
X103521942Y-94720611D01*
X103847587Y-94585724D01*
X104140661Y-94389899D01*
X104389899Y-94140661D01*
X104585724Y-93847587D01*
X104720611Y-93521942D01*
X104789376Y-93176238D01*
X104789376Y-92823762D01*
X123210624Y-92823762D01*
X123210624Y-93176238D01*
X123279389Y-93521942D01*
X123414276Y-93847587D01*
X123610101Y-94140661D01*
X123859339Y-94389899D01*
X124152413Y-94585724D01*
X124478058Y-94720611D01*
X124823762Y-94789376D01*
X125176238Y-94789376D01*
X125521942Y-94720611D01*
X125847587Y-94585724D01*
X126140661Y-94389899D01*
X126389899Y-94140661D01*
X126585724Y-93847587D01*
X126720611Y-93521942D01*
X126789376Y-93176238D01*
X126789376Y-92823762D01*
X126720611Y-92478058D01*
X126585724Y-92152413D01*
X126389899Y-91859339D01*
X126140661Y-91610101D01*
X125847587Y-91414276D01*
X125521942Y-91279389D01*
X125176238Y-91210624D01*
X124823762Y-91210624D01*
X124478058Y-91279389D01*
X124152413Y-91414276D01*
X123859339Y-91610101D01*
X123610101Y-91859339D01*
X123414276Y-92152413D01*
X123279389Y-92478058D01*
X123210624Y-92823762D01*
X104789376Y-92823762D01*
X104720611Y-92478058D01*
X104585724Y-92152413D01*
X104389899Y-91859339D01*
X104140661Y-91610101D01*
X103847587Y-91414276D01*
X103521942Y-91279389D01*
X103176238Y-91210624D01*
X102823762Y-91210624D01*
X102478058Y-91279389D01*
X102152413Y-91414276D01*
X101859339Y-91610101D01*
X101610101Y-91859339D01*
X101414276Y-92152413D01*
X101279389Y-92478058D01*
X101210624Y-92823762D01*
X100685000Y-92823762D01*
X100685000Y-68762795D01*
X100695098Y-68775099D01*
X100724096Y-68798897D01*
X101511928Y-69586729D01*
X101511928Y-70413271D01*
X100988998Y-70936201D01*
X100960000Y-70959999D01*
X100936202Y-70988997D01*
X100936201Y-70988998D01*
X100865026Y-71075724D01*
X100794454Y-71207754D01*
X100750998Y-71351015D01*
X100736324Y-71500000D01*
X100740001Y-71537332D01*
X100740000Y-83422678D01*
X100736324Y-83460000D01*
X100740000Y-83497322D01*
X100740000Y-83497332D01*
X100750997Y-83608985D01*
X100786979Y-83727603D01*
X100794454Y-83752246D01*
X100865026Y-83884276D01*
X100875568Y-83897121D01*
X100959999Y-84000001D01*
X100989003Y-84023804D01*
X101558791Y-84593592D01*
X101515000Y-84813740D01*
X101515000Y-85106260D01*
X101572068Y-85393158D01*
X101684010Y-85663411D01*
X101846525Y-85906632D01*
X101978380Y-86038487D01*
X101905820Y-86060498D01*
X101795506Y-86119463D01*
X101698815Y-86198815D01*
X101619463Y-86295506D01*
X101560498Y-86405820D01*
X101524188Y-86525518D01*
X101511928Y-86650000D01*
X101511928Y-88350000D01*
X101524188Y-88474482D01*
X101560498Y-88594180D01*
X101619463Y-88704494D01*
X101698815Y-88801185D01*
X101795506Y-88880537D01*
X101905820Y-88939502D01*
X102025518Y-88975812D01*
X102150000Y-88988072D01*
X103850000Y-88988072D01*
X103974482Y-88975812D01*
X104094180Y-88939502D01*
X104204494Y-88880537D01*
X104301185Y-88801185D01*
X104380537Y-88704494D01*
X104439502Y-88594180D01*
X104475812Y-88474482D01*
X104488072Y-88350000D01*
X104488072Y-86717931D01*
X104504774Y-86801898D01*
X104582795Y-86990256D01*
X104696063Y-87159774D01*
X104840226Y-87303937D01*
X105009744Y-87417205D01*
X105198102Y-87495226D01*
X105398061Y-87535000D01*
X105601939Y-87535000D01*
X105801898Y-87495226D01*
X105990256Y-87417205D01*
X106041928Y-87382679D01*
X106041928Y-87615000D01*
X106056782Y-87765819D01*
X106100775Y-87910842D01*
X106143086Y-87990000D01*
X106100775Y-88069158D01*
X106056782Y-88214181D01*
X106041928Y-88365000D01*
X106041928Y-88635000D01*
X106056782Y-88785819D01*
X106100775Y-88930842D01*
X106172214Y-89064496D01*
X106268356Y-89181644D01*
X106385504Y-89277786D01*
X106519158Y-89349225D01*
X106664181Y-89393218D01*
X106815000Y-89408072D01*
X107185000Y-89408072D01*
X107335819Y-89393218D01*
X107480842Y-89349225D01*
X107614496Y-89277786D01*
X107636168Y-89260000D01*
X120962678Y-89260000D01*
X121000000Y-89263676D01*
X121037322Y-89260000D01*
X121037333Y-89260000D01*
X121148986Y-89249003D01*
X121292247Y-89205546D01*
X121424276Y-89134974D01*
X121540001Y-89040001D01*
X121563804Y-89010997D01*
X125511004Y-85063798D01*
X125540001Y-85040001D01*
X125634974Y-84924276D01*
X125705546Y-84792247D01*
X125749003Y-84648986D01*
X125760000Y-84537333D01*
X125760000Y-84537324D01*
X125763676Y-84500001D01*
X125760000Y-84462678D01*
X125760000Y-81800170D01*
X125809975Y-81739275D01*
X125880547Y-81607246D01*
X125924004Y-81463985D01*
X125935001Y-81352332D01*
X125935001Y-81352324D01*
X125938677Y-81314999D01*
X125935001Y-81277674D01*
X125935001Y-73348765D01*
X126035901Y-73396825D01*
X126183110Y-73441476D01*
X126413000Y-73320155D01*
X126413000Y-72127000D01*
X126393000Y-72127000D01*
X126393000Y-71873000D01*
X126413000Y-71873000D01*
X126413000Y-70679845D01*
X126183110Y-70558524D01*
X126035901Y-70603175D01*
X125935001Y-70651235D01*
X125935001Y-68348765D01*
X126035901Y-68396825D01*
X126183110Y-68441476D01*
X126413000Y-68320155D01*
X126413000Y-67127000D01*
X126393000Y-67127000D01*
X126393000Y-66873000D01*
X126413000Y-66873000D01*
X126413000Y-65679845D01*
X126183110Y-65558524D01*
X126035901Y-65603175D01*
X125773080Y-65728359D01*
X125539731Y-65902412D01*
X125463966Y-65986466D01*
X125439502Y-65905820D01*
X125380537Y-65795506D01*
X125301185Y-65698815D01*
X125204494Y-65619463D01*
X125094180Y-65560498D01*
X124974482Y-65524188D01*
X124850000Y-65511928D01*
X124760000Y-65511928D01*
X124760000Y-65417333D01*
X124763677Y-65380000D01*
X124749003Y-65231014D01*
X124705546Y-65087753D01*
X124634974Y-64955724D01*
X124563799Y-64868997D01*
X124540001Y-64839999D01*
X124511003Y-64816201D01*
X124371116Y-64676314D01*
X124478058Y-64720611D01*
X124823762Y-64789376D01*
X125176238Y-64789376D01*
X125521942Y-64720611D01*
X125847587Y-64585724D01*
X126140661Y-64389899D01*
X126389899Y-64140661D01*
X126585724Y-63847587D01*
X126720611Y-63521942D01*
X126789376Y-63176238D01*
X126789376Y-62823762D01*
X126720611Y-62478058D01*
X126585724Y-62152413D01*
X126389899Y-61859339D01*
X126140661Y-61610101D01*
X125847587Y-61414276D01*
X125521942Y-61279389D01*
X125176238Y-61210624D01*
X124823762Y-61210624D01*
X124478058Y-61279389D01*
X124152413Y-61414276D01*
X123859339Y-61610101D01*
X123610101Y-61859339D01*
X123414276Y-62152413D01*
X123279389Y-62478058D01*
X123210624Y-62823762D01*
X123210624Y-63176238D01*
X123279389Y-63521942D01*
X123323686Y-63628884D01*
X121608072Y-61913271D01*
X121608072Y-60650000D01*
X121595812Y-60525518D01*
X121559502Y-60405820D01*
X121500537Y-60295506D01*
X121421185Y-60198815D01*
X121324494Y-60119463D01*
X121214180Y-60060498D01*
X121094482Y-60024188D01*
X120970000Y-60011928D01*
X119270000Y-60011928D01*
X119145518Y-60024188D01*
X119025820Y-60060498D01*
X118915506Y-60119463D01*
X118818815Y-60198815D01*
X118739463Y-60295506D01*
X118680498Y-60405820D01*
X118658487Y-60478380D01*
X118526632Y-60346525D01*
X118283411Y-60184010D01*
X118013158Y-60072068D01*
X117726260Y-60015000D01*
X117433740Y-60015000D01*
X117146842Y-60072068D01*
X116876589Y-60184010D01*
X116633368Y-60346525D01*
X116426525Y-60553368D01*
X116310000Y-60727760D01*
X116193475Y-60553368D01*
X115986632Y-60346525D01*
X115743411Y-60184010D01*
X115473158Y-60072068D01*
X115186260Y-60015000D01*
X114893740Y-60015000D01*
X114606842Y-60072068D01*
X114336589Y-60184010D01*
X114093368Y-60346525D01*
X113886525Y-60553368D01*
X113770000Y-60727760D01*
X113653475Y-60553368D01*
X113446632Y-60346525D01*
X113203411Y-60184010D01*
X112933158Y-60072068D01*
X112646260Y-60015000D01*
X112353740Y-60015000D01*
X112066842Y-60072068D01*
X111796589Y-60184010D01*
X111553368Y-60346525D01*
X111346525Y-60553368D01*
X111230000Y-60727760D01*
X111113475Y-60553368D01*
X110906632Y-60346525D01*
X110663411Y-60184010D01*
X110393158Y-60072068D01*
X110106260Y-60015000D01*
X109813740Y-60015000D01*
X109526842Y-60072068D01*
X109256589Y-60184010D01*
X109013368Y-60346525D01*
X108806525Y-60553368D01*
X108690000Y-60727760D01*
X108573475Y-60553368D01*
X108366632Y-60346525D01*
X108123411Y-60184010D01*
X107853158Y-60072068D01*
X107566260Y-60015000D01*
X107273740Y-60015000D01*
X107048771Y-60059749D01*
X106994277Y-60015027D01*
X106862248Y-59944455D01*
X106718987Y-59900998D01*
X106607334Y-59890001D01*
X106607323Y-59890001D01*
X106570001Y-59886325D01*
X106532679Y-59890001D01*
X102888377Y-59890001D01*
X102851054Y-59886325D01*
X102813731Y-59890001D01*
X102813722Y-59890001D01*
X102702069Y-59900998D01*
X102558808Y-59944455D01*
X102426779Y-60015027D01*
X102311054Y-60110000D01*
X102287256Y-60138998D01*
X100724101Y-61702154D01*
X100695097Y-61725957D01*
X100685000Y-61738260D01*
X100685000Y-58685000D01*
X127315000Y-58685000D01*
X127315000Y-65734386D01*
G37*
%TD.AperFunction*%
D14*
X119608998Y-66008801D02*
X122700000Y-69099804D01*
X122700001Y-70697842D01*
X122698815Y-70698815D01*
X122619463Y-70795506D01*
X122560498Y-70905820D01*
X122524188Y-71025518D01*
X122511928Y-71150000D01*
X122511928Y-72850000D01*
X122524188Y-72974482D01*
X122560498Y-73094180D01*
X122619463Y-73204494D01*
X122698815Y-73301185D01*
X122795506Y-73380537D01*
X122905820Y-73439502D01*
X123025518Y-73475812D01*
X123150000Y-73488072D01*
X124415002Y-73488072D01*
X124415001Y-81004830D01*
X124365026Y-81065724D01*
X124294454Y-81197754D01*
X124264180Y-81297558D01*
X124258890Y-81314999D01*
X124250998Y-81341015D01*
X124236324Y-81490000D01*
X124240001Y-81527332D01*
X124240000Y-84185198D01*
X120685199Y-87740000D01*
X118834801Y-87740000D01*
X119633592Y-86941210D01*
X119853740Y-86985000D01*
X120146260Y-86985000D01*
X120433158Y-86927932D01*
X120703411Y-86815990D01*
X120946632Y-86653475D01*
X121153475Y-86446632D01*
X121315990Y-86203411D01*
X121427932Y-85933158D01*
X121485000Y-85646260D01*
X121485000Y-85353740D01*
X121427932Y-85066842D01*
X121315990Y-84796589D01*
X121153475Y-84553368D01*
X120946632Y-84346525D01*
X120703411Y-84184010D01*
X120433158Y-84072068D01*
X120146260Y-84015000D01*
X119853740Y-84015000D01*
X119584999Y-84068456D01*
X119584999Y-65989106D01*
X119608998Y-66008801D01*
%TA.AperFunction,Conductor*%
D15*
G36*
X119608998Y-66008801D02*
G01*
X122700000Y-69099804D01*
X122700001Y-70697842D01*
X122698815Y-70698815D01*
X122619463Y-70795506D01*
X122560498Y-70905820D01*
X122524188Y-71025518D01*
X122511928Y-71150000D01*
X122511928Y-72850000D01*
X122524188Y-72974482D01*
X122560498Y-73094180D01*
X122619463Y-73204494D01*
X122698815Y-73301185D01*
X122795506Y-73380537D01*
X122905820Y-73439502D01*
X123025518Y-73475812D01*
X123150000Y-73488072D01*
X124415002Y-73488072D01*
X124415001Y-81004830D01*
X124365026Y-81065724D01*
X124294454Y-81197754D01*
X124264180Y-81297558D01*
X124258890Y-81314999D01*
X124250998Y-81341015D01*
X124236324Y-81490000D01*
X124240001Y-81527332D01*
X124240000Y-84185198D01*
X120685199Y-87740000D01*
X118834801Y-87740000D01*
X119633592Y-86941210D01*
X119853740Y-86985000D01*
X120146260Y-86985000D01*
X120433158Y-86927932D01*
X120703411Y-86815990D01*
X120946632Y-86653475D01*
X121153475Y-86446632D01*
X121315990Y-86203411D01*
X121427932Y-85933158D01*
X121485000Y-85646260D01*
X121485000Y-85353740D01*
X121427932Y-85066842D01*
X121315990Y-84796589D01*
X121153475Y-84553368D01*
X120946632Y-84346525D01*
X120703411Y-84184010D01*
X120433158Y-84072068D01*
X120146260Y-84015000D01*
X119853740Y-84015000D01*
X119584999Y-84068456D01*
X119584999Y-65989106D01*
X119608998Y-66008801D01*
G37*
%TD.AperFunction*%
D14*
X105935000Y-61646260D02*
X105992068Y-61933158D01*
X106104010Y-62203411D01*
X106266525Y-62446632D01*
X106473368Y-62653475D01*
X106649406Y-62771100D01*
X106419731Y-62942412D01*
X106224822Y-63158645D01*
X106075843Y-63408748D01*
X105978519Y-63683109D01*
X106099186Y-63913000D01*
X107293000Y-63913000D01*
X107293000Y-63893000D01*
X107547000Y-63893000D01*
X107547000Y-63913000D01*
X107567000Y-63913000D01*
X107567000Y-64167000D01*
X107547000Y-64167000D01*
X107547000Y-65360155D01*
X107776890Y-65481476D01*
X107924099Y-65436825D01*
X108186920Y-65311641D01*
X108420269Y-65137588D01*
X108615178Y-64921355D01*
X108684805Y-64804466D01*
X108806525Y-64986632D01*
X109013368Y-65193475D01*
X109256589Y-65355990D01*
X109526842Y-65467932D01*
X109813740Y-65525000D01*
X110106260Y-65525000D01*
X110393158Y-65467932D01*
X110565000Y-65396753D01*
X110564999Y-79552707D01*
X110504774Y-79698102D01*
X110465000Y-79898061D01*
X110465000Y-80101939D01*
X110504774Y-80301898D01*
X110582795Y-80490256D01*
X110696063Y-80659774D01*
X110840226Y-80803937D01*
X111009744Y-80917205D01*
X111198102Y-80995226D01*
X111398061Y-81035000D01*
X111601939Y-81035000D01*
X111740001Y-81007538D01*
X111740001Y-81296288D01*
X111696063Y-81340226D01*
X111582795Y-81509744D01*
X111504774Y-81698102D01*
X111465000Y-81898061D01*
X111465000Y-82101939D01*
X111504774Y-82301898D01*
X111582795Y-82490256D01*
X111696063Y-82659774D01*
X111840226Y-82803937D01*
X112009744Y-82917205D01*
X112198102Y-82995226D01*
X112398061Y-83035000D01*
X112601939Y-83035000D01*
X112795001Y-82996598D01*
X112795001Y-84068456D01*
X112526260Y-84015000D01*
X112233740Y-84015000D01*
X111946842Y-84072068D01*
X111676589Y-84184010D01*
X111433368Y-84346525D01*
X111301513Y-84478380D01*
X111279502Y-84405820D01*
X111220537Y-84295506D01*
X111141185Y-84198815D01*
X111044494Y-84119463D01*
X110934180Y-84060498D01*
X110814482Y-84024188D01*
X110690000Y-84011928D01*
X110125750Y-84015000D01*
X109967000Y-84173750D01*
X109967000Y-85373000D01*
X109987000Y-85373000D01*
X109987000Y-85627000D01*
X109967000Y-85627000D01*
X109967000Y-85647000D01*
X109713000Y-85647000D01*
X109713000Y-85627000D01*
X108513750Y-85627000D01*
X108355000Y-85785750D01*
X108351928Y-86350000D01*
X108364188Y-86474482D01*
X108400498Y-86594180D01*
X108459463Y-86704494D01*
X108472188Y-86720000D01*
X107636168Y-86720000D01*
X107614496Y-86702214D01*
X107480842Y-86630775D01*
X107335819Y-86586782D01*
X107185000Y-86571928D01*
X106815000Y-86571928D01*
X106664181Y-86586782D01*
X106529913Y-86627512D01*
X106535000Y-86601939D01*
X106535000Y-86398061D01*
X106495226Y-86198102D01*
X106417205Y-86009744D01*
X106303937Y-85840226D01*
X106260000Y-85796289D01*
X106260000Y-84650000D01*
X108351928Y-84650000D01*
X108355000Y-85214250D01*
X108513750Y-85373000D01*
X109713000Y-85373000D01*
X109713000Y-84173750D01*
X109554250Y-84015000D01*
X108990000Y-84011928D01*
X108865518Y-84024188D01*
X108745820Y-84060498D01*
X108635506Y-84119463D01*
X108538815Y-84198815D01*
X108459463Y-84295506D01*
X108400498Y-84405820D01*
X108364188Y-84525518D01*
X108351928Y-84650000D01*
X106260000Y-84650000D01*
X106260000Y-69703711D01*
X106303937Y-69659774D01*
X106417205Y-69490256D01*
X106495226Y-69301898D01*
X106535000Y-69101939D01*
X106535000Y-68898061D01*
X106495226Y-68698102D01*
X106417205Y-68509744D01*
X106303937Y-68340226D01*
X106159774Y-68196063D01*
X105990256Y-68082795D01*
X105801898Y-68004774D01*
X105601939Y-67965000D01*
X105398061Y-67965000D01*
X105198102Y-68004774D01*
X105009744Y-68082795D01*
X104840226Y-68196063D01*
X104696063Y-68340226D01*
X104582795Y-68509744D01*
X104504774Y-68698102D01*
X104465000Y-68898061D01*
X104465000Y-68989876D01*
X104439502Y-68905820D01*
X104380537Y-68795506D01*
X104301185Y-68698815D01*
X104204494Y-68619463D01*
X104094180Y-68560498D01*
X104021620Y-68538487D01*
X104153475Y-68406632D01*
X104315990Y-68163411D01*
X104427932Y-67893158D01*
X104485000Y-67606260D01*
X104485000Y-67313740D01*
X104427932Y-67026842D01*
X104315990Y-66756589D01*
X104153475Y-66513368D01*
X103946632Y-66306525D01*
X103703411Y-66144010D01*
X103433158Y-66032068D01*
X103146260Y-65975000D01*
X102853740Y-65975000D01*
X102566842Y-66032068D01*
X102296589Y-66144010D01*
X102053368Y-66306525D01*
X101995098Y-66364795D01*
X101995098Y-64480610D01*
X102152413Y-64585724D01*
X102478058Y-64720611D01*
X102823762Y-64789376D01*
X103176238Y-64789376D01*
X103521942Y-64720611D01*
X103847587Y-64585724D01*
X104130196Y-64396891D01*
X105978519Y-64396891D01*
X106075843Y-64671252D01*
X106224822Y-64921355D01*
X106419731Y-65137588D01*
X106653080Y-65311641D01*
X106915901Y-65436825D01*
X107063110Y-65481476D01*
X107293000Y-65360155D01*
X107293000Y-64167000D01*
X106099186Y-64167000D01*
X105978519Y-64396891D01*
X104130196Y-64396891D01*
X104140661Y-64389899D01*
X104389899Y-64140661D01*
X104585724Y-63847587D01*
X104720611Y-63521942D01*
X104789376Y-63176238D01*
X104789376Y-62823762D01*
X104720611Y-62478058D01*
X104585724Y-62152413D01*
X104389899Y-61859339D01*
X104140661Y-61610101D01*
X103847587Y-61414276D01*
X103837266Y-61410001D01*
X105935000Y-61410001D01*
X105935000Y-61646260D01*
%TA.AperFunction,Conductor*%
D15*
G36*
X105935000Y-61646260D02*
G01*
X105992068Y-61933158D01*
X106104010Y-62203411D01*
X106266525Y-62446632D01*
X106473368Y-62653475D01*
X106649406Y-62771100D01*
X106419731Y-62942412D01*
X106224822Y-63158645D01*
X106075843Y-63408748D01*
X105978519Y-63683109D01*
X106099186Y-63913000D01*
X107293000Y-63913000D01*
X107293000Y-63893000D01*
X107547000Y-63893000D01*
X107547000Y-63913000D01*
X107567000Y-63913000D01*
X107567000Y-64167000D01*
X107547000Y-64167000D01*
X107547000Y-65360155D01*
X107776890Y-65481476D01*
X107924099Y-65436825D01*
X108186920Y-65311641D01*
X108420269Y-65137588D01*
X108615178Y-64921355D01*
X108684805Y-64804466D01*
X108806525Y-64986632D01*
X109013368Y-65193475D01*
X109256589Y-65355990D01*
X109526842Y-65467932D01*
X109813740Y-65525000D01*
X110106260Y-65525000D01*
X110393158Y-65467932D01*
X110565000Y-65396753D01*
X110564999Y-79552707D01*
X110504774Y-79698102D01*
X110465000Y-79898061D01*
X110465000Y-80101939D01*
X110504774Y-80301898D01*
X110582795Y-80490256D01*
X110696063Y-80659774D01*
X110840226Y-80803937D01*
X111009744Y-80917205D01*
X111198102Y-80995226D01*
X111398061Y-81035000D01*
X111601939Y-81035000D01*
X111740001Y-81007538D01*
X111740001Y-81296288D01*
X111696063Y-81340226D01*
X111582795Y-81509744D01*
X111504774Y-81698102D01*
X111465000Y-81898061D01*
X111465000Y-82101939D01*
X111504774Y-82301898D01*
X111582795Y-82490256D01*
X111696063Y-82659774D01*
X111840226Y-82803937D01*
X112009744Y-82917205D01*
X112198102Y-82995226D01*
X112398061Y-83035000D01*
X112601939Y-83035000D01*
X112795001Y-82996598D01*
X112795001Y-84068456D01*
X112526260Y-84015000D01*
X112233740Y-84015000D01*
X111946842Y-84072068D01*
X111676589Y-84184010D01*
X111433368Y-84346525D01*
X111301513Y-84478380D01*
X111279502Y-84405820D01*
X111220537Y-84295506D01*
X111141185Y-84198815D01*
X111044494Y-84119463D01*
X110934180Y-84060498D01*
X110814482Y-84024188D01*
X110690000Y-84011928D01*
X110125750Y-84015000D01*
X109967000Y-84173750D01*
X109967000Y-85373000D01*
X109987000Y-85373000D01*
X109987000Y-85627000D01*
X109967000Y-85627000D01*
X109967000Y-85647000D01*
X109713000Y-85647000D01*
X109713000Y-85627000D01*
X108513750Y-85627000D01*
X108355000Y-85785750D01*
X108351928Y-86350000D01*
X108364188Y-86474482D01*
X108400498Y-86594180D01*
X108459463Y-86704494D01*
X108472188Y-86720000D01*
X107636168Y-86720000D01*
X107614496Y-86702214D01*
X107480842Y-86630775D01*
X107335819Y-86586782D01*
X107185000Y-86571928D01*
X106815000Y-86571928D01*
X106664181Y-86586782D01*
X106529913Y-86627512D01*
X106535000Y-86601939D01*
X106535000Y-86398061D01*
X106495226Y-86198102D01*
X106417205Y-86009744D01*
X106303937Y-85840226D01*
X106260000Y-85796289D01*
X106260000Y-84650000D01*
X108351928Y-84650000D01*
X108355000Y-85214250D01*
X108513750Y-85373000D01*
X109713000Y-85373000D01*
X109713000Y-84173750D01*
X109554250Y-84015000D01*
X108990000Y-84011928D01*
X108865518Y-84024188D01*
X108745820Y-84060498D01*
X108635506Y-84119463D01*
X108538815Y-84198815D01*
X108459463Y-84295506D01*
X108400498Y-84405820D01*
X108364188Y-84525518D01*
X108351928Y-84650000D01*
X106260000Y-84650000D01*
X106260000Y-69703711D01*
X106303937Y-69659774D01*
X106417205Y-69490256D01*
X106495226Y-69301898D01*
X106535000Y-69101939D01*
X106535000Y-68898061D01*
X106495226Y-68698102D01*
X106417205Y-68509744D01*
X106303937Y-68340226D01*
X106159774Y-68196063D01*
X105990256Y-68082795D01*
X105801898Y-68004774D01*
X105601939Y-67965000D01*
X105398061Y-67965000D01*
X105198102Y-68004774D01*
X105009744Y-68082795D01*
X104840226Y-68196063D01*
X104696063Y-68340226D01*
X104582795Y-68509744D01*
X104504774Y-68698102D01*
X104465000Y-68898061D01*
X104465000Y-68989876D01*
X104439502Y-68905820D01*
X104380537Y-68795506D01*
X104301185Y-68698815D01*
X104204494Y-68619463D01*
X104094180Y-68560498D01*
X104021620Y-68538487D01*
X104153475Y-68406632D01*
X104315990Y-68163411D01*
X104427932Y-67893158D01*
X104485000Y-67606260D01*
X104485000Y-67313740D01*
X104427932Y-67026842D01*
X104315990Y-66756589D01*
X104153475Y-66513368D01*
X103946632Y-66306525D01*
X103703411Y-66144010D01*
X103433158Y-66032068D01*
X103146260Y-65975000D01*
X102853740Y-65975000D01*
X102566842Y-66032068D01*
X102296589Y-66144010D01*
X102053368Y-66306525D01*
X101995098Y-66364795D01*
X101995098Y-64480610D01*
X102152413Y-64585724D01*
X102478058Y-64720611D01*
X102823762Y-64789376D01*
X103176238Y-64789376D01*
X103521942Y-64720611D01*
X103847587Y-64585724D01*
X104130196Y-64396891D01*
X105978519Y-64396891D01*
X106075843Y-64671252D01*
X106224822Y-64921355D01*
X106419731Y-65137588D01*
X106653080Y-65311641D01*
X106915901Y-65436825D01*
X107063110Y-65481476D01*
X107293000Y-65360155D01*
X107293000Y-64167000D01*
X106099186Y-64167000D01*
X105978519Y-64396891D01*
X104130196Y-64396891D01*
X104140661Y-64389899D01*
X104389899Y-64140661D01*
X104585724Y-63847587D01*
X104720611Y-63521942D01*
X104789376Y-63176238D01*
X104789376Y-62823762D01*
X104720611Y-62478058D01*
X104585724Y-62152413D01*
X104389899Y-61859339D01*
X104140661Y-61610101D01*
X103847587Y-61414276D01*
X103837266Y-61410001D01*
X105935000Y-61410001D01*
X105935000Y-61646260D01*
G37*
%TD.AperFunction*%
D14*
X104504774Y-69301898D02*
X104582795Y-69490256D01*
X104696063Y-69659774D01*
X104740000Y-69703711D01*
X104740001Y-77962667D01*
X104740000Y-85796289D01*
X104696063Y-85840226D01*
X104582795Y-86009744D01*
X104504774Y-86198102D01*
X104465000Y-86398061D01*
X104465000Y-86489876D01*
X104439502Y-86405820D01*
X104380537Y-86295506D01*
X104301185Y-86198815D01*
X104204494Y-86119463D01*
X104094180Y-86060498D01*
X104021620Y-86038487D01*
X104153475Y-85906632D01*
X104315990Y-85663411D01*
X104427932Y-85393158D01*
X104485000Y-85106260D01*
X104485000Y-84813740D01*
X104427932Y-84526842D01*
X104315990Y-84256589D01*
X104153475Y-84013368D01*
X103946632Y-83806525D01*
X103703411Y-83644010D01*
X103433158Y-83532068D01*
X103146260Y-83475000D01*
X102853740Y-83475000D01*
X102633592Y-83518791D01*
X102260000Y-83145199D01*
X102260000Y-71814801D01*
X102586729Y-71488072D01*
X103850000Y-71488072D01*
X103974482Y-71475812D01*
X104094180Y-71439502D01*
X104204494Y-71380537D01*
X104301185Y-71301185D01*
X104380537Y-71204494D01*
X104439502Y-71094180D01*
X104475812Y-70974482D01*
X104488072Y-70850000D01*
X104488072Y-69217931D01*
X104504774Y-69301898D01*
%TA.AperFunction,Conductor*%
D15*
G36*
X104504774Y-69301898D02*
G01*
X104582795Y-69490256D01*
X104696063Y-69659774D01*
X104740000Y-69703711D01*
X104740001Y-77962667D01*
X104740000Y-85796289D01*
X104696063Y-85840226D01*
X104582795Y-86009744D01*
X104504774Y-86198102D01*
X104465000Y-86398061D01*
X104465000Y-86489876D01*
X104439502Y-86405820D01*
X104380537Y-86295506D01*
X104301185Y-86198815D01*
X104204494Y-86119463D01*
X104094180Y-86060498D01*
X104021620Y-86038487D01*
X104153475Y-85906632D01*
X104315990Y-85663411D01*
X104427932Y-85393158D01*
X104485000Y-85106260D01*
X104485000Y-84813740D01*
X104427932Y-84526842D01*
X104315990Y-84256589D01*
X104153475Y-84013368D01*
X103946632Y-83806525D01*
X103703411Y-83644010D01*
X103433158Y-83532068D01*
X103146260Y-83475000D01*
X102853740Y-83475000D01*
X102633592Y-83518791D01*
X102260000Y-83145199D01*
X102260000Y-71814801D01*
X102586729Y-71488072D01*
X103850000Y-71488072D01*
X103974482Y-71475812D01*
X104094180Y-71439502D01*
X104204494Y-71380537D01*
X104301185Y-71301185D01*
X104380537Y-71204494D01*
X104439502Y-71094180D01*
X104475812Y-70974482D01*
X104488072Y-70850000D01*
X104488072Y-69217931D01*
X104504774Y-69301898D01*
G37*
%TD.AperFunction*%
D14*
X116700001Y-65973806D02*
X116700001Y-74484506D01*
X116601939Y-74465000D01*
X116398061Y-74465000D01*
X116198102Y-74504774D01*
X116009744Y-74582795D01*
X115840226Y-74696063D01*
X115696063Y-74840226D01*
X115582795Y-75009744D01*
X115504774Y-75198102D01*
X115465000Y-75398061D01*
X115465000Y-75601939D01*
X115502654Y-75791240D01*
X115502653Y-82533636D01*
X115458716Y-82577573D01*
X115345448Y-82747091D01*
X115267427Y-82935449D01*
X115227653Y-83135408D01*
X115227653Y-83339286D01*
X115267427Y-83539245D01*
X115345448Y-83727603D01*
X115458716Y-83897121D01*
X115602879Y-84041284D01*
X115772397Y-84154552D01*
X115960755Y-84232573D01*
X116160714Y-84272347D01*
X116364592Y-84272347D01*
X116564551Y-84232573D01*
X116700000Y-84176468D01*
X116700000Y-84221821D01*
X116513368Y-84346525D01*
X116306525Y-84553368D01*
X116190000Y-84727760D01*
X116073475Y-84553368D01*
X115866632Y-84346525D01*
X115623411Y-84184010D01*
X115353158Y-84072068D01*
X115066260Y-84015000D01*
X114773740Y-84015000D01*
X114486842Y-84072068D01*
X114315001Y-84143247D01*
X114315001Y-65839800D01*
X114673592Y-65481209D01*
X114893740Y-65525000D01*
X115186260Y-65525000D01*
X115473158Y-65467932D01*
X115743411Y-65355990D01*
X115946492Y-65220296D01*
X116700001Y-65973806D01*
%TA.AperFunction,Conductor*%
D15*
G36*
X116700001Y-65973806D02*
G01*
X116700001Y-74484506D01*
X116601939Y-74465000D01*
X116398061Y-74465000D01*
X116198102Y-74504774D01*
X116009744Y-74582795D01*
X115840226Y-74696063D01*
X115696063Y-74840226D01*
X115582795Y-75009744D01*
X115504774Y-75198102D01*
X115465000Y-75398061D01*
X115465000Y-75601939D01*
X115502654Y-75791240D01*
X115502653Y-82533636D01*
X115458716Y-82577573D01*
X115345448Y-82747091D01*
X115267427Y-82935449D01*
X115227653Y-83135408D01*
X115227653Y-83339286D01*
X115267427Y-83539245D01*
X115345448Y-83727603D01*
X115458716Y-83897121D01*
X115602879Y-84041284D01*
X115772397Y-84154552D01*
X115960755Y-84232573D01*
X116160714Y-84272347D01*
X116364592Y-84272347D01*
X116564551Y-84232573D01*
X116700000Y-84176468D01*
X116700000Y-84221821D01*
X116513368Y-84346525D01*
X116306525Y-84553368D01*
X116190000Y-84727760D01*
X116073475Y-84553368D01*
X115866632Y-84346525D01*
X115623411Y-84184010D01*
X115353158Y-84072068D01*
X115066260Y-84015000D01*
X114773740Y-84015000D01*
X114486842Y-84072068D01*
X114315001Y-84143247D01*
X114315001Y-65839800D01*
X114673592Y-65481209D01*
X114893740Y-65525000D01*
X115186260Y-65525000D01*
X115473158Y-65467932D01*
X115743411Y-65355990D01*
X115946492Y-65220296D01*
X116700001Y-65973806D01*
G37*
%TD.AperFunction*%
%TD*%
M02*
