%TF.GenerationSoftware,KiCad,Pcbnew,5.1.9+dfsg1-1*%
%TF.CreationDate,2021-11-08T10:09:36+01:00*%
%TF.ProjectId,Controller,436f6e74-726f-46c6-9c65-722e6b696361,rev?*%
%TF.SameCoordinates,Original*%
%TF.FileFunction,Legend,Bot*%
%TF.FilePolarity,Positive*%
%FSLAX46Y46*%
G04 Gerber Fmt 4.6, Leading zero omitted, Abs format (unit mm)*
G04 Created by KiCad (PCBNEW 5.1.9+dfsg1-1) date 2021-11-08 10:09:36*
%MOMM*%
%LPD*%
G01*
G04 APERTURE LIST*
%ADD10C,0.120000*%
%ADD11C,0.150000*%
G04 APERTURE END LIST*
D10*
%TO.C,SW5*%
X117150000Y-82300000D02*
X117150000Y-82050000D01*
X117150000Y-82050000D02*
X110850000Y-82050000D01*
X110850000Y-82050000D02*
X110850000Y-82300000D01*
X117150000Y-86800000D02*
X117150000Y-84200000D01*
X110850000Y-88700000D02*
X110850000Y-88950000D01*
X110850000Y-88950000D02*
X117150000Y-88950000D01*
X117150000Y-88950000D02*
X117150000Y-88700000D01*
X110850000Y-84200000D02*
X110850000Y-86800000D01*
%TO.C,SW4*%
X110850000Y-72700000D02*
X110850000Y-72950000D01*
X110850000Y-72950000D02*
X117150000Y-72950000D01*
X117150000Y-72950000D02*
X117150000Y-72700000D01*
X110850000Y-68200000D02*
X110850000Y-70800000D01*
X117150000Y-66300000D02*
X117150000Y-66050000D01*
X117150000Y-66050000D02*
X110850000Y-66050000D01*
X110850000Y-66050000D02*
X110850000Y-66300000D01*
X117150000Y-70800000D02*
X117150000Y-68200000D01*
%TO.C,SW3*%
X102850000Y-80700000D02*
X102850000Y-80950000D01*
X102850000Y-80950000D02*
X109150000Y-80950000D01*
X109150000Y-80950000D02*
X109150000Y-80700000D01*
X102850000Y-76200000D02*
X102850000Y-78800000D01*
X109150000Y-74300000D02*
X109150000Y-74050000D01*
X109150000Y-74050000D02*
X102850000Y-74050000D01*
X102850000Y-74050000D02*
X102850000Y-74300000D01*
X109150000Y-78800000D02*
X109150000Y-76200000D01*
%TO.C,SW1*%
X118850000Y-80700000D02*
X118850000Y-80950000D01*
X118850000Y-80950000D02*
X125150000Y-80950000D01*
X125150000Y-80950000D02*
X125150000Y-80700000D01*
X118850000Y-76200000D02*
X118850000Y-78800000D01*
X125150000Y-74300000D02*
X125150000Y-74050000D01*
X125150000Y-74050000D02*
X118850000Y-74050000D01*
X118850000Y-74050000D02*
X118850000Y-74300000D01*
X125150000Y-78800000D02*
X125150000Y-76200000D01*
%TO.C,D6*%
X104250000Y-67400000D02*
X106250000Y-67400000D01*
X106250000Y-67400000D02*
X106250000Y-71300000D01*
X104250000Y-67400000D02*
X104250000Y-71300000D01*
%TO.C,D5*%
X122500000Y-83100000D02*
X124500000Y-83100000D01*
X124500000Y-83100000D02*
X124500000Y-87000000D01*
X122500000Y-83100000D02*
X122500000Y-87000000D01*
%TO.C,D4*%
X106750000Y-67400000D02*
X108750000Y-67400000D01*
X108750000Y-67400000D02*
X108750000Y-71300000D01*
X106750000Y-67400000D02*
X106750000Y-71300000D01*
%TO.C,D3*%
X105500000Y-83750000D02*
X107500000Y-83750000D01*
X107500000Y-83750000D02*
X107500000Y-87650000D01*
X105500000Y-83750000D02*
X105500000Y-87650000D01*
%TO.C,D2*%
X125238000Y-83100000D02*
X127238000Y-83100000D01*
X127238000Y-83100000D02*
X127238000Y-87000000D01*
X125238000Y-83100000D02*
X125238000Y-87000000D01*
%TO.C,D1*%
X120000000Y-67100000D02*
X122000000Y-67100000D01*
X122000000Y-67100000D02*
X122000000Y-71000000D01*
X120000000Y-67100000D02*
X120000000Y-71000000D01*
%TO.C,SW5*%
D11*
X115333333Y-81404761D02*
X115190476Y-81452380D01*
X114952380Y-81452380D01*
X114857142Y-81404761D01*
X114809523Y-81357142D01*
X114761904Y-81261904D01*
X114761904Y-81166666D01*
X114809523Y-81071428D01*
X114857142Y-81023809D01*
X114952380Y-80976190D01*
X115142857Y-80928571D01*
X115238095Y-80880952D01*
X115285714Y-80833333D01*
X115333333Y-80738095D01*
X115333333Y-80642857D01*
X115285714Y-80547619D01*
X115238095Y-80500000D01*
X115142857Y-80452380D01*
X114904761Y-80452380D01*
X114761904Y-80500000D01*
X114428571Y-80452380D02*
X114190476Y-81452380D01*
X114000000Y-80738095D01*
X113809523Y-81452380D01*
X113571428Y-80452380D01*
X112714285Y-80452380D02*
X113190476Y-80452380D01*
X113238095Y-80928571D01*
X113190476Y-80880952D01*
X113095238Y-80833333D01*
X112857142Y-80833333D01*
X112761904Y-80880952D01*
X112714285Y-80928571D01*
X112666666Y-81023809D01*
X112666666Y-81261904D01*
X112714285Y-81357142D01*
X112761904Y-81404761D01*
X112857142Y-81452380D01*
X113095238Y-81452380D01*
X113190476Y-81404761D01*
X113238095Y-81357142D01*
%TO.C,SW4*%
X115333333Y-74404761D02*
X115190476Y-74452380D01*
X114952380Y-74452380D01*
X114857142Y-74404761D01*
X114809523Y-74357142D01*
X114761904Y-74261904D01*
X114761904Y-74166666D01*
X114809523Y-74071428D01*
X114857142Y-74023809D01*
X114952380Y-73976190D01*
X115142857Y-73928571D01*
X115238095Y-73880952D01*
X115285714Y-73833333D01*
X115333333Y-73738095D01*
X115333333Y-73642857D01*
X115285714Y-73547619D01*
X115238095Y-73500000D01*
X115142857Y-73452380D01*
X114904761Y-73452380D01*
X114761904Y-73500000D01*
X114428571Y-73452380D02*
X114190476Y-74452380D01*
X114000000Y-73738095D01*
X113809523Y-74452380D01*
X113571428Y-73452380D01*
X112761904Y-73785714D02*
X112761904Y-74452380D01*
X113000000Y-73404761D02*
X113238095Y-74119047D01*
X112619047Y-74119047D01*
%TO.C,SW3*%
X107333333Y-82404761D02*
X107190476Y-82452380D01*
X106952380Y-82452380D01*
X106857142Y-82404761D01*
X106809523Y-82357142D01*
X106761904Y-82261904D01*
X106761904Y-82166666D01*
X106809523Y-82071428D01*
X106857142Y-82023809D01*
X106952380Y-81976190D01*
X107142857Y-81928571D01*
X107238095Y-81880952D01*
X107285714Y-81833333D01*
X107333333Y-81738095D01*
X107333333Y-81642857D01*
X107285714Y-81547619D01*
X107238095Y-81500000D01*
X107142857Y-81452380D01*
X106904761Y-81452380D01*
X106761904Y-81500000D01*
X106428571Y-81452380D02*
X106190476Y-82452380D01*
X106000000Y-81738095D01*
X105809523Y-82452380D01*
X105571428Y-81452380D01*
X105285714Y-81452380D02*
X104666666Y-81452380D01*
X105000000Y-81833333D01*
X104857142Y-81833333D01*
X104761904Y-81880952D01*
X104714285Y-81928571D01*
X104666666Y-82023809D01*
X104666666Y-82261904D01*
X104714285Y-82357142D01*
X104761904Y-82404761D01*
X104857142Y-82452380D01*
X105142857Y-82452380D01*
X105238095Y-82404761D01*
X105285714Y-82357142D01*
%TO.C,SW1*%
X123333333Y-82404761D02*
X123190476Y-82452380D01*
X122952380Y-82452380D01*
X122857142Y-82404761D01*
X122809523Y-82357142D01*
X122761904Y-82261904D01*
X122761904Y-82166666D01*
X122809523Y-82071428D01*
X122857142Y-82023809D01*
X122952380Y-81976190D01*
X123142857Y-81928571D01*
X123238095Y-81880952D01*
X123285714Y-81833333D01*
X123333333Y-81738095D01*
X123333333Y-81642857D01*
X123285714Y-81547619D01*
X123238095Y-81500000D01*
X123142857Y-81452380D01*
X122904761Y-81452380D01*
X122761904Y-81500000D01*
X122428571Y-81452380D02*
X122190476Y-82452380D01*
X122000000Y-81738095D01*
X121809523Y-82452380D01*
X121571428Y-81452380D01*
X120666666Y-82452380D02*
X121238095Y-82452380D01*
X120952380Y-82452380D02*
X120952380Y-81452380D01*
X121047619Y-81595238D01*
X121142857Y-81690476D01*
X121238095Y-81738095D01*
%TO.C,D6*%
X105988095Y-66952380D02*
X105988095Y-65952380D01*
X105750000Y-65952380D01*
X105607142Y-66000000D01*
X105511904Y-66095238D01*
X105464285Y-66190476D01*
X105416666Y-66380952D01*
X105416666Y-66523809D01*
X105464285Y-66714285D01*
X105511904Y-66809523D01*
X105607142Y-66904761D01*
X105750000Y-66952380D01*
X105988095Y-66952380D01*
X104559523Y-65952380D02*
X104750000Y-65952380D01*
X104845238Y-66000000D01*
X104892857Y-66047619D01*
X104988095Y-66190476D01*
X105035714Y-66380952D01*
X105035714Y-66761904D01*
X104988095Y-66857142D01*
X104940476Y-66904761D01*
X104845238Y-66952380D01*
X104654761Y-66952380D01*
X104559523Y-66904761D01*
X104511904Y-66857142D01*
X104464285Y-66761904D01*
X104464285Y-66523809D01*
X104511904Y-66428571D01*
X104559523Y-66380952D01*
X104654761Y-66333333D01*
X104845238Y-66333333D01*
X104940476Y-66380952D01*
X104988095Y-66428571D01*
X105035714Y-66523809D01*
%TO.C,D5*%
X124238095Y-89202380D02*
X124238095Y-88202380D01*
X124000000Y-88202380D01*
X123857142Y-88250000D01*
X123761904Y-88345238D01*
X123714285Y-88440476D01*
X123666666Y-88630952D01*
X123666666Y-88773809D01*
X123714285Y-88964285D01*
X123761904Y-89059523D01*
X123857142Y-89154761D01*
X124000000Y-89202380D01*
X124238095Y-89202380D01*
X122761904Y-88202380D02*
X123238095Y-88202380D01*
X123285714Y-88678571D01*
X123238095Y-88630952D01*
X123142857Y-88583333D01*
X122904761Y-88583333D01*
X122809523Y-88630952D01*
X122761904Y-88678571D01*
X122714285Y-88773809D01*
X122714285Y-89011904D01*
X122761904Y-89107142D01*
X122809523Y-89154761D01*
X122904761Y-89202380D01*
X123142857Y-89202380D01*
X123238095Y-89154761D01*
X123285714Y-89107142D01*
%TO.C,D4*%
X108488095Y-66952380D02*
X108488095Y-65952380D01*
X108250000Y-65952380D01*
X108107142Y-66000000D01*
X108011904Y-66095238D01*
X107964285Y-66190476D01*
X107916666Y-66380952D01*
X107916666Y-66523809D01*
X107964285Y-66714285D01*
X108011904Y-66809523D01*
X108107142Y-66904761D01*
X108250000Y-66952380D01*
X108488095Y-66952380D01*
X107059523Y-66285714D02*
X107059523Y-66952380D01*
X107297619Y-65904761D02*
X107535714Y-66619047D01*
X106916666Y-66619047D01*
%TO.C,D3*%
X107238095Y-89952380D02*
X107238095Y-88952380D01*
X107000000Y-88952380D01*
X106857142Y-89000000D01*
X106761904Y-89095238D01*
X106714285Y-89190476D01*
X106666666Y-89380952D01*
X106666666Y-89523809D01*
X106714285Y-89714285D01*
X106761904Y-89809523D01*
X106857142Y-89904761D01*
X107000000Y-89952380D01*
X107238095Y-89952380D01*
X106333333Y-88952380D02*
X105714285Y-88952380D01*
X106047619Y-89333333D01*
X105904761Y-89333333D01*
X105809523Y-89380952D01*
X105761904Y-89428571D01*
X105714285Y-89523809D01*
X105714285Y-89761904D01*
X105761904Y-89857142D01*
X105809523Y-89904761D01*
X105904761Y-89952380D01*
X106190476Y-89952380D01*
X106285714Y-89904761D01*
X106333333Y-89857142D01*
%TO.C,D2*%
X126988095Y-89202380D02*
X126988095Y-88202380D01*
X126750000Y-88202380D01*
X126607142Y-88250000D01*
X126511904Y-88345238D01*
X126464285Y-88440476D01*
X126416666Y-88630952D01*
X126416666Y-88773809D01*
X126464285Y-88964285D01*
X126511904Y-89059523D01*
X126607142Y-89154761D01*
X126750000Y-89202380D01*
X126988095Y-89202380D01*
X126035714Y-88297619D02*
X125988095Y-88250000D01*
X125892857Y-88202380D01*
X125654761Y-88202380D01*
X125559523Y-88250000D01*
X125511904Y-88297619D01*
X125464285Y-88392857D01*
X125464285Y-88488095D01*
X125511904Y-88630952D01*
X126083333Y-89202380D01*
X125464285Y-89202380D01*
%TO.C,D1*%
X121738095Y-73452380D02*
X121738095Y-72452380D01*
X121500000Y-72452380D01*
X121357142Y-72500000D01*
X121261904Y-72595238D01*
X121214285Y-72690476D01*
X121166666Y-72880952D01*
X121166666Y-73023809D01*
X121214285Y-73214285D01*
X121261904Y-73309523D01*
X121357142Y-73404761D01*
X121500000Y-73452380D01*
X121738095Y-73452380D01*
X120214285Y-73452380D02*
X120785714Y-73452380D01*
X120500000Y-73452380D02*
X120500000Y-72452380D01*
X120595238Y-72595238D01*
X120690476Y-72690476D01*
X120785714Y-72738095D01*
%TD*%
M02*
